<svg version="1.1" viewBox="0.0 0.0 528.0 153.6010498687664" fill="none" stroke="none" stroke-linecap="square" stroke-miterlimit="10" xmlns:xlink="http://www.w3.org/1999/xlink" xmlns="http://www.w3.org/2000/svg"><clipPath id="p.0"><path d="m0 0l528.0 0l0 153.60104l-528.0 0l0 -153.60104z" clip-rule="nonzero"/></clipPath><g clip-path="url(#p.0)"><path fill="#000000" fill-opacity="0.0" d="m0 0l528.0 0l0 153.60104l-528.0 0z" fill-rule="evenodd"/><path fill="#222222" d="m0 0.016331496l528.0315 0l0 153.57481l-528.0315 0z" fill-rule="evenodd"/><path fill="#f6b26b" d="m18.03125 23.895605q0 1.078125 -0.25 2.0q-0.25 0.921875 -0.75 1.59375q-0.484375 0.65625 -1.203125 1.046875q-0.71875 0.375 -1.640625 0.375q-0.84375 0 -1.484375 -0.265625q-0.640625 -0.28125 -1.109375 -0.796875l0 4.671873l-2.171875 0l0 -13.656248l2.0 0l0.09375 1.0q0.46875 -0.5625 1.125 -0.859375q0.65625 -0.3125 1.515625 -0.3125q0.9375 0 1.65625 0.359375q0.734375 0.359375 1.21875 1.03125q0.5 0.65625 0.75 1.578125q0.25 0.921875 0.25 2.046875l0 0.1875zm-2.171875 -0.1875q0 -0.671875 -0.140625 -1.25q-0.125 -0.59375 -0.421875 -1.03125q-0.28125 -0.453125 -0.71875 -0.703125q-0.421875 -0.25 -1.03125 -0.25q-0.734375 0 -1.203125 0.3125q-0.46875 0.296875 -0.75 0.828125l0 4.40625q0.28125 0.5 0.75 0.828125q0.46875 0.3125 1.21875 0.3125q0.609375 0 1.046875 -0.265625q0.4375 -0.265625 0.703125 -0.703125q0.28125 -0.453125 0.40625 -1.03125q0.140625 -0.59375 0.140625 -1.265625l0 -0.1875zm11.070572 3.671875q-0.5 0.71875 -1.21875 1.125q-0.71875 0.40625 -1.59375 0.40625q-0.765625 0 -1.40625 -0.234375q-0.625 -0.234375 -1.078125 -0.75q-0.453125 -0.515625 -0.703125 -1.3125q-0.25 -0.796875 -0.25 -1.921875l0 -5.828125l2.171875 0l0 5.84375q0 0.71875 0.109375 1.1875q0.109375 0.453125 0.328125 0.734375q0.21875 0.265625 0.546875 0.390625q0.328125 0.109375 0.78125 0.109375q0.875 0 1.40625 -0.34375q0.546875 -0.34375 0.8125 -0.921875l0 -7.0l2.1875 0l0 9.859375l-1.96875 0l-0.125 -1.34375zm13.539322 -3.46875q0 1.09375 -0.25 2.015625q-0.25 0.90625 -0.75 1.578125q-0.484375 0.65625 -1.203125 1.03125q-0.71875 0.375 -1.65625 0.375q-0.90625 0 -1.578125 -0.3125q-0.65625 -0.328125 -1.125 -0.9375l-0.09375 1.0625l-1.984375 0l0 -13.999999l2.171875 0l0 5.078124q0.46875 -0.53125 1.09375 -0.8125q0.640625 -0.296875 1.484375 -0.296875q0.953125 0 1.671875 0.375q0.734375 0.359375 1.21875 1.03125q0.5 0.65625 0.75 1.578125q0.25 0.921875 0.25 2.03125l0 0.203125zm-2.1875 -0.203125q0 -0.65625 -0.109375 -1.234375q-0.109375 -0.59375 -0.375 -1.03125q-0.25 -0.453125 -0.6875 -0.703125q-0.4375 -0.265625 -1.078125 -0.265625q-0.78125 0 -1.28125 0.359375q-0.484375 0.34375 -0.75 0.921875l0 4.078125q0.265625 0.5625 0.765625 0.9375q0.5 0.359375 1.28125 0.359375q0.625 0 1.046875 -0.25q0.421875 -0.25 0.6875 -0.6875q0.265625 -0.4375 0.375 -1.015625q0.125 -0.59375 0.125 -1.265625l0 -0.203125zm5.117447 -8.984374l5.328125 0l0 12.203124l3.0 0l0 1.796875l-8.328125 0l0 -1.796875l3.140625 0l0 -10.375l-3.140625 0l0 -1.828124zm11.273697 4.140624l5.25 0l0 8.0625l2.921875 0l0 1.796875l-8.171875 0l0 -1.796875l3.0625 0l0 -6.25l-3.0625 0l0 -1.8125zm2.875 -2.546875q0 -0.51562405 0.328125 -0.84374905q0.328125 -0.328125 0.921875 -0.328125q0.59375 0 0.921875 0.328125q0.34375 0.328125 0.34375 0.84374905q0 0.515625 -0.34375 0.84375q-0.328125 0.328125 -0.921875 0.328125q-0.59375 0 -0.921875 -0.328125q-0.328125 -0.328125 -0.328125 -0.84375zm12.148697 10.859375q0.40625 0 0.78125 -0.125q0.375 -0.125 0.65625 -0.359375q0.296875 -0.234375 0.46875 -0.53125q0.171875 -0.3125 0.15625 -0.6875l2.0625 0q0.015625 0.71875 -0.328125 1.34375q-0.328125 0.625 -0.90625 1.09375q-0.5625 0.453125 -1.3125 0.734375q-0.734375 0.265625 -1.5625 0.265625q-1.140625 0 -2.0 -0.390625q-0.84375 -0.390625 -1.421875 -1.0625q-0.578125 -0.6875 -0.859375 -1.578125q-0.28125 -0.90625 -0.28125 -1.90625l0 -0.328125q0 -1.015625 0.28125 -1.90625q0.28125 -0.90625 0.859375 -1.578125q0.578125 -0.6875 1.421875 -1.078125q0.859375 -0.390625 2.0 -0.390625q0.890625 0 1.640625 0.28125q0.765625 0.265625 1.3125 0.75q0.5625 0.484375 0.859375 1.171875q0.3125 0.6875 0.296875 1.5l-2.0625 0q0.015625 -0.40625 -0.140625 -0.75q-0.140625 -0.359375 -0.421875 -0.625q-0.28125 -0.265625 -0.671875 -0.421875q-0.375 -0.15625 -0.828125 -0.15625q-0.6875 0 -1.140625 0.28125q-0.453125 0.28125 -0.734375 0.734375q-0.265625 0.4375 -0.390625 1.015625q-0.109375 0.578125 -0.109375 1.171875l0 0.328125q0 0.59375 0.109375 1.171875q0.125 0.578125 0.390625 1.03125q0.28125 0.4375 0.734375 0.71875q0.453125 0.28125 1.140625 0.28125z" fill-rule="nonzero"/><path fill="#93c47d" d="m90.119 26.94248l6.328125 0l0 1.78125l-8.515625 0l0 -13.265624l2.1875 0l0 11.484374zm9.336197 -8.078125l5.25 0l0 8.0625l2.921875 0l0 1.796875l-8.171875 0l0 -1.796875l3.0625 0l0 -6.25l-3.0625 0l0 -1.8125zm2.875 -2.546875q0 -0.51562405 0.328125 -0.84374905q0.328125 -0.328125 0.921875 -0.328125q0.59375 0 0.921875 0.328125q0.34375 0.328125 0.34375 0.84374905q0 0.515625 -0.34375 0.84375q-0.328125 0.328125 -0.921875 0.328125q-0.59375 0 -0.921875 -0.328125q-0.328125 -0.328125 -0.328125 -0.84375zm7.554947 7.40625q0 -1.125 0.28125 -2.046875q0.28125 -0.9375 0.796875 -1.59375q0.515625 -0.671875 1.25 -1.03125q0.734375 -0.359375 1.640625 -0.359375q0.890625 0 1.53125 0.296875q0.65625 0.296875 1.125 0.859375l0.078125 -0.984375l1.984375 0l0 9.59375q0 1.0 -0.328125 1.765625q-0.328125 0.765625 -0.921875 1.296875q-0.578125 0.5312481 -1.40625 0.7968731q-0.8125 0.28125 -1.796875 0.28125q-0.40625 0 -0.921875 -0.09375q-0.5 -0.078125 -1.015625 -0.28125q-0.5 -0.1875 -0.96875 -0.4999981q-0.453125 -0.3125 -0.78125 -0.765625l1.03125 -1.296875q0.5625 0.65625 1.203125 0.9375q0.640625 0.28125 1.328125 0.28125q0.546875 0 0.984375 -0.15625q0.453125 -0.15625 0.75 -0.453125q0.3125 -0.296875 0.484375 -0.75q0.171875 -0.4375 0.171875 -1.0l0 -0.671875q-0.46875 0.515625 -1.09375 0.796875q-0.625 0.265625 -1.453125 0.265625q-0.890625 0 -1.625 -0.375q-0.734375 -0.390625 -1.25 -1.046875q-0.515625 -0.671875 -0.796875 -1.578125q-0.28125 -0.921875 -0.28125 -2.0l0 -0.1875zm2.1875 0.1875q0 0.671875 0.140625 1.25q0.140625 0.578125 0.421875 1.015625q0.28125 0.4375 0.71875 0.6875q0.4375 0.25 1.046875 0.25q0.75 0 1.21875 -0.3125q0.484375 -0.3125 0.765625 -0.84375l0 -4.34375q-0.296875 -0.53125 -0.765625 -0.828125q-0.46875 -0.3125 -1.203125 -0.3125q-0.59375 0 -1.046875 0.25q-0.4375 0.25 -0.734375 0.703125q-0.28125 0.453125 -0.421875 1.046875q-0.140625 0.578125 -0.140625 1.25l0 0.1875zm11.476822 -3.671875q0.5 -0.734375 1.234375 -1.140625q0.734375 -0.40625 1.640625 -0.40625q0.765625 0 1.40625 0.234375q0.640625 0.21875 1.09375 0.703125q0.453125 0.46875 0.703125 1.21875q0.265625 0.75 0.265625 1.796875l0 6.078125l-2.171875 0l0 -6.09375q0 -0.5625 -0.140625 -0.96875q-0.140625 -0.40625 -0.40625 -0.671875q-0.265625 -0.265625 -0.640625 -0.390625q-0.359375 -0.125 -0.84375 -0.125q-0.703125 0 -1.25 0.296875q-0.546875 0.296875 -0.890625 0.796875l0 7.15625l-2.1875 0l0 -13.999999l2.1875 0l0 5.515624zm13.383072 -3.765625l0 2.390625l3.71875 0l0 1.625l-3.71875 0l0 4.734375q0 0.546875 0.125 0.921875q0.140625 0.359375 0.375 0.578125q0.234375 0.21875 0.546875 0.3125q0.328125 0.078125 0.703125 0.078125q0.28125 0 0.578125 -0.03125q0.3125 -0.03125 0.59375 -0.078125q0.296875 -0.046875 0.53125 -0.09375q0.25 -0.046875 0.40625 -0.09375l0.25 1.5q-0.234375 0.140625 -0.578125 0.265625q-0.328125 0.109375 -0.71875 0.171875q-0.390625 0.078125 -0.8125 0.109375q-0.421875 0.046875 -0.828125 0.046875q-0.734375 0 -1.359375 -0.203125q-0.609375 -0.203125 -1.0625 -0.625q-0.4375 -0.4375 -0.6875 -1.109375q-0.25 -0.6875 -0.25 -1.640625l0 -4.84375l-2.40625 0l0 -1.625l2.40625 0l0 -2.390625l2.1875 0z" fill-rule="nonzero"/><path fill="#ffffff" d="m155.35493 14.723731l5.328125 0l0 12.203124l3.0 0l0 1.796875l-8.328125 0l0 -1.796875l3.140625 0l0 -10.375l-3.140625 0l0 -1.828124zm11.273697 4.140624l5.25 0l0 8.0625l2.921875 0l0 1.796875l-8.171875 0l0 -1.796875l3.0625 0l0 -6.25l-3.0625 0l0 -1.8125zm2.875 -2.546875q0 -0.51562405 0.328125 -0.84374905q0.328125 -0.328125 0.921875 -0.328125q0.59375 0 0.921875 0.328125q0.34375 0.328125 0.34375 0.84374905q0 0.515625 -0.34375 0.84375q-0.328125 0.328125 -0.921875 0.328125q-0.59375 0 -0.921875 -0.328125q-0.328125 -0.328125 -0.328125 -0.84375zm7.554947 7.40625q0 -1.125 0.28125 -2.046875q0.28125 -0.9375 0.796875 -1.59375q0.515625 -0.671875 1.25 -1.03125q0.734375 -0.359375 1.640625 -0.359375q0.890625 0 1.53125 0.296875q0.65625 0.296875 1.125 0.859375l0.078125 -0.984375l1.984375 0l0 9.59375q0 1.0 -0.328125 1.765625q-0.328125 0.765625 -0.921875 1.296875q-0.578125 0.5312481 -1.40625 0.7968731q-0.8125 0.28125 -1.796875 0.28125q-0.40625 0 -0.921875 -0.09375q-0.5 -0.078125 -1.015625 -0.28125q-0.5 -0.1875 -0.96875 -0.4999981q-0.453125 -0.3125 -0.78125 -0.765625l1.03125 -1.296875q0.5625 0.65625 1.203125 0.9375q0.640625 0.28125 1.328125 0.28125q0.546875 0 0.984375 -0.15625q0.453125 -0.15625 0.75 -0.453125q0.3125 -0.296875 0.484375 -0.75q0.171875 -0.4375 0.171875 -1.0l0 -0.671875q-0.46875 0.515625 -1.09375 0.796875q-0.625 0.265625 -1.453125 0.265625q-0.890625 0 -1.625 -0.375q-0.734375 -0.390625 -1.25 -1.046875q-0.515625 -0.671875 -0.796875 -1.578125q-0.28125 -0.921875 -0.28125 -2.0l0 -0.1875zm2.1875 0.1875q0 0.671875 0.140625 1.25q0.140625 0.578125 0.421875 1.015625q0.28125 0.4375 0.71875 0.6875q0.4375 0.25 1.046875 0.25q0.75 0 1.21875 -0.3125q0.484375 -0.3125 0.765625 -0.84375l0 -4.34375q-0.296875 -0.53125 -0.765625 -0.828125q-0.46875 -0.3125 -1.203125 -0.3125q-0.59375 0 -1.046875 0.25q-0.4375 0.25 -0.734375 0.703125q-0.28125 0.453125 -0.421875 1.046875q-0.140625 0.578125 -0.140625 1.25l0 0.1875zm11.476822 -3.671875q0.5 -0.734375 1.234375 -1.140625q0.734375 -0.40625 1.640625 -0.40625q0.765625 0 1.40625 0.234375q0.640625 0.21875 1.09375 0.703125q0.453125 0.46875 0.703125 1.21875q0.265625 0.75 0.265625 1.796875l0 6.078125l-2.171875 0l0 -6.09375q0 -0.5625 -0.140625 -0.96875q-0.140625 -0.40625 -0.40625 -0.671875q-0.265625 -0.265625 -0.640625 -0.390625q-0.359375 -0.125 -0.84375 -0.125q-0.703125 0 -1.25 0.296875q-0.546875 0.296875 -0.890625 0.796875l0 7.15625l-2.1875 0l0 -13.999999l2.1875 0l0 5.515624zm13.383072 -3.765625l0 2.390625l3.71875 0l0 1.625l-3.71875 0l0 4.734375q0 0.546875 0.125 0.921875q0.140625 0.359375 0.375 0.578125q0.234375 0.21875 0.546875 0.3125q0.328125 0.078125 0.703125 0.078125q0.28125 0 0.578125 -0.03125q0.3125 -0.03125 0.59375 -0.078125q0.296875 -0.046875 0.53125 -0.09375q0.25 -0.046875 0.40625 -0.09375l0.25 1.5q-0.234375 0.140625 -0.578125 0.265625q-0.328125 0.109375 -0.71875 0.171875q-0.390625 0.078125 -0.8125 0.109375q-0.421875 0.046875 -0.828125 0.046875q-0.734375 0 -1.359375 -0.203125q-0.609375 -0.203125 -1.0625 -0.625q-0.4375 -0.4375 -0.6875 -1.109375q-0.25 -0.6875 -0.25 -1.640625l0 -4.84375l-2.40625 0l0 -1.625l2.40625 0l0 -2.390625l2.1875 0zm9.554947 2.953125q0 -0.328125 0.09375 -0.609375q0.109375 -0.28125 0.3125 -0.484375q0.203125 -0.203125 0.5 -0.3125q0.296875 -0.125 0.671875 -0.125q0.390625 0 0.6875 0.125q0.296875 0.109375 0.5 0.3125q0.203125 0.203125 0.296875 0.484375q0.109375 0.28125 0.109375 0.609375q0 0.3125 -0.109375 0.578125q-0.09375 0.265625 -0.296875 0.46875q-0.203125 0.203125 -0.5 0.328125q-0.296875 0.109375 -0.6875 0.109375q-0.375 0 -0.671875 -0.109375q-0.296875 -0.125 -0.5 -0.328125q-0.203125 -0.203125 -0.3125 -0.46875q-0.09375 -0.265625 -0.09375 -0.578125zm3.0625 9.0q0 0.484375 -0.125 0.984375q-0.125 0.515625 -0.359375 1.0q-0.21875 0.5 -0.546875 0.9375q-0.328125 0.4375 -0.71875 0.7968731l-1.234375 -0.6562481q0.390625 -0.65625 0.59375 -1.375q0.21875 -0.71875 0.21875 -1.625l0 -1.890625l2.1875 0l-0.015625 1.828125z" fill-rule="nonzero"/><path fill="#f6b26b" d="m13.453125 69.97373l0.15625 0.734375l0.15625 -0.71875l2.390625 -7.125004l2.25 0l-3.859375 9.859379l-1.875 0l-3.90625 -9.859379l2.25 0l2.4375 7.109379zm6.758072 -2.265625q0 -1.0625 0.3125 -1.984375q0.3125 -0.921875 0.890625 -1.59375q0.59375 -0.6875038 1.4375 -1.0625038q0.859375 -0.375 1.921875 -0.375q1.09375 0 1.9375 0.375q0.859375 0.375 1.4375 1.0625038q0.59375 0.671875 0.90625 1.59375q0.3125 0.921875 0.3125 1.984375l0 0.1875q0 1.078125 -0.3125 2.0q-0.3125 0.921875 -0.90625 1.59375q-0.578125 0.65625 -1.4375 1.046875q-0.84375 0.375 -1.90625 0.375q-1.09375 0 -1.953125 -0.375q-0.84375 -0.390625 -1.4375 -1.046875q-0.578125 -0.671875 -0.890625 -1.59375q-0.3125 -0.921875 -0.3125 -2.0l0 -0.1875zm2.171875 0.1875q0 0.671875 0.140625 1.265625q0.140625 0.59375 0.4375 1.046875q0.296875 0.453125 0.75 0.71875q0.453125 0.25 1.09375 0.25q0.609375 0 1.046875 -0.25q0.453125 -0.265625 0.75 -0.71875q0.296875 -0.453125 0.4375 -1.046875q0.140625 -0.59375 0.140625 -1.265625l0 -0.1875q0 -0.65625 -0.140625 -1.25q-0.140625 -0.59375 -0.4375 -1.03125q-0.296875 -0.453125 -0.75 -0.71875q-0.4375 -0.265625 -1.078125 -0.265625q-0.609375 0 -1.078125 0.265625q-0.453125 0.265625 -0.75 0.71875q-0.28125 0.4375 -0.421875 1.03125q-0.140625 0.59375 -0.140625 1.25l0 0.1875zm9.898697 -5.031254l5.25 0l0 8.062504l2.921875 0l0 1.796875l-8.171875 0l0 -1.796875l3.0625 0l0 -6.25l-3.0625 0l0 -1.8125038zm2.875 -2.546875q0 -0.515625 0.328125 -0.84375q0.328125 -0.328125 0.921875 -0.328125q0.59375 0 0.921875 0.328125q0.34375 0.328125 0.34375 0.84375q0 0.515625 -0.34375 0.84375q-0.328125 0.328125 -0.921875 0.328125q-0.59375 0 -0.921875 -0.328125q-0.328125 -0.328125 -0.328125 -0.84375zm7.554947 7.406254q0 -1.125 0.265625 -2.046875q0.28125 -0.9375 0.78125 -1.59375q0.515625 -0.6718788 1.234375 -1.0312538q0.734375 -0.359375 1.625 -0.359375q0.8125 0 1.4375 0.28125q0.625 0.265625 1.078125 0.78125l0 -5.03125l2.1875 0l0 14.000004l-1.96875 0l-0.109375 -1.0q-0.46875 0.578125 -1.125 0.890625q-0.640625 0.296875 -1.515625 0.296875q-0.890625 0 -1.609375 -0.375q-0.71875 -0.390625 -1.234375 -1.046875q-0.5 -0.671875 -0.78125 -1.578125q-0.265625 -0.921875 -0.265625 -2.0l0 -0.1875zm2.171875 0.1875q0 0.671875 0.125 1.25q0.125 0.578125 0.40625 1.015625q0.28125 0.4375 0.703125 0.6875q0.4375 0.25 1.046875 0.25q0.75 0 1.21875 -0.3125q0.46875 -0.328125 0.75 -0.875l0 -4.28125q-0.28125 -0.53125 -0.765625 -0.84375q-0.46875 -0.328125 -1.1875 -0.328125q-0.609375 0 -1.046875 0.25q-0.421875 0.25 -0.703125 0.703125q-0.28125 0.453125 -0.421875 1.046875q-0.125 0.578125 -0.125 1.25l0 0.1875z" fill-rule="nonzero"/><path fill="#ffffff" d="m72.22786 69.30186q0 -0.46875 -0.203125 -0.828125q-0.1875 -0.359375 -0.5625 -0.625q-0.359375 -0.28125 -0.859375 -0.484375q-0.484375 -0.203125 -1.0625 -0.375q-0.796875 -0.234375 -1.5625 -0.5625q-0.75 -0.34375 -1.34375 -0.828125q-0.59375 -0.484375 -0.96875 -1.140625q-0.359375 -0.6562538 -0.359375 -1.5156288q0 -0.84375 0.359375 -1.515625q0.375 -0.6875 0.984375 -1.15625q0.625 -0.484375 1.4375 -0.734375q0.828125 -0.265625 1.71875 -0.265625q0.953125 0 1.78125 0.296875q0.84375 0.296875 1.46875 0.84375q0.625 0.53125 0.984375 1.28125q0.375 0.734375 0.375 1.625l-2.1875 0q-0.046875 -0.5 -0.21875 -0.90625q-0.15625 -0.421875 -0.46875 -0.71875q-0.296875 -0.296875 -0.734375 -0.453125q-0.4375 -0.171875 -1.015625 -0.171875q-0.5 0 -0.921875 0.125q-0.40625 0.125 -0.71875 0.375q-0.296875 0.25 -0.46875 0.59375q-0.171875 0.34375 -0.171875 0.78125q0 0.46875 0.234375 0.8125q0.234375 0.3281288 0.609375 0.5937538q0.390625 0.25 0.875 0.4375q0.5 0.1875 1.046875 0.34375q0.828125 0.25 1.578125 0.609375q0.765625 0.359375 1.328125 0.859375q0.578125 0.5 0.90625 1.171875q0.34375 0.65625 0.34375 1.515625q0 0.890625 -0.375 1.5625q-0.375 0.671875 -1.0 1.125q-0.625 0.453125 -1.453125 0.6875q-0.828125 0.234375 -1.734375 0.234375q-0.609375 0 -1.21875 -0.125q-0.59375 -0.109375 -1.140625 -0.34375q-0.546875 -0.234375 -1.03125 -0.578125q-0.46875 -0.359375 -0.828125 -0.8125q-0.34375 -0.46875 -0.546875 -1.03125q-0.203125 -0.578125 -0.203125 -1.265625l2.1875 0q0.046875 0.609375 0.265625 1.0625q0.21875 0.4375 0.578125 0.734375q0.375 0.296875 0.859375 0.453125q0.484375 0.140625 1.078125 0.140625q0.5 0 0.921875 -0.109375q0.421875 -0.125 0.734375 -0.359375q0.328125 -0.234375 0.515625 -0.578125q0.1875 -0.34375 0.1875 -0.78125zm8.726822 -8.828129l0 2.390625l3.71875 0l0 1.6250038l-3.71875 0l0 4.734375q0 0.546875 0.125 0.921875q0.140625 0.359375 0.375 0.578125q0.234375 0.21875 0.546875 0.3125q0.328125 0.078125 0.703125 0.078125q0.28125 0 0.578125 -0.03125q0.3125 -0.03125 0.59375 -0.078125q0.296875 -0.046875 0.53125 -0.09375q0.25 -0.046875 0.40625 -0.09375l0.25 1.5q-0.234375 0.140625 -0.578125 0.265625q-0.328125 0.109375 -0.71875 0.171875q-0.390625 0.078125 -0.8125 0.109375q-0.421875 0.046875 -0.828125 0.046875q-0.734375 0 -1.359375 -0.203125q-0.609375 -0.203125 -1.0625 -0.625q-0.4375 -0.4375 -0.6875 -1.109375q-0.25 -0.6875 -0.25 -1.640625l0 -4.84375l-2.40625 0l0 -1.6250038l2.40625 0l0 -2.390625l2.1875 0zm13.117447 12.250004q-0.09375 -0.1875 -0.15625 -0.421875q-0.0625 -0.25 -0.109375 -0.53125q-0.21875 0.234375 -0.515625 0.4375q-0.28125 0.203125 -0.640625 0.359375q-0.34375 0.15625 -0.75 0.25q-0.40625 0.09375 -0.859375 0.09375q-0.796875 0 -1.4375 -0.21875q-0.625 -0.234375 -1.078125 -0.625q-0.4375 -0.40625 -0.6875 -0.9375q-0.25 -0.53125 -0.25 -1.171875q0 -1.578125 1.171875 -2.40625q1.1875 -0.84375 3.390625 -0.84375l1.59375 0l0 -0.65625q0 -0.78125 -0.53125 -1.234375q-0.515625 -0.46875 -1.484375 -0.46875q-0.4375 0 -0.765625 0.109375q-0.328125 0.109375 -0.546875 0.296875q-0.21875 0.171875 -0.328125 0.421875q-0.109375 0.234375 -0.109375 0.53125l-2.171875 0q0 -0.578125 0.265625 -1.125q0.265625 -0.546875 0.78125 -0.9687538q0.515625 -0.421875 1.265625 -0.671875q0.765625 -0.25 1.71875 -0.25q0.875 0 1.625 0.21875q0.75 0.203125 1.296875 0.625q0.546875 0.421875 0.859375 1.0625038q0.3125 0.625 0.3125 1.46875l0 4.390625q0 0.65625 0.09375 1.1875q0.09375 0.53125 0.265625 0.921875l0 0.15625l-2.21875 0zm-2.625 -1.578125q0.421875 0 0.78125 -0.09375q0.375 -0.109375 0.671875 -0.28125q0.296875 -0.171875 0.5 -0.390625q0.21875 -0.21875 0.34375 -0.4375l0 -1.859375l-1.375 0q-1.328125 0 -1.96875 0.4375q-0.640625 0.421875 -0.640625 1.21875q0 0.296875 0.09375 0.5625q0.109375 0.25 0.3125 0.4375q0.21875 0.1875 0.53125 0.296875q0.3125 0.109375 0.75 0.109375zm14.304947 -8.453129q0.25 0 0.515625 0.015625q0.265625 0.015625 0.5 0.0625q0.25 0.03125 0.453125 0.078125q0.203125 0.03125 0.34375 0.078125l-0.3125 2.1406288q-1.0 -0.21875 -1.984375 -0.21875q-1.09375 0 -1.765625 0.453125q-0.65625 0.453125 -0.984375 1.265625l0 6.15625l-2.171875 0l0 -9.859379l2.03125 0l0.109375 1.5468788q0.59375 -0.8125038 1.421875 -1.2656288q0.828125 -0.453125 1.84375 -0.453125zm8.789322 -2.21875l0 2.390625l3.71875 0l0 1.6250038l-3.71875 0l0 4.734375q0 0.546875 0.125 0.921875q0.140625 0.359375 0.375 0.578125q0.234375 0.21875 0.546875 0.3125q0.328125 0.078125 0.703125 0.078125q0.28125 0 0.578125 -0.03125q0.3125 -0.03125 0.59375 -0.078125q0.296875 -0.046875 0.53125 -0.09375q0.25 -0.046875 0.40625 -0.09375l0.25 1.5q-0.234375 0.140625 -0.578125 0.265625q-0.328125 0.109375 -0.71875 0.171875q-0.390625 0.078125 -0.8125 0.109375q-0.421875 0.046875 -0.828125 0.046875q-0.734375 0 -1.359375 -0.203125q-0.609375 -0.203125 -1.0625 -0.625q-0.4375 -0.4375 -0.6875 -1.109375q-0.25 -0.6875 -0.25 -1.640625l0 -4.84375l-2.40625 0l0 -1.6250038l2.40625 0l0 -2.390625l2.1875 0zm8.586197 6.859379q0 -1.328125 0.203125 -2.46875q0.21875 -1.1562538 0.5625 -2.1250038q0.34375 -0.96875 0.796875 -1.765625q0.46875 -0.796875 0.96875 -1.40625q0.515625 -0.625 1.015625 -1.046875q0.515625 -0.421875 0.984375 -0.65625l0.4375 1.28125q-0.515625 0.390625 -1.046875 1.078125q-0.53125 0.6875 -0.953125 1.6875q-0.421875 1.0 -0.703125 2.3437538q-0.265625 1.34375 -0.265625 3.0625l0 0.171875q0 1.71875 0.265625 3.0625q0.28125 1.34375 0.703125 2.34375q0.421875 1.015625 0.953125 1.703125q0.53125 0.703125 1.046875 1.125l-0.4375 1.21875q-0.46875 -0.234375 -0.984375 -0.65625q-0.5 -0.421875 -1.015625 -1.046875q-0.5 -0.609375 -0.96875 -1.40625q-0.453125 -0.796875 -0.796875 -1.765625q-0.34375 -0.96875 -0.5625 -2.109375q-0.203125 -1.15625 -0.203125 -2.484375l0 -0.140625zm15.929947 0.140625q0 1.3125 -0.21875 2.453125q-0.203125 1.140625 -0.5625 2.109375q-0.34375 0.96875 -0.8125 1.765625q-0.46875 0.8125 -0.984375 1.421875q-0.515625 0.625 -1.046875 1.046875q-0.515625 0.4375 -0.96875 0.671875l-0.4375 -1.21875q0.515625 -0.390625 1.046875 -1.09375q0.53125 -0.6875 0.953125 -1.703125q0.421875 -1.015625 0.6875 -2.359375q0.28125 -1.359375 0.28125 -3.078125l0 -0.171875q0 -1.71875 -0.28125 -3.0625q-0.28125 -1.3593788 -0.71875 -2.3750038q-0.4375 -1.03125 -0.96875 -1.71875q-0.515625 -0.6875 -1.0 -1.078125l0.4375 -1.21875q0.453125 0.234375 0.96875 0.65625q0.53125 0.421875 1.046875 1.046875q0.515625 0.625 0.984375 1.4375q0.46875 0.796875 0.8125 1.78125q0.359375 0.96875 0.5625 2.1093788q0.21875 1.140625 0.21875 2.4375l0 0.140625zm23.234894 8.53125q-0.609375 0 -1.109375 -0.1875q-0.484375 -0.171875 -0.875 -0.484375q-0.375 -0.3125 -0.65625 -0.734375q-0.28125 -0.421875 -0.46875 -0.890625q-0.1875 -0.46875 -0.28125 -0.96875q-0.078125 -0.5 -0.078125 -0.984375l0 -1.484375q0 -1.265625 -0.59375 -1.8125q-0.59375 -0.5625 -1.8125 -0.5625l0 -1.609375q1.21875 0 1.8125 -0.546875q0.59375 -0.5625 0.59375 -1.8437538l0 -1.484375q0 -0.46875 0.078125 -0.96875q0.078125 -0.5 0.25 -0.96875q0.171875 -0.484375 0.4375 -0.890625q0.28125 -0.421875 0.65625 -0.734375q0.390625 -0.3125 0.890625 -0.484375q0.515625 -0.1875 1.15625 -0.1875l0.234375 1.265625q-0.59375 -0.015625 -0.9375 0.265625q-0.328125 0.265625 -0.484375 0.703125q-0.15625 0.421875 -0.1875 0.953125q-0.03125 0.53125 -0.03125 1.046875l0 1.484375q0 1.0781288 -0.53125 1.9218788q-0.515625 0.84375 -1.609375 1.28125q1.109375 0.4375 1.625 1.265625q0.515625 0.828125 0.515625 1.90625l0 1.484375q0 0.515625 0.0625 1.046875q0.078125 0.546875 0.265625 0.96875q0.1875 0.421875 0.5 0.6875q0.3125 0.28125 0.8125 0.265625l-0.234375 1.28125z" fill-rule="nonzero"/><path fill="#999999" d="m60.109375 95.86436l-1.984375 0l5.25 -14.40625l1.984375 0l-5.25 14.40625zm11.195572 0l-1.984375 0l5.25 -14.40625l1.984375 0l-5.25 14.40625zm20.172394 -11.0l5.25 0l0 8.0625l2.921875 0l0 1.796875l-8.171875 0l0 -1.796875l3.0625 0l0 -6.25l-3.0625 0l0 -1.8125zm2.875 -2.546875q0 -0.515625 0.328125 -0.84375q0.328125 -0.328125 0.921875 -0.328125q0.59375 0 0.921875 0.328125q0.34375 0.328125 0.34375 0.84375q0 0.515625 -0.34375 0.84375q-0.328125 0.328125 -0.921875 0.328125q-0.59375 0 -0.921875 -0.328125q-0.328125 -0.328125 -0.328125 -0.84375zm9.804947 2.546875l0.140625 1.375q0.53125 -0.75 1.296875 -1.140625q0.765625 -0.40625 1.6875 -0.40625q0.765625 0 1.390625 0.21875q0.625 0.21875 1.0625 0.6875q0.453125 0.453125 0.703125 1.1875q0.25 0.734375 0.25 1.78125l0 6.15625l-2.171875 0l0 -6.125q0 -0.609375 -0.140625 -1.015625q-0.140625 -0.40625 -0.40625 -0.65625q-0.25 -0.25 -0.625 -0.34375q-0.375 -0.109375 -0.84375 -0.109375q-0.734375 0 -1.265625 0.328125q-0.53125 0.3125 -0.859375 0.859375l0 7.0625l-2.1875 0l0 -9.859375l1.96875 0zm9.711197 0l5.25 0l0 8.0625l2.921875 0l0 1.796875l-8.171875 0l0 -1.796875l3.0625 0l0 -6.25l-3.0625 0l0 -1.8125zm2.875 -2.546875q0 -0.515625 0.328125 -0.84375q0.328125 -0.328125 0.921875 -0.328125q0.59375 0 0.921875 0.328125q0.34375 0.328125 0.34375 0.84375q0 0.515625 -0.34375 0.84375q-0.328125 0.328125 -0.921875 0.328125q-0.59375 0 -0.921875 -0.328125q-0.328125 -0.328125 -0.328125 -0.84375zm12.211197 0.15625l0 2.390625l3.71875 0l0 1.625l-3.71875 0l0 4.734375q0 0.546875 0.125 0.921875q0.140625 0.359375 0.375 0.578125q0.234375 0.21875 0.546875 0.3125q0.328125 0.078125 0.703125 0.078125q0.28125 0 0.578125 -0.03125q0.3125 -0.03125 0.59375 -0.078125q0.296875 -0.046875 0.53125 -0.09375q0.25 -0.046875 0.40625 -0.09375l0.25 1.5q-0.234375 0.140625 -0.578125 0.265625q-0.328125 0.109375 -0.71875 0.171875q-0.390625 0.078125 -0.8125 0.109375q-0.421875 0.046875 -0.828125 0.046875q-0.734375 0 -1.359375 -0.203125q-0.609375 -0.203125 -1.0625 -0.625q-0.4375 -0.4375 -0.6875 -1.109375q-0.25 -0.6875 -0.25 -1.640625l0 -4.84375l-2.40625 0l0 -1.625l2.40625 0l0 -2.390625l2.1875 0zm7.304947 2.390625l5.25 0l0 8.0625l2.921875 0l0 1.796875l-8.171875 0l0 -1.796875l3.0625 0l0 -6.25l-3.0625 0l0 -1.8125zm2.875 -2.546875q0 -0.515625 0.328125 -0.84375q0.328125 -0.328125 0.921875 -0.328125q0.59375 0 0.921875 0.328125q0.34375 0.328125 0.34375 0.84375q0 0.515625 -0.34375 0.84375q-0.328125 0.328125 -0.921875 0.328125q-0.59375 0 -0.921875 -0.328125q-0.328125 -0.328125 -0.328125 -0.84375zm14.133072 12.40625q-0.09375 -0.1875 -0.15625 -0.421875q-0.0625 -0.25 -0.109375 -0.53125q-0.21875 0.234375 -0.515625 0.4375q-0.28125 0.203125 -0.640625 0.359375q-0.34375 0.15625 -0.75 0.25q-0.40625 0.09375 -0.859375 0.09375q-0.796875 0 -1.4375 -0.21875q-0.625 -0.234375 -1.078125 -0.625q-0.4375 -0.40625 -0.6875 -0.9375q-0.25 -0.53125 -0.25 -1.171875q0 -1.578125 1.171875 -2.40625q1.1875 -0.84375 3.390625 -0.84375l1.59375 0l0 -0.65625q0 -0.78125 -0.53125 -1.234375q-0.515625 -0.46875 -1.484375 -0.46875q-0.4375 0 -0.765625 0.109375q-0.328125 0.109375 -0.546875 0.296875q-0.21875 0.171875 -0.328125 0.421875q-0.109375 0.234375 -0.109375 0.53125l-2.171875 0q0 -0.578125 0.265625 -1.125q0.265625 -0.546875 0.78125 -0.96875q0.515625 -0.421875 1.265625 -0.671875q0.765625 -0.25 1.71875 -0.25q0.875 0 1.625 0.21875q0.75 0.203125 1.296875 0.625q0.546875 0.421875 0.859375 1.0625q0.3125 0.625 0.3125 1.46875l0 4.390625q0 0.65625 0.09375 1.1875q0.09375 0.53125 0.265625 0.921875l0 0.15625l-2.21875 0zm-2.625 -1.578125q0.421875 0 0.78125 -0.09375q0.375 -0.109375 0.671875 -0.28125q0.296875 -0.171875 0.5 -0.390625q0.21875 -0.21875 0.34375 -0.4375l0 -1.859375l-1.375 0q-1.328125 0 -1.96875 0.4375q-0.640625 0.421875 -0.640625 1.21875q0 0.296875 0.09375 0.5625q0.109375 0.25 0.3125 0.4375q0.21875 0.1875 0.53125 0.296875q0.3125 0.109375 0.75 0.109375zm7.929947 -12.421875l5.328125 0l0 12.203125l3.0 0l0 1.796875l-8.328125 0l0 -1.796875l3.140625 0l0 -10.375l-3.140625 0l0 -1.828125zm11.273697 4.140625l5.25 0l0 8.0625l2.921875 0l0 1.796875l-8.171875 0l0 -1.796875l3.0625 0l0 -6.25l-3.0625 0l0 -1.8125zm2.875 -2.546875q0 -0.515625 0.328125 -0.84375q0.328125 -0.328125 0.921875 -0.328125q0.59375 0 0.921875 0.328125q0.34375 0.328125 0.34375 0.84375q0 0.515625 -0.34375 0.84375q-0.328125 0.328125 -0.921875 0.328125q-0.59375 0 -0.921875 -0.328125q-0.328125 -0.328125 -0.328125 -0.84375zm10.570572 10.671875l5.96875 0l0 1.734375l-8.828125 0l0 -1.4375l5.625 -6.65625l-5.546875 0l0 -1.765625l8.484375 0l0 1.390625l-5.703125 6.734375zm13.054947 1.921875q-1.09375 0 -2.0 -0.359375q-0.890625 -0.375 -1.53125 -1.015625q-0.640625 -0.640625 -1.0 -1.5q-0.359375 -0.875 -0.359375 -1.890625l0 -0.375q0 -1.171875 0.375 -2.109375q0.390625 -0.9375 1.015625 -1.59375q0.640625 -0.671875 1.46875 -1.015625q0.84375 -0.359375 1.78125 -0.359375q1.078125 0 1.890625 0.359375q0.828125 0.359375 1.375 1.015625q0.546875 0.640625 0.828125 1.53125q0.28125 0.890625 0.28125 1.953125l0 0.921875l-6.828125 0q0.0625 0.578125 0.28125 1.078125q0.234375 0.484375 0.59375 0.84375q0.375 0.359375 0.859375 0.5625q0.5 0.203125 1.09375 0.203125q0.828125 0 1.53125 -0.328125q0.703125 -0.328125 1.140625 -0.890625l1.171875 1.109375q-0.234375 0.34375 -0.609375 0.6875q-0.375 0.328125 -0.875 0.59375q-0.5 0.25 -1.125 0.40625q-0.625 0.171875 -1.359375 0.171875zm-0.265625 -8.46875q-0.453125 0 -0.84375 0.171875q-0.390625 0.15625 -0.703125 0.46875q-0.3125 0.3125 -0.53125 0.765625q-0.203125 0.453125 -0.296875 1.03125l4.625 0l0 -0.171875q-0.03125 -0.4375 -0.171875 -0.84375q-0.140625 -0.40625 -0.421875 -0.71875q-0.265625 -0.3125 -0.6875 -0.5q-0.40625 -0.203125 -0.96875 -0.203125zm22.438019 -3.96875l0 2.390625l3.71875 0l0 1.625l-3.71875 0l0 4.734375q0 0.546875 0.125 0.921875q0.140625 0.359375 0.375 0.578125q0.234375 0.21875 0.546875 0.3125q0.328125 0.078125 0.703125 0.078125q0.28125 0 0.578125 -0.03125q0.3125 -0.03125 0.59375 -0.078125q0.296875 -0.046875 0.53125 -0.09375q0.25 -0.046875 0.40625 -0.09375l0.25 1.5q-0.234375 0.140625 -0.578125 0.265625q-0.328125 0.109375 -0.71875 0.171875q-0.390625 0.078125 -0.8125 0.109375q-0.421875 0.046875 -0.828125 0.046875q-0.734375 0 -1.359375 -0.203125q-0.609375 -0.203125 -1.0625 -0.625q-0.4375 -0.4375 -0.6875 -1.109375q-0.25 -0.6875 -0.25 -1.640625l0 -4.84375l-2.40625 0l0 -1.625l2.40625 0l0 -2.390625l2.1875 0zm9.008072 3.765625q0.5 -0.734375 1.234375 -1.140625q0.734375 -0.40625 1.640625 -0.40625q0.765625 0 1.40625 0.234375q0.640625 0.21875 1.09375 0.703125q0.453125 0.46875 0.703125 1.21875q0.265625 0.75 0.265625 1.796875l0 6.078125l-2.171875 0l0 -6.09375q0 -0.5625 -0.140625 -0.96875q-0.140625 -0.40625 -0.40625 -0.671875q-0.265625 -0.265625 -0.640625 -0.390625q-0.359375 -0.125 -0.84375 -0.125q-0.703125 0 -1.25 0.296875q-0.546875 0.296875 -0.890625 0.796875l0 7.15625l-2.1875 0l0 -14.0l2.1875 0l0 5.515625zm13.601822 8.671875q-1.09375 0 -2.0 -0.359375q-0.890625 -0.375 -1.53125 -1.015625q-0.640625 -0.640625 -1.0 -1.5q-0.359375 -0.875 -0.359375 -1.890625l0 -0.375q0 -1.171875 0.375 -2.109375q0.390625 -0.9375 1.015625 -1.59375q0.640625 -0.671875 1.46875 -1.015625q0.84375 -0.359375 1.78125 -0.359375q1.078125 0 1.890625 0.359375q0.828125 0.359375 1.375 1.015625q0.546875 0.640625 0.828125 1.53125q0.28125 0.890625 0.28125 1.953125l0 0.921875l-6.828125 0q0.0625 0.578125 0.28125 1.078125q0.234375 0.484375 0.59375 0.84375q0.375 0.359375 0.859375 0.5625q0.5 0.203125 1.09375 0.203125q0.828125 0 1.53125 -0.328125q0.703125 -0.328125 1.140625 -0.890625l1.171875 1.109375q-0.234375 0.34375 -0.609375 0.6875q-0.375 0.328125 -0.875 0.59375q-0.5 0.25 -1.125 0.40625q-0.625 0.171875 -1.359375 0.171875zm-0.265625 -8.46875q-0.453125 0 -0.84375 0.171875q-0.390625 0.15625 -0.703125 0.46875q-0.3125 0.3125 -0.53125 0.765625q-0.203125 0.453125 -0.296875 1.03125l4.625 0l0 -0.171875q-0.03125 -0.4375 -0.171875 -0.84375q-0.140625 -0.40625 -0.421875 -0.71875q-0.265625 -0.3125 -0.6875 -0.5q-0.40625 -0.203125 -0.96875 -0.203125zm24.844269 -1.75q0.25 0 0.515625 0.015625q0.265625 0.015625 0.5 0.0625q0.25 0.03125 0.453125 0.078125q0.203125 0.03125 0.34375 0.078125l-0.3125 2.140625q-1.0 -0.21875 -1.984375 -0.21875q-1.09375 0 -1.765625 0.453125q-0.65625 0.453125 -0.984375 1.265625l0 6.15625l-2.171875 0l0 -9.859375l2.03125 0l0.109375 1.546875q0.59375 -0.8125 1.421875 -1.265625q0.828125 -0.453125 1.84375 -0.453125zm9.008087 10.21875q-1.09375 0 -2.0 -0.359375q-0.890625 -0.375 -1.53125 -1.015625q-0.640625 -0.640625 -1.0 -1.5q-0.359375 -0.875 -0.359375 -1.890625l0 -0.375q0 -1.171875 0.375 -2.109375q0.390625 -0.9375 1.015625 -1.59375q0.640625 -0.671875 1.46875 -1.015625q0.84375 -0.359375 1.78125 -0.359375q1.078125 0 1.890625 0.359375q0.828125 0.359375 1.375 1.015625q0.546875 0.640625 0.828125 1.53125q0.28125 0.890625 0.28125 1.953125l0 0.921875l-6.828125 0q0.0625 0.578125 0.28125 1.078125q0.234375 0.484375 0.59375 0.84375q0.375 0.359375 0.859375 0.5625q0.5 0.203125 1.09375 0.203125q0.828125 0 1.53125 -0.328125q0.703125 -0.328125 1.140625 -0.890625l1.171875 1.109375q-0.234375 0.34375 -0.609375 0.6875q-0.375 0.328125 -0.875 0.59375q-0.5 0.25 -1.125 0.40625q-0.625 0.171875 -1.359375 0.171875zm-0.265625 -8.46875q-0.453125 0 -0.84375 0.171875q-0.390625 0.15625 -0.703125 0.46875q-0.3125 0.3125 -0.53125 0.765625q-0.203125 0.453125 -0.296875 1.03125l4.625 0l0 -0.171875q-0.03125 -0.4375 -0.171875 -0.84375q-0.140625 -0.40625 -0.421875 -0.71875q-0.265625 -0.3125 -0.6875 -0.5q-0.40625 -0.203125 -0.96875 -0.203125zm9.351807 8.28125l0 -8.234375l-2.65625 0l0 -1.625l2.65625 0l0 -0.609375q0 -0.953125 0.28125 -1.6875q0.296875 -0.734375 0.828125 -1.234375q0.546875 -0.5 1.3125 -0.75q0.765625 -0.265625 1.71875 -0.265625q0.625 0 1.1875 0.109375q0.578125 0.09375 1.203125 0.21875l-0.1875 1.71875q-0.359375 -0.09375 -0.84375 -0.171875q-0.46875 -0.078125 -1.0625 -0.078125q-1.171875 0 -1.71875 0.5625q-0.53125 0.546875 -0.53125 1.578125l0 0.609375l3.65625 0l0 1.625l-3.65625 0l0 8.234375l-2.1875 0zm13.304932 0.1875q-1.09375 0 -2.0 -0.359375q-0.890625 -0.375 -1.53125 -1.015625q-0.640625 -0.640625 -1.0 -1.5q-0.359375 -0.875 -0.359375 -1.890625l0 -0.375q0 -1.171875 0.375 -2.109375q0.390625 -0.9375 1.015625 -1.59375q0.640625 -0.671875 1.46875 -1.015625q0.84375 -0.359375 1.78125 -0.359375q1.078125 0 1.890625 0.359375q0.828125 0.359375 1.375 1.015625q0.546875 0.640625 0.828125 1.53125q0.28125 0.890625 0.28125 1.953125l0 0.921875l-6.828125 0q0.0625 0.578125 0.28125 1.078125q0.234375 0.484375 0.59375 0.84375q0.375 0.359375 0.859375 0.5625q0.5 0.203125 1.09375 0.203125q0.828125 0 1.53125 -0.328125q0.703125 -0.328125 1.140625 -0.890625l1.171875 1.109375q-0.234375 0.34375 -0.609375 0.6875q-0.375 0.328125 -0.875 0.59375q-0.5 0.25 -1.125 0.40625q-0.625 0.171875 -1.359375 0.171875zm-0.265625 -8.46875q-0.453125 0 -0.84375 0.171875q-0.390625 0.15625 -0.703125 0.46875q-0.3125 0.3125 -0.53125 0.765625q-0.203125 0.453125 -0.296875 1.03125l4.625 0l0 -0.171875q-0.03125 -0.4375 -0.171875 -0.84375q-0.140625 -0.40625 -0.421875 -0.71875q-0.265625 -0.3125 -0.6875 -0.5q-0.40625 -0.203125 -0.96875 -0.203125zm13.648712 -1.75q0.25 0 0.515625 0.015625q0.265625 0.015625 0.5 0.0625q0.25 0.03125 0.453125 0.078125q0.203125 0.03125 0.34375 0.078125l-0.3125 2.140625q-1.0 -0.21875 -1.984375 -0.21875q-1.09375 0 -1.765625 0.453125q-0.65625 0.453125 -0.984375 1.265625l0 6.15625l-2.171875 0l0 -9.859375l2.03125 0l0.109375 1.546875q0.59375 -0.8125 1.421875 -1.265625q0.828125 -0.453125 1.84375 -0.453125zm9.008087 10.21875q-1.09375 0 -2.0 -0.359375q-0.890625 -0.375 -1.53125 -1.015625q-0.640625 -0.640625 -1.0 -1.5q-0.359375 -0.875 -0.359375 -1.890625l0 -0.375q0 -1.171875 0.375 -2.109375q0.390625 -0.9375 1.015625 -1.59375q0.640625 -0.671875 1.46875 -1.015625q0.84375 -0.359375 1.78125 -0.359375q1.078125 0 1.890625 0.359375q0.828125 0.359375 1.375 1.015625q0.546875 0.640625 0.828125 1.53125q0.28125 0.890625 0.28125 1.953125l0 0.921875l-6.828125 0q0.0625 0.578125 0.28125 1.078125q0.234375 0.484375 0.59375 0.84375q0.375 0.359375 0.859375 0.5625q0.5 0.203125 1.09375 0.203125q0.828125 0 1.53125 -0.328125q0.703125 -0.328125 1.140625 -0.890625l1.171875 1.109375q-0.234375 0.34375 -0.609375 0.6875q-0.375 0.328125 -0.875 0.59375q-0.5 0.25 -1.125 0.40625q-0.625 0.171875 -1.359375 0.171875zm-0.265625 -8.46875q-0.453125 0 -0.84375 0.171875q-0.390625 0.15625 -0.703125 0.46875q-0.3125 0.3125 -0.53125 0.765625q-0.203125 0.453125 -0.296875 1.03125l4.625 0l0 -0.171875q-0.03125 -0.4375 -0.171875 -0.84375q-0.140625 -0.40625 -0.421875 -0.71875q-0.265625 -0.3125 -0.6875 -0.5q-0.40625 -0.203125 -0.96875 -0.203125zm8.836182 -1.578125l0.140625 1.375q0.53125 -0.75 1.296875 -1.140625q0.765625 -0.40625 1.6875 -0.40625q0.765625 0 1.390625 0.21875q0.625 0.21875 1.0625 0.6875q0.453125 0.453125 0.703125 1.1875q0.25 0.734375 0.25 1.78125l0 6.15625l-2.171875 0l0 -6.125q0 -0.609375 -0.140625 -1.015625q-0.140625 -0.40625 -0.40625 -0.65625q-0.25 -0.25 -0.625 -0.34375q-0.375 -0.109375 -0.84375 -0.109375q-0.734375 0 -1.265625 0.328125q-0.53125 0.3125 -0.859375 0.859375l0 7.0625l-2.1875 0l0 -9.859375l1.96875 0zm13.539307 8.3125q0.40625 0 0.78125 -0.125q0.375 -0.125 0.65625 -0.359375q0.296875 -0.234375 0.46875 -0.53125q0.171875 -0.3125 0.15625 -0.6875l2.0625 0q0.015625 0.71875 -0.328125 1.34375q-0.328125 0.625 -0.90625 1.09375q-0.5625 0.453125 -1.3125 0.734375q-0.734375 0.265625 -1.5625 0.265625q-1.140625 0 -2.0 -0.390625q-0.84375 -0.390625 -1.421875 -1.0625q-0.578125 -0.6875 -0.859375 -1.578125q-0.28125 -0.90625 -0.28125 -1.90625l0 -0.328125q0 -1.015625 0.28125 -1.90625q0.28125 -0.90625 0.859375 -1.578125q0.578125 -0.6875 1.421875 -1.078125q0.859375 -0.390625 2.0 -0.390625q0.890625 0 1.640625 0.28125q0.765625 0.265625 1.3125 0.75q0.5625 0.484375 0.859375 1.171875q0.3125 0.6875 0.296875 1.5l-2.0625 0q0.015625 -0.40625 -0.140625 -0.75q-0.140625 -0.359375 -0.421875 -0.625q-0.28125 -0.265625 -0.671875 -0.421875q-0.375 -0.15625 -0.828125 -0.15625q-0.6875 0 -1.140625 0.28125q-0.453125 0.28125 -0.734375 0.734375q-0.265625 0.4375 -0.390625 1.015625q-0.109375 0.578125 -0.109375 1.171875l0 0.328125q0 0.59375 0.109375 1.171875q0.125 0.578125 0.390625 1.03125q0.28125 0.4375 0.734375 0.71875q0.453125 0.28125 1.140625 0.28125zm11.476807 1.734375q-1.09375 0 -2.0 -0.359375q-0.890625 -0.375 -1.53125 -1.015625q-0.640625 -0.640625 -1.0 -1.5q-0.359375 -0.875 -0.359375 -1.890625l0 -0.375q0 -1.171875 0.375 -2.109375q0.390625 -0.9375 1.015625 -1.59375q0.640625 -0.671875 1.46875 -1.015625q0.84375 -0.359375 1.78125 -0.359375q1.078125 0 1.890625 0.359375q0.828125 0.359375 1.375 1.015625q0.546875 0.640625 0.828125 1.53125q0.28125 0.890625 0.28125 1.953125l0 0.921875l-6.828125 0q0.0625 0.578125 0.28125 1.078125q0.234375 0.484375 0.59375 0.84375q0.375 0.359375 0.859375 0.5625q0.5 0.203125 1.09375 0.203125q0.828125 0 1.53125 -0.328125q0.703125 -0.328125 1.140625 -0.890625l1.171875 1.109375q-0.234375 0.34375 -0.609375 0.6875q-0.375 0.328125 -0.875 0.59375q-0.5 0.25 -1.125 0.40625q-0.625 0.171875 -1.359375 0.171875zm-0.265625 -8.46875q-0.453125 0 -0.84375 0.171875q-0.390625 0.15625 -0.703125 0.46875q-0.3125 0.3125 -0.53125 0.765625q-0.203125 0.453125 -0.296875 1.03125l4.625 0l0 -0.171875q-0.03125 -0.4375 -0.171875 -0.84375q-0.140625 -0.40625 -0.421875 -0.71875q-0.265625 -0.3125 -0.6875 -0.5q-0.40625 -0.203125 -0.96875 -0.203125zm22.437988 -3.96875l0 2.390625l3.71875 0l0 1.625l-3.71875 0l0 4.734375q0 0.546875 0.125 0.921875q0.140625 0.359375 0.375 0.578125q0.234375 0.21875 0.546875 0.3125q0.328125 0.078125 0.703125 0.078125q0.28125 0 0.578125 -0.03125q0.3125 -0.03125 0.59375 -0.078125q0.296875 -0.046875 0.53125 -0.09375q0.25 -0.046875 0.40625 -0.09375l0.25 1.5q-0.234375 0.140625 -0.578125 0.265625q-0.328125 0.109375 -0.71875 0.171875q-0.390625 0.078125 -0.8125 0.109375q-0.421875 0.046875 -0.828125 0.046875q-0.734375 0 -1.359375 -0.203125q-0.609375 -0.203125 -1.0625 -0.625q-0.4375 -0.4375 -0.6875 -1.109375q-0.25 -0.6875 -0.25 -1.640625l0 -4.84375l-2.40625 0l0 -1.625l2.40625 0l0 -2.390625l2.1875 0zm6.4299316 7.234375q0 -1.0625 0.3125 -1.984375q0.3125 -0.921875 0.890625 -1.59375q0.59375 -0.6875 1.4375 -1.0625q0.859375 -0.375 1.921875 -0.375q1.09375 0 1.9375 0.375q0.859375 0.375 1.4375 1.0625q0.59375 0.671875 0.90625 1.59375q0.3125 0.921875 0.3125 1.984375l0 0.1875q0 1.078125 -0.3125 2.0q-0.3125 0.921875 -0.90625 1.59375q-0.578125 0.65625 -1.4375 1.046875q-0.84375 0.375 -1.90625 0.375q-1.09375 0 -1.953125 -0.375q-0.84375 -0.390625 -1.4375 -1.046875q-0.578125 -0.671875 -0.890625 -1.59375q-0.3125 -0.921875 -0.3125 -2.0l0 -0.1875zm2.171875 0.1875q0 0.671875 0.140625 1.265625q0.140625 0.59375 0.4375 1.046875q0.296875 0.453125 0.75 0.71875q0.453125 0.25 1.09375 0.25q0.609375 0 1.046875 -0.25q0.453125 -0.265625 0.75 -0.71875q0.296875 -0.453125 0.4375 -1.046875q0.140625 -0.59375 0.140625 -1.265625l0 -0.1875q0 -0.65625 -0.140625 -1.25q-0.140625 -0.59375 -0.4375 -1.03125q-0.296875 -0.453125 -0.75 -0.71875q-0.4375 -0.265625 -1.078125 -0.265625q-0.609375 0 -1.078125 0.265625q-0.453125 0.265625 -0.75 0.71875q-0.28125 0.4375 -0.421875 1.03125q-0.140625 0.59375 -0.140625 1.25l0 0.1875zm20.219238 -0.1875q0 -1.0625 0.3125 -1.984375q0.3125 -0.921875 0.890625 -1.59375q0.59375 -0.6875 1.4375 -1.0625q0.859375 -0.375 1.921875 -0.375q1.09375 0 1.9375 0.375q0.859375 0.375 1.4375 1.0625q0.59375 0.671875 0.90625 1.59375q0.3125 0.921875 0.3125 1.984375l0 0.1875q0 1.078125 -0.3125 2.0q-0.3125 0.921875 -0.90625 1.59375q-0.578125 0.65625 -1.4375 1.046875q-0.84375 0.375 -1.90625 0.375q-1.09375 0 -1.953125 -0.375q-0.84375 -0.390625 -1.4375 -1.046875q-0.578125 -0.671875 -0.890625 -1.59375q-0.3125 -0.921875 -0.3125 -2.0l0 -0.1875zm2.171875 0.1875q0 0.671875 0.140625 1.265625q0.140625 0.59375 0.4375 1.046875q0.296875 0.453125 0.75 0.71875q0.453125 0.25 1.09375 0.25q0.609375 0 1.046875 -0.25q0.453125 -0.265625 0.75 -0.71875q0.296875 -0.453125 0.4375 -1.046875q0.140625 -0.59375 0.140625 -1.265625l0 -0.1875q0 -0.65625 -0.140625 -1.25q-0.140625 -0.59375 -0.4375 -1.03125q-0.296875 -0.453125 -0.75 -0.71875q-0.4375 -0.265625 -1.078125 -0.265625q-0.609375 0 -1.078125 0.265625q-0.453125 0.265625 -0.75 0.71875q-0.28125 0.4375 -0.421875 1.03125q-0.140625 0.59375 -0.140625 1.25l0 0.1875zm15.742432 3.484375q-0.5 0.71875 -1.21875 1.125q-0.71875 0.40625 -1.59375 0.40625q-0.765625 0 -1.40625 -0.234375q-0.625 -0.234375 -1.078125 -0.75q-0.453125 -0.515625 -0.703125 -1.3125q-0.25 -0.796875 -0.25 -1.921875l0 -5.828125l2.171875 0l0 5.84375q0 0.71875 0.109375 1.1875q0.109375 0.453125 0.328125 0.734375q0.21875 0.265625 0.546875 0.390625q0.328125 0.109375 0.78125 0.109375q0.875 0 1.40625 -0.34375q0.546875 -0.34375 0.8125 -0.921875l0 -7.0l2.1875 0l0 9.859375l-1.96875 0l-0.125 -1.34375zm11.648682 -8.6875q0.25 0 0.515625 0.015625q0.265625 0.015625 0.5 0.0625q0.25 0.03125 0.453125 0.078125q0.203125 0.03125 0.34375 0.078125l-0.3125 2.140625q-1.0 -0.21875 -1.984375 -0.21875q-1.09375 0 -1.765625 0.453125q-0.65625 0.453125 -0.984375 1.265625l0 6.15625l-2.171875 0l0 -9.859375l2.03125 0l0.109375 1.546875q0.59375 -0.8125 1.421875 -1.265625q0.828125 -0.453125 1.84375 -0.453125zm16.016113 -3.96875l5.328125 0l0 12.203125l3.0 0l0 1.796875l-8.328125 0l0 -1.796875l3.140625 0l0 -10.375l-3.140625 0l0 -1.828125zm11.273682 4.140625l5.25 0l0 8.0625l2.921875 0l0 1.796875l-8.171875 0l0 -1.796875l3.0625 0l0 -6.25l-3.0625 0l0 -1.8125zm2.875 -2.546875q0 -0.515625 0.328125 -0.84375q0.328125 -0.328125 0.921875 -0.328125q0.59375 0 0.921875 0.328125q0.34375 0.328125 0.34375 0.84375q0 0.515625 -0.34375 0.84375q-0.328125 0.328125 -0.921875 0.328125q-0.59375 0 -0.921875 -0.328125q-0.328125 -0.328125 -0.328125 -0.84375zm7.5549316 7.40625q0 -1.125 0.28125 -2.046875q0.28125 -0.9375 0.796875 -1.59375q0.515625 -0.671875 1.25 -1.03125q0.734375 -0.359375 1.640625 -0.359375q0.890625 0 1.53125 0.296875q0.65625 0.296875 1.125 0.859375l0.078125 -0.984375l1.984375 0l0 9.59375q0 1.0 -0.328125 1.765625q-0.328125 0.765625 -0.921875 1.296875q-0.578125 0.53125 -1.40625 0.796875q-0.8125 0.28125 -1.796875 0.28125q-0.40625 0 -0.921875 -0.09375q-0.5 -0.078125 -1.015625 -0.28125q-0.5 -0.1875 -0.96875 -0.5q-0.453125 -0.3125 -0.78125 -0.765625l1.03125 -1.296875q0.5625 0.65625 1.203125 0.9375q0.640625 0.28125 1.328125 0.28125q0.546875 0 0.984375 -0.15625q0.453125 -0.15625 0.75 -0.453125q0.3125 -0.296875 0.484375 -0.75q0.171875 -0.4375 0.171875 -1.0l0 -0.671875q-0.46875 0.515625 -1.09375 0.796875q-0.625 0.265625 -1.453125 0.265625q-0.890625 0 -1.625 -0.375q-0.734375 -0.390625 -1.25 -1.046875q-0.515625 -0.671875 -0.796875 -1.578125q-0.28125 -0.921875 -0.28125 -2.0l0 -0.1875zm2.1875 0.1875q0 0.671875 0.140625 1.25q0.140625 0.578125 0.421875 1.015625q0.28125 0.4375 0.71875 0.6875q0.4375 0.25 1.046875 0.25q0.75 0 1.21875 -0.3125q0.484375 -0.3125 0.765625 -0.84375l0 -4.34375q-0.296875 -0.53125 -0.765625 -0.828125q-0.46875 -0.3125 -1.203125 -0.3125q-0.59375 0 -1.046875 0.25q-0.4375 0.25 -0.734375 0.703125q-0.28125 0.453125 -0.421875 1.046875q-0.140625 0.578125 -0.140625 1.25l0 0.1875zm11.476807 -3.671875q0.5 -0.734375 1.234375 -1.140625q0.734375 -0.40625 1.640625 -0.40625q0.765625 0 1.40625 0.234375q0.640625 0.21875 1.09375 0.703125q0.453125 0.46875 0.703125 1.21875q0.265625 0.75 0.265625 1.796875l0 6.078125l-2.171875 0l0 -6.09375q0 -0.5625 -0.140625 -0.96875q-0.140625 -0.40625 -0.40625 -0.671875q-0.265625 -0.265625 -0.640625 -0.390625q-0.359375 -0.125 -0.84375 -0.125q-0.703125 0 -1.25 0.296875q-0.546875 0.296875 -0.890625 0.796875l0 7.15625l-2.1875 0l0 -14.0l2.1875 0l0 5.515625zm13.383057 -3.765625l0 2.390625l3.71875 0l0 1.625l-3.71875 0l0 4.734375q0 0.546875 0.125 0.921875q0.140625 0.359375 0.375 0.578125q0.234375 0.21875 0.546875 0.3125q0.328125 0.078125 0.703125 0.078125q0.28125 0 0.578125 -0.03125q0.3125 -0.03125 0.59375 -0.078125q0.296875 -0.046875 0.53125 -0.09375q0.25 -0.046875 0.40625 -0.09375l0.25 1.5q-0.234375 0.140625 -0.578125 0.265625q-0.328125 0.109375 -0.71875 0.171875q-0.390625 0.078125 -0.8125 0.109375q-0.421875 0.046875 -0.828125 0.046875q-0.734375 0 -1.359375 -0.203125q-0.609375 -0.203125 -1.0625 -0.625q-0.4375 -0.4375 -0.6875 -1.109375q-0.25 -0.6875 -0.25 -1.640625l0 -4.84375l-2.40625 0l0 -1.625l2.40625 0l0 -2.390625l2.1875 0z" fill-rule="nonzero"/><path fill="#ffffff" d="m57.8125 102.72373l5.328125 0l0 12.203125l3.0 0l0 1.796875l-8.328125 0l0 -1.796875l3.140625 0l0 -10.375l-3.140625 0l0 -1.828125zm11.273697 4.140625l5.25 0l0 8.0625l2.921875 0l0 1.796875l-8.171875 0l0 -1.796875l3.0625 0l0 -6.25l-3.0625 0l0 -1.8125zm2.875 -2.546875q0 -0.515625 0.328125 -0.84375q0.328125 -0.328125 0.921875 -0.328125q0.59375 0 0.921875 0.328125q0.34375 0.328125 0.34375 0.84375q0 0.515625 -0.34375 0.84375q-0.328125 0.328125 -0.921875 0.328125q-0.59375 0 -0.921875 -0.328125q-0.328125 -0.328125 -0.328125 -0.84375zm7.554947 7.40625q0 -1.125 0.28125 -2.046875q0.28125 -0.9375 0.796875 -1.59375q0.515625 -0.671875 1.25 -1.03125q0.734375 -0.359375 1.640625 -0.359375q0.890625 0 1.53125 0.296875q0.65625 0.296875 1.125 0.859375l0.078125 -0.984375l1.984375 0l0 9.59375q0 1.0 -0.328125 1.765625q-0.328125 0.765625 -0.921875 1.296875q-0.578125 0.53125 -1.40625 0.796875q-0.8125 0.28125 -1.796875 0.28125q-0.40625 0 -0.921875 -0.09375q-0.5 -0.078125 -1.015625 -0.28125q-0.5 -0.1875 -0.96875 -0.5q-0.453125 -0.3125 -0.78125 -0.765625l1.03125 -1.296875q0.5625 0.65625 1.203125 0.9375q0.640625 0.28125 1.328125 0.28125q0.546875 0 0.984375 -0.15625q0.453125 -0.15625 0.75 -0.453125q0.3125 -0.296875 0.484375 -0.75q0.171875 -0.4375 0.171875 -1.0l0 -0.671875q-0.46875 0.515625 -1.09375 0.796875q-0.625 0.265625 -1.453125 0.265625q-0.890625 0 -1.625 -0.375q-0.734375 -0.390625 -1.25 -1.046875q-0.515625 -0.671875 -0.796875 -1.578125q-0.28125 -0.921875 -0.28125 -2.0l0 -0.1875zm2.1875 0.1875q0 0.671875 0.140625 1.25q0.140625 0.578125 0.421875 1.015625q0.28125 0.4375 0.71875 0.6875q0.4375 0.25 1.046875 0.25q0.75 0 1.21875 -0.3125q0.484375 -0.3125 0.765625 -0.84375l0 -4.34375q-0.296875 -0.53125 -0.765625 -0.828125q-0.46875 -0.3125 -1.203125 -0.3125q-0.59375 0 -1.046875 0.25q-0.4375 0.25 -0.734375 0.703125q-0.28125 0.453125 -0.421875 1.046875q-0.140625 0.578125 -0.140625 1.25l0 0.1875zm11.476822 -3.671875q0.5 -0.734375 1.234375 -1.140625q0.734375 -0.40625 1.640625 -0.40625q0.765625 0 1.40625 0.234375q0.640625 0.21875 1.09375 0.703125q0.453125 0.46875 0.703125 1.21875q0.265625 0.75 0.265625 1.796875l0 6.078125l-2.171875 0l0 -6.09375q0 -0.5625 -0.140625 -0.96875q-0.140625 -0.40625 -0.40625 -0.671875q-0.265625 -0.265625 -0.640625 -0.390625q-0.359375 -0.125 -0.84375 -0.125q-0.703125 0 -1.25 0.296875q-0.546875 0.296875 -0.890625 0.796875l0 7.15625l-2.1875 0l0 -14.0l2.1875 0l0 5.515625zm13.383072 -3.765625l0 2.390625l3.71875 0l0 1.625l-3.71875 0l0 4.734375q0 0.546875 0.125 0.921875q0.140625 0.359375 0.375 0.578125q0.234375 0.21875 0.546875 0.3125q0.328125 0.078125 0.703125 0.078125q0.28125 0 0.578125 -0.03125q0.3125 -0.03125 0.59375 -0.078125q0.296875 -0.046875 0.53125 -0.09375q0.25 -0.046875 0.40625 -0.09375l0.25 1.5q-0.234375 0.140625 -0.578125 0.265625q-0.328125 0.109375 -0.71875 0.171875q-0.390625 0.078125 -0.8125 0.109375q-0.421875 0.046875 -0.828125 0.046875q-0.734375 0 -1.359375 -0.203125q-0.609375 -0.203125 -1.0625 -0.625q-0.4375 -0.4375 -0.6875 -1.109375q-0.25 -0.6875 -0.25 -1.640625l0 -4.84375l-2.40625 0l0 -1.625l2.40625 0l0 -2.390625l2.1875 0zm26.500519 5.453125l-8.390625 0l0 -1.8125l8.390625 0l0 1.8125zm0 3.859375l-8.390625 0l0 -1.8125l8.390625 0l0 1.8125zm22.750519 1.28125q-0.328125 0.40625 -0.78125 0.75q-0.453125 0.328125 -1.03125 0.578125q-0.5625 0.234375 -1.21875 0.375q-0.65625 0.140625 -1.40625 0.140625q-1.1875 0 -2.109375 -0.46875q-0.921875 -0.46875 -1.5625 -1.265625q-0.625 -0.8125 -0.96875 -1.90625q-0.328125 -1.09375 -0.328125 -2.34375l0 -1.640625q0 -1.265625 0.328125 -2.359375q0.328125 -1.09375 0.9375 -1.890625q0.609375 -0.8125 1.5 -1.28125q0.90625 -0.484375 2.046875 -0.484375q1.03125 0 1.84375 0.296875q0.8125 0.28125 1.390625 0.8125q0.578125 0.53125 0.921875 1.296875q0.34375 0.765625 0.4375 1.703125l-2.15625 0q-0.078125 -0.53125 -0.25 -0.953125q-0.171875 -0.4375 -0.46875 -0.734375q-0.28125 -0.296875 -0.703125 -0.453125q-0.40625 -0.171875 -0.984375 -0.171875q-0.6875 0 -1.1875 0.34375q-0.484375 0.34375 -0.8125 0.921875q-0.328125 0.578125 -0.484375 1.34375q-0.15625 0.75 -0.171875 1.59375l0 1.65625q0.015625 0.828125 0.171875 1.578125q0.15625 0.75 0.5 1.328125q0.34375 0.578125 0.875 0.9375q0.546875 0.34375 1.296875 0.34375q0.3125 0 0.640625 -0.03125q0.328125 -0.046875 0.625 -0.140625q0.296875 -0.09375 0.53125 -0.234375q0.25 -0.140625 0.40625 -0.34375l0.015625 -2.65625l-2.390625 0l0 -1.703125l4.53125 0l0.015625 5.0625zm6.945572 1.84375q-1.09375 0 -2.0 -0.359375q-0.890625 -0.375 -1.53125 -1.015625q-0.640625 -0.640625 -1.0 -1.5q-0.359375 -0.875 -0.359375 -1.890625l0 -0.375q0 -1.171875 0.375 -2.109375q0.390625 -0.9375 1.015625 -1.59375q0.640625 -0.671875 1.46875 -1.015625q0.84375 -0.359375 1.78125 -0.359375q1.078125 0 1.890625 0.359375q0.828125 0.359375 1.375 1.015625q0.546875 0.640625 0.828125 1.53125q0.28125 0.890625 0.28125 1.953125l0 0.921875l-6.828125 0q0.0625 0.578125 0.28125 1.078125q0.234375 0.484375 0.59375 0.84375q0.375 0.359375 0.859375 0.5625q0.5 0.203125 1.09375 0.203125q0.828125 0 1.53125 -0.328125q0.703125 -0.328125 1.140625 -0.890625l1.171875 1.109375q-0.234375 0.34375 -0.609375 0.6875q-0.375 0.328125 -0.875 0.59375q-0.5 0.25 -1.125 0.40625q-0.625 0.171875 -1.359375 0.171875zm-0.265625 -8.46875q-0.453125 0 -0.84375 0.171875q-0.390625 0.15625 -0.703125 0.46875q-0.3125 0.3125 -0.53125 0.765625q-0.203125 0.453125 -0.296875 1.03125l4.625 0l0 -0.171875q-0.03125 -0.4375 -0.171875 -0.84375q-0.140625 -0.40625 -0.421875 -0.71875q-0.265625 -0.3125 -0.6875 -0.5q-0.40625 -0.203125 -0.96875 -0.203125zm11.242447 -3.96875l0 2.390625l3.71875 0l0 1.625l-3.71875 0l0 4.734375q0 0.546875 0.125 0.921875q0.140625 0.359375 0.375 0.578125q0.234375 0.21875 0.546875 0.3125q0.328125 0.078125 0.703125 0.078125q0.28125 0 0.578125 -0.03125q0.3125 -0.03125 0.59375 -0.078125q0.296875 -0.046875 0.53125 -0.09375q0.25 -0.046875 0.40625 -0.09375l0.25 1.5q-0.234375 0.140625 -0.578125 0.265625q-0.328125 0.109375 -0.71875 0.171875q-0.390625 0.078125 -0.8125 0.109375q-0.421875 0.046875 -0.828125 0.046875q-0.734375 0 -1.359375 -0.203125q-0.609375 -0.203125 -1.0625 -0.625q-0.4375 -0.4375 -0.6875 -1.109375q-0.25 -0.6875 -0.25 -1.640625l0 -4.84375l-2.40625 0l0 -1.625l2.40625 0l0 -2.390625l2.1875 0zm15.726822 8.171875q-0.09375 0.96875 -0.46875 1.75q-0.359375 0.78125 -0.953125 1.34375q-0.59375 0.5625 -1.421875 0.875q-0.8125 0.296875 -1.8125 0.296875q-1.203125 0 -2.109375 -0.46875q-0.90625 -0.46875 -1.515625 -1.265625q-0.59375 -0.796875 -0.890625 -1.875q-0.296875 -1.078125 -0.3125 -2.296875l0 -1.8125q0.015625 -1.21875 0.3125 -2.296875q0.3125 -1.078125 0.921875 -1.875q0.609375 -0.8125 1.5 -1.28125q0.90625 -0.46875 2.109375 -0.46875q1.046875 0 1.859375 0.3125q0.828125 0.3125 1.40625 0.875q0.578125 0.5625 0.921875 1.375q0.359375 0.8125 0.453125 1.796875l-2.1875 0q-0.046875 -0.578125 -0.21875 -1.046875q-0.171875 -0.484375 -0.46875 -0.828125q-0.28125 -0.34375 -0.734375 -0.515625q-0.4375 -0.1875 -1.03125 -0.1875q-0.75 0 -1.25 0.34375q-0.5 0.328125 -0.8125 0.90625q-0.296875 0.5625 -0.4375 1.3125q-0.125 0.734375 -0.125 1.5625l0 1.828125q0 0.859375 0.125 1.609375q0.140625 0.75 0.4375 1.3125q0.296875 0.5625 0.796875 0.890625q0.5 0.328125 1.25 0.328125q1.15625 0 1.75 -0.640625q0.59375 -0.65625 0.703125 -1.859375l2.203125 0zm1.8986969 -0.9375q0 -1.0625 0.3125 -1.984375q0.3125 -0.921875 0.890625 -1.59375q0.59375 -0.6875 1.4375 -1.0625q0.859375 -0.375 1.921875 -0.375q1.09375 0 1.9375 0.375q0.859375 0.375 1.4375 1.0625q0.59375 0.671875 0.90625 1.59375q0.3125 0.921875 0.3125 1.984375l0 0.1875q0 1.078125 -0.3125 2.0q-0.3125 0.921875 -0.90625 1.59375q-0.578125 0.65625 -1.4375 1.046875q-0.84375 0.375 -1.90625 0.375q-1.09375 0 -1.953125 -0.375q-0.84375 -0.390625 -1.4375 -1.046875q-0.578125 -0.671875 -0.890625 -1.59375q-0.3125 -0.921875 -0.3125 -2.0l0 -0.1875zm2.171875 0.1875q0 0.671875 0.140625 1.265625q0.140625 0.59375 0.4375 1.046875q0.296875 0.453125 0.75 0.71875q0.453125 0.25 1.09375 0.25q0.609375 0 1.046875 -0.25q0.453125 -0.265625 0.75 -0.71875q0.296875 -0.453125 0.4375 -1.046875q0.140625 -0.59375 0.140625 -1.265625l0 -0.1875q0 -0.65625 -0.140625 -1.25q-0.140625 -0.59375 -0.4375 -1.03125q-0.296875 -0.453125 -0.75 -0.71875q-0.4375 -0.265625 -1.078125 -0.265625q-0.609375 0 -1.078125 0.265625q-0.453125 0.265625 -0.75 0.71875q-0.28125 0.4375 -0.421875 1.03125q-0.140625 0.59375 -0.140625 1.25l0 0.1875zm10.679947 -5.03125l0.046875 1.046875q0.296875 -0.578125 0.78125 -0.890625q0.5 -0.328125 1.1875 -0.328125q0.625 0 1.046875 0.25q0.421875 0.25 0.625 0.765625q0.296875 -0.46875 0.75 -0.734375q0.453125 -0.28125 1.09375 -0.28125q0.484375 0 0.890625 0.15625q0.40625 0.15625 0.6875 0.5q0.296875 0.34375 0.453125 0.890625q0.15625 0.53125 0.15625 1.28125l0 7.203125l-2.015625 0l0 -7.21875q0 -0.59375 -0.25 -0.8125q-0.25 -0.21875 -0.640625 -0.21875q-0.375 0 -0.59375 0.1875q-0.21875 0.171875 -0.328125 0.453125l0 7.609375l-1.96875 0l0 -7.21875q0 -0.5625 -0.234375 -0.796875q-0.234375 -0.234375 -0.640625 -0.234375q-0.375 0 -0.59375 0.171875q-0.21875 0.15625 -0.34375 0.4375l0 7.640625l-2.015625 0l0 -9.859375l1.90625 0zm18.554947 5.03125q0 1.078125 -0.25 2.0q-0.25 0.921875 -0.75 1.59375q-0.484375 0.65625 -1.203125 1.046875q-0.71875 0.375 -1.640625 0.375q-0.84375 0 -1.484375 -0.265625q-0.640625 -0.28125 -1.109375 -0.796875l0 4.671875l-2.171875 0l0 -13.65625l2.0 0l0.09375 1.0q0.46875 -0.5625 1.125 -0.859375q0.65625 -0.3125 1.515625 -0.3125q0.9375 0 1.65625 0.359375q0.734375 0.359375 1.21875 1.03125q0.5 0.65625 0.75 1.578125q0.25 0.921875 0.25 2.046875l0 0.1875zm-2.171875 -0.1875q0 -0.671875 -0.140625 -1.25q-0.125 -0.59375 -0.421875 -1.03125q-0.28125 -0.453125 -0.71875 -0.703125q-0.421875 -0.25 -1.03125 -0.25q-0.734375 0 -1.203125 0.3125q-0.46875 0.296875 -0.75 0.828125l0 4.40625q0.28125 0.5 0.75 0.828125q0.46875 0.3125 1.21875 0.3125q0.609375 0 1.046875 -0.265625q0.4375 -0.265625 0.703125 -0.703125q0.28125 -0.453125 0.40625 -1.03125q0.140625 -0.59375 0.140625 -1.265625l0 -0.1875zm4.351822 0q0 -1.0625 0.3125 -1.984375q0.3125 -0.921875 0.890625 -1.59375q0.59375 -0.6875 1.4375 -1.0625q0.859375 -0.375 1.921875 -0.375q1.09375 0 1.9375 0.375q0.859375 0.375 1.4375 1.0625q0.59375 0.671875 0.90625 1.59375q0.3125 0.921875 0.3125 1.984375l0 0.1875q0 1.078125 -0.3125 2.0q-0.3125 0.921875 -0.90625 1.59375q-0.578125 0.65625 -1.4375 1.046875q-0.84375 0.375 -1.90625 0.375q-1.09375 0 -1.953125 -0.375q-0.84375 -0.390625 -1.4375 -1.046875q-0.578125 -0.671875 -0.890625 -1.59375q-0.3125 -0.921875 -0.3125 -2.0l0 -0.1875zm2.171875 0.1875q0 0.671875 0.140625 1.265625q0.140625 0.59375 0.4375 1.046875q0.296875 0.453125 0.75 0.71875q0.453125 0.25 1.09375 0.25q0.609375 0 1.046875 -0.25q0.453125 -0.265625 0.75 -0.71875q0.296875 -0.453125 0.4375 -1.046875q0.140625 -0.59375 0.140625 -1.265625l0 -0.1875q0 -0.65625 -0.140625 -1.25q-0.140625 -0.59375 -0.4375 -1.03125q-0.296875 -0.453125 -0.75 -0.71875q-0.4375 -0.265625 -1.078125 -0.265625q-0.609375 0 -1.078125 0.265625q-0.453125 0.265625 -0.75 0.71875q-0.28125 0.4375 -0.421875 1.03125q-0.140625 0.59375 -0.140625 1.25l0 0.1875zm11.383072 -5.03125l0.140625 1.375q0.53125 -0.75 1.296875 -1.140625q0.765625 -0.40625 1.6875 -0.40625q0.765625 0 1.390625 0.21875q0.625 0.21875 1.0625 0.6875q0.453125 0.453125 0.703125 1.1875q0.25 0.734375 0.25 1.78125l0 6.15625l-2.171875 0l0 -6.125q0 -0.609375 -0.140625 -1.015625q-0.140625 -0.40625 -0.40625 -0.65625q-0.25 -0.25 -0.625 -0.34375q-0.375 -0.109375 -0.84375 -0.109375q-0.734375 0 -1.265625 0.328125q-0.53125 0.3125 -0.859375 0.859375l0 7.0625l-2.1875 0l0 -9.859375l1.96875 0zm13.820572 10.046875q-1.09375 0 -2.0 -0.359375q-0.890625 -0.375 -1.53125 -1.015625q-0.640625 -0.640625 -1.0 -1.5q-0.359375 -0.875 -0.359375 -1.890625l0 -0.375q0 -1.171875 0.375 -2.109375q0.390625 -0.9375 1.015625 -1.59375q0.640625 -0.671875 1.46875 -1.015625q0.84375 -0.359375 1.78125 -0.359375q1.078125 0 1.890625 0.359375q0.828125 0.359375 1.375 1.015625q0.546875 0.640625 0.82810974 1.53125q0.28125 0.890625 0.28125 1.953125l0 0.921875l-6.8281097 0q0.0625 0.578125 0.28125 1.078125q0.234375 0.484375 0.59375 0.84375q0.375 0.359375 0.859375 0.5625q0.5 0.203125 1.09375 0.203125q0.828125 0 1.53125 -0.328125q0.703125 -0.328125 1.140625 -0.890625l1.1718597 1.109375q-0.234375 0.34375 -0.60935974 0.6875q-0.375 0.328125 -0.875 0.59375q-0.5 0.25 -1.125 0.40625q-0.625 0.171875 -1.359375 0.171875zm-0.265625 -8.46875q-0.453125 0 -0.84375 0.171875q-0.390625 0.15625 -0.703125 0.46875q-0.3125 0.3125 -0.53125 0.765625q-0.203125 0.453125 -0.296875 1.03125l4.625 0l0 -0.171875q-0.03125 -0.4375 -0.171875 -0.84375q-0.140625 -0.40625 -0.421875 -0.71875q-0.265625 -0.3125 -0.6875 -0.5q-0.40625 -0.203125 -0.96875 -0.203125zm8.836197 -1.578125l0.140625 1.375q0.53125 -0.75 1.296875 -1.140625q0.765625 -0.40625 1.6875 -0.40625q0.765625 0 1.390625 0.21875q0.625 0.21875 1.0625 0.6875q0.453125 0.453125 0.703125 1.1875q0.25 0.734375 0.25 1.78125l0 6.15625l-2.171875 0l0 -6.125q0 -0.609375 -0.140625 -1.015625q-0.140625 -0.40625 -0.40625 -0.65625q-0.25 -0.25 -0.625 -0.34375q-0.375 -0.109375 -0.84375 -0.109375q-0.734375 0 -1.265625 0.328125q-0.53125 0.3125 -0.859375 0.859375l0 7.0625l-2.1875 0l0 -9.859375l1.96875 0zm13.601837 -2.390625l0 2.390625l3.71875 0l0 1.625l-3.71875 0l0 4.734375q0 0.546875 0.125 0.921875q0.140625 0.359375 0.375 0.578125q0.234375 0.21875 0.546875 0.3125q0.328125 0.078125 0.703125 0.078125q0.28125 0 0.578125 -0.03125q0.3125 -0.03125 0.59375 -0.078125q0.296875 -0.046875 0.53125 -0.09375q0.25 -0.046875 0.40625 -0.09375l0.25 1.5q-0.234375 0.140625 -0.578125 0.265625q-0.328125 0.109375 -0.71875 0.171875q-0.390625 0.078125 -0.8125 0.109375q-0.421875 0.046875 -0.828125 0.046875q-0.734375 0 -1.359375 -0.203125q-0.609375 -0.203125 -1.0625 -0.625q-0.4375 -0.4375 -0.6875 -1.109375q-0.25 -0.6875 -0.25 -1.640625l0 -4.84375l-2.40625 0l0 -1.625l2.40625 0l0 -2.390625l2.1875 0zm9.617432 6.28125l-0.59375 0.203125l0.59375 0.203125l5.171875 1.859375l0 2.1875l-7.890625 -3.40625l0 -1.734375l7.890625 -3.375l0 2.171875l-5.171875 1.890625z" fill-rule="nonzero"/><path fill="#93c47d" d="m294.857 114.94248l6.328125 0l0 1.78125l-8.515625 0l0 -13.265625l2.1875 0l0 11.484375zm9.336182 -8.078125l5.25 0l0 8.0625l2.921875 0l0 1.796875l-8.171875 0l0 -1.796875l3.0625 0l0 -6.25l-3.0625 0l0 -1.8125zm2.875 -2.546875q0 -0.515625 0.328125 -0.84375q0.328125 -0.328125 0.921875 -0.328125q0.59375 0 0.921875 0.328125q0.34375 0.328125 0.34375 0.84375q0 0.515625 -0.34375 0.84375q-0.328125 0.328125 -0.921875 0.328125q-0.59375 0 -0.921875 -0.328125q-0.328125 -0.328125 -0.328125 -0.84375zm7.554962 7.40625q0 -1.125 0.28125 -2.046875q0.28125 -0.9375 0.796875 -1.59375q0.515625 -0.671875 1.25 -1.03125q0.734375 -0.359375 1.640625 -0.359375q0.890625 0 1.53125 0.296875q0.65625 0.296875 1.125 0.859375l0.078125 -0.984375l1.984375 0l0 9.59375q0 1.0 -0.328125 1.765625q-0.328125 0.765625 -0.921875 1.296875q-0.578125 0.53125 -1.40625 0.796875q-0.8125 0.28125 -1.796875 0.28125q-0.40625 0 -0.921875 -0.09375q-0.5 -0.078125 -1.015625 -0.28125q-0.5 -0.1875 -0.96875 -0.5q-0.453125 -0.3125 -0.78125 -0.765625l1.03125 -1.296875q0.5625 0.65625 1.203125 0.9375q0.640625 0.28125 1.328125 0.28125q0.546875 0 0.984375 -0.15625q0.453125 -0.15625 0.75 -0.453125q0.3125 -0.296875 0.484375 -0.75q0.171875 -0.4375 0.171875 -1.0l0 -0.671875q-0.46875 0.515625 -1.09375 0.796875q-0.625 0.265625 -1.453125 0.265625q-0.890625 0 -1.625 -0.375q-0.734375 -0.390625 -1.25 -1.046875q-0.515625 -0.671875 -0.796875 -1.578125q-0.28125 -0.921875 -0.28125 -2.0l0 -0.1875zm2.1875 0.1875q0 0.671875 0.140625 1.25q0.140625 0.578125 0.421875 1.015625q0.28125 0.4375 0.71875 0.6875q0.4375 0.25 1.046875 0.25q0.75 0 1.21875 -0.3125q0.484375 -0.3125 0.765625 -0.84375l0 -4.34375q-0.296875 -0.53125 -0.765625 -0.828125q-0.46875 -0.3125 -1.203125 -0.3125q-0.59375 0 -1.046875 0.25q-0.4375 0.25 -0.734375 0.703125q-0.28125 0.453125 -0.421875 1.046875q-0.140625 0.578125 -0.140625 1.25l0 0.1875zm11.476837 -3.671875q0.5 -0.734375 1.234375 -1.140625q0.734375 -0.40625 1.640625 -0.40625q0.765625 0 1.40625 0.234375q0.640625 0.21875 1.09375 0.703125q0.453125 0.46875 0.703125 1.21875q0.265625 0.75 0.265625 1.796875l0 6.078125l-2.171875 0l0 -6.09375q0 -0.5625 -0.140625 -0.96875q-0.140625 -0.40625 -0.40625 -0.671875q-0.265625 -0.265625 -0.640625 -0.390625q-0.359375 -0.125 -0.84375 -0.125q-0.703125 0 -1.25 0.296875q-0.546875 0.296875 -0.890625 0.796875l0 7.15625l-2.1875 0l0 -14.0l2.1875 0l0 5.515625zm13.383057 -3.765625l0 2.390625l3.71875 0l0 1.625l-3.71875 0l0 4.734375q0 0.546875 0.125 0.921875q0.140625 0.359375 0.375 0.578125q0.234375 0.21875 0.546875 0.3125q0.328125 0.078125 0.703125 0.078125q0.28125 0 0.578125 -0.03125q0.3125 -0.03125 0.59375 -0.078125q0.296875 -0.046875 0.53125 -0.09375q0.25 -0.046875 0.40625 -0.09375l0.25 1.5q-0.234375 0.140625 -0.578125 0.265625q-0.328125 0.109375 -0.71875 0.171875q-0.390625 0.078125 -0.8125 0.109375q-0.421875 0.046875 -0.828125 0.046875q-0.734375 0 -1.359375 -0.203125q-0.609375 -0.203125 -1.0625 -0.625q-0.4375 -0.4375 -0.6875 -1.109375q-0.25 -0.6875 -0.25 -1.640625l0 -4.84375l-2.40625 0l0 -1.625l2.40625 0l0 -2.390625l2.1875 0z" fill-rule="nonzero"/><path fill="#ffffff" d="m348.63174 108.83311l0 -2.15625l8.125 3.390625l0 1.734375l-8.125 3.40625l0 -2.171875l5.453125 -1.9375l0.59375 -0.171875l-0.59375 -0.203125l-5.453125 -1.890625zm12.820587 2.5q0 -1.328125 0.203125 -2.46875q0.21875 -1.15625 0.5625 -2.125q0.34375 -0.96875 0.796875 -1.765625q0.46875 -0.796875 0.96875 -1.40625q0.515625 -0.625 1.015625 -1.046875q0.515625 -0.421875 0.984375 -0.65625l0.4375 1.28125q-0.515625 0.390625 -1.046875 1.078125q-0.53125 0.6875 -0.953125 1.6875q-0.421875 1.0 -0.703125 2.34375q-0.265625 1.34375 -0.265625 3.0625l0 0.171875q0 1.71875 0.265625 3.0625q0.28125 1.34375 0.703125 2.34375q0.421875 1.015625 0.953125 1.703125q0.53125 0.703125 1.046875 1.125l-0.4375 1.21875q-0.46875 -0.234375 -0.984375 -0.65625q-0.5 -0.421875 -1.015625 -1.046875q-0.5 -0.609375 -0.96875 -1.40625q-0.453125 -0.796875 -0.796875 -1.765625q-0.34375 -0.96875 -0.5625 -2.109375q-0.203125 -1.15625 -0.203125 -2.484375l0 -0.140625zm15.929932 0.140625q0 1.3125 -0.21875 2.453125q-0.203125 1.140625 -0.5625 2.109375q-0.34375 0.96875 -0.8125 1.765625q-0.46875 0.8125 -0.984375 1.421875q-0.515625 0.625 -1.046875 1.046875q-0.515625 0.4375 -0.96875 0.671875l-0.4375 -1.21875q0.515625 -0.390625 1.046875 -1.09375q0.53125 -0.6875 0.953125 -1.703125q0.421875 -1.015625 0.6875 -2.359375q0.28125 -1.359375 0.28125 -3.078125l0 -0.171875q0 -1.71875 -0.28125 -3.0625q-0.28125 -1.359375 -0.71875 -2.375q-0.4375 -1.03125 -0.96875 -1.71875q-0.515625 -0.6875 -1.0 -1.078125l0.4375 -1.21875q0.453125 0.234375 0.96875 0.65625q0.53125 0.421875 1.046875 1.046875q0.515625 0.625 0.984375 1.4375q0.46875 0.796875 0.8125 1.78125q0.359375 0.96875 0.5625 2.109375q0.21875 1.140625 0.21875 2.4375l0 0.140625zm7.4299316 -4.046875q0 -0.328125 0.09375 -0.609375q0.109375 -0.28125 0.3125 -0.484375q0.203125 -0.203125 0.5 -0.3125q0.296875 -0.125 0.671875 -0.125q0.390625 0 0.6875 0.125q0.296875 0.109375 0.5 0.3125q0.203125 0.203125 0.296875 0.484375q0.109375 0.28125 0.109375 0.609375q0 0.3125 -0.109375 0.578125q-0.09375 0.265625 -0.296875 0.46875q-0.203125 0.203125 -0.5 0.328125q-0.296875 0.109375 -0.6875 0.109375q-0.375 0 -0.671875 -0.109375q-0.296875 -0.125 -0.5 -0.328125q-0.203125 -0.203125 -0.3125 -0.46875q-0.09375 -0.265625 -0.09375 -0.578125zm3.0625 9.0q0 0.484375 -0.125 0.984375q-0.125 0.515625 -0.359375 1.0q-0.21875 0.5 -0.546875 0.9375q-0.328125 0.4375 -0.71875 0.796875l-1.234375 -0.65625q0.390625 -0.65625 0.59375 -1.375q0.21875 -0.71875 0.21875 -1.625l0 -1.890625l2.1875 0l-0.015625 1.828125z" fill-rule="nonzero"/><path fill="#ffffff" d="m10.984375 140.72372q0.5 0.015625 0.8125 -0.265625q0.328125 -0.265625 0.5 -0.6875q0.1875 -0.421875 0.25 -0.96875q0.078125 -0.53125 0.078125 -1.046875l0 -1.484375q0 -1.0625 0.5 -1.890625q0.5 -0.84375 1.578125 -1.28125q-1.078125 -0.453125 -1.578125 -1.28125q-0.5 -0.84375 -0.5 -1.921875l0 -1.484375q0 -0.5156174 -0.03125 -1.0468674q-0.03125 -0.53125 -0.1875 -0.953125q-0.15625 -0.4375 -0.5 -0.703125q-0.328125 -0.28125 -0.921875 -0.265625l0.234375 -1.265625q0.640625 0 1.140625 0.1875q0.515625 0.171875 0.890625 0.484375q0.390625 0.3125 0.65625 0.734375q0.28125 0.40625 0.453125 0.890625q0.171875 0.46875 0.25 0.96875q0.078125 0.5 0.078125 0.9687424l0 1.484375q0 1.28125 0.59375 1.84375q0.59375 0.546875 1.8125 0.546875l0 1.609375q-1.21875 0 -1.8125 0.5625q-0.59375 0.546875 -0.59375 1.8125l0 1.484375q0 0.484375 -0.09375 0.984375q-0.078125 0.5 -0.265625 0.96875q-0.1875 0.46875 -0.46875 0.890625q-0.28125 0.421875 -0.671875 0.734375q-0.375 0.3125 -0.875 0.484375q-0.484375 0.1875 -1.09375 0.1875l-0.234375 -1.28125z" fill-rule="nonzero"/></g></svg>