<svg version="1.1" viewBox="0.0 0.0 662.3989501312336 172.8005249343832" fill="none" stroke="none" stroke-linecap="square" stroke-miterlimit="10" xmlns:xlink="http://www.w3.org/1999/xlink" xmlns="http://www.w3.org/2000/svg"><clipPath id="p.0"><path d="m0 0l662.3989 0l0 172.80052l-662.3989 0l0 -172.80052z" clip-rule="nonzero"/></clipPath><g clip-path="url(#p.0)"><path fill="#000000" fill-opacity="0.0" d="m0 0l662.3989 0l0 172.80052l-662.3989 0z" fill-rule="evenodd"/><path fill="#222222" d="m0 0.018372703l662.3937 0l0 172.7874l-662.3937 0z" fill-rule="evenodd"/><path fill="#f6b26b" d="m10.890625 17.472696l5.25 0l0 8.0625l2.921875 0l0 1.796875l-8.171875 0l0 -1.796875l3.0625 0l0 -6.25l-3.0625 0l0 -1.8125zm2.875 -2.546876q0 -0.515625 0.328125 -0.84375q0.328125 -0.328125 0.921875 -0.328125q0.59375 0 0.921875 0.328125q0.34375 0.328125 0.34375 0.84375q0 0.515625 -0.34375 0.84375q-0.328125 0.32812595 -0.921875 0.32812595q-0.59375 0 -0.921875 -0.32812595q-0.328125 -0.328125 -0.328125 -0.84375zm10.320572 12.406251l0 -8.234375l-2.65625 0l0 -1.625l2.65625 0l0 -0.609375q0 -0.95312595 0.28125 -1.687501q0.296875 -0.734375 0.828125 -1.234375q0.546875 -0.5 1.3125 -0.75q0.765625 -0.265625 1.71875 -0.265625q0.625 0 1.1875 0.109375q0.578125 0.09375 1.203125 0.21875l-0.1875 1.71875q-0.359375 -0.09375 -0.84375 -0.171875q-0.46875 -0.078125 -1.0625 -0.078125q-1.171875 0 -1.71875 0.5625q-0.53125 0.546875 -0.53125 1.578126l0 0.609375l3.65625 0l0 1.625l-3.65625 0l0 8.234375l-2.1875 0z" fill-rule="nonzero"/><path fill="#ffffff" d="m45.75859 21.941446q0 -1.328125 0.203125 -2.46875q0.21875 -1.15625 0.5625 -2.125q0.34375 -0.96875 0.796875 -1.765626q0.46875 -0.796875 0.96875 -1.40625q0.515625 -0.625 1.015625 -1.046875q0.515625 -0.421875 0.984375 -0.65625l0.4375 1.28125q-0.515625 0.390625 -1.046875 1.078125q-0.53125 0.6875 -0.953125 1.687501q-0.421875 1.0 -0.703125 2.34375q-0.265625 1.34375 -0.265625 3.0625l0 0.171875q0 1.71875 0.265625 3.0625q0.28125 1.34375 0.703125 2.34375q0.421875 1.015625 0.953125 1.703125q0.53125 0.703125 1.046875 1.125l-0.4375 1.21875q-0.46875 -0.234375 -0.984375 -0.65625q-0.5 -0.421875 -1.015625 -1.046875q-0.5 -0.609375 -0.96875 -1.40625q-0.453125 -0.796875 -0.796875 -1.765625q-0.34375 -0.96875 -0.5625 -2.109375q-0.203125 -1.15625 -0.203125 -2.484375l0 -0.140625z" fill-rule="nonzero"/><path fill="#93c47d" d="m64.12604 21.550821q0 1.1875 -0.296875 2.265625q-0.296875 1.078125 -0.90625 1.90625q-0.59375 0.8125 -1.484375 1.3125q-0.890625 0.484375 -2.09375 0.484375q-1.203125 0 -2.09375 -0.484375q-0.875 -0.5 -1.46875 -1.328125q-0.578125 -0.828125 -0.875 -1.890625q-0.296875 -1.078125 -0.296875 -2.265625l0 -1.6875q0 -0.78125 0.125 -1.53125q0.140625 -0.75 0.390625 -1.40625q0.265625 -0.65625 0.65625 -1.218751q0.390625 -0.5625 0.90625 -0.953125q0.53125 -0.40625 1.1875 -0.640625q0.65625 -0.234375 1.453125 -0.234375q1.203125 0 2.09375 0.5q0.90625 0.484375 1.5 1.3125q0.609375 0.82812595 0.90625 1.921876q0.296875 1.078125 0.296875 2.25l0 1.6875zm-2.1875 -1.703125q-0.015625 -0.75 -0.140625 -1.484375q-0.125 -0.734375 -0.4375 -1.3125q-0.296875 -0.59375 -0.796875 -0.953125q-0.484375 -0.35937595 -1.234375 -0.35937595q-0.734375 0 -1.234375 0.35937595q-0.484375 0.359375 -0.765625 0.953125q-0.28125 0.578125 -0.40625 1.3125q-0.109375 0.734375 -0.109375 1.484375l0 1.703125q0 0.75 0.109375 1.484375q0.125 0.734375 0.40625 1.328125q0.296875 0.578125 0.78125 0.953125q0.484375 0.359375 1.234375 0.359375q0.734375 0 1.234375 -0.359375q0.5 -0.375 0.796875 -0.953125q0.296875 -0.578125 0.421875 -1.3125q0.125 -0.75 0.140625 -1.5l0 -1.703125zm8.617447 4.15625l2.75 -9.937501l2.390625 0l-4.09375 13.265626l-2.09375 0l-4.078125 -13.265626l2.375 0l2.75 9.937501zm11.414322 -1.84375l-2.21875 0l0 5.171875l-2.1875 0l0 -13.265626l4.1875 0q1.03125 0.015625 1.890625 0.265625q0.859375 0.25 1.484375 0.75q0.625 0.484375 0.96875 1.234376q0.359375 0.75 0.359375 1.75q0 0.671875 -0.1875 1.234375q-0.171875 0.546875 -0.5 1.0q-0.3125 0.4375 -0.765625 0.78125q-0.4375 0.328125 -0.96875 0.5625l2.796875 5.578125l0 0.109375l-2.328125 0l-2.53125 -5.171875zm-2.21875 -1.765625l2.015625 0q0.546875 0 1.0 -0.15625q0.453125 -0.15625 0.78125 -0.4375q0.34375 -0.296875 0.515625 -0.703125q0.1875 -0.421875 0.1875 -0.953125q0 -0.5625 -0.171875 -0.984375q-0.171875 -0.4375 -0.5 -0.71875q-0.3125 -0.296875 -0.78125 -0.4375q-0.46875 -0.15625095 -1.046875 -0.17187595l-2.0 0l0 4.562501zm9.273697 -6.328126l7.875 0l0 1.8125l-2.859375 0l0 9.656251l2.859375 0l0 1.796875l-7.875 0l0 -1.796875l2.796875 0l0 -9.656251l-2.796875 0l0 -1.8125zm12.914322 3.406251l0.140625 1.375q0.53125 -0.75 1.296875 -1.140625q0.765625 -0.40625 1.6875 -0.40625q0.765625 0 1.390625 0.21875q0.625 0.21875 1.0625 0.6875q0.453125 0.453125 0.703125 1.1875q0.25 0.734375 0.25 1.78125l0 6.15625l-2.171875 0l0 -6.125q0 -0.609375 -0.140625 -1.015625q-0.140625 -0.40625 -0.40625 -0.65625q-0.25 -0.25 -0.625 -0.34375q-0.375 -0.109375 -0.84375 -0.109375q-0.734375 0 -1.265625 0.328125q-0.53125 0.3125 -0.859375 0.859375l0 7.0625l-2.1875 0l0 -9.859375l1.96875 0zm17.851822 5.03125q0 1.078125 -0.25 2.0q-0.25 0.921875 -0.75 1.59375q-0.484375 0.65625 -1.203125 1.046875q-0.71875 0.375 -1.640625 0.375q-0.84375 0 -1.484375 -0.265625q-0.640625 -0.28125 -1.109375 -0.796875l0 4.671875l-2.171875 0l0 -13.65625l2.0 0l0.09375 1.0q0.46875 -0.5625 1.125 -0.859375q0.65625 -0.3125 1.515625 -0.3125q0.9375 0 1.65625 0.359375q0.734375 0.359375 1.21875 1.03125q0.5 0.65625 0.75 1.578125q0.25 0.921875 0.25 2.046875l0 0.1875zm-2.171875 -0.1875q0 -0.671875 -0.140625 -1.25q-0.125 -0.59375 -0.421875 -1.03125q-0.28125 -0.453125 -0.71875 -0.703125q-0.421875 -0.25 -1.03125 -0.25q-0.734375 0 -1.203125 0.3125q-0.46875 0.296875 -0.75 0.828125l0 4.40625q0.28125 0.5 0.75 0.828125q0.46875 0.3125 1.21875 0.3125q0.609375 0 1.046875 -0.265625q0.4375 -0.265625 0.703125 -0.703125q0.28125 -0.453125 0.40625 -1.03125q0.140625 -0.59375 0.140625 -1.265625l0 -0.1875zm11.070572 3.671875q-0.5 0.71875 -1.21875 1.125q-0.71875 0.40625 -1.59375 0.40625q-0.765625 0 -1.40625 -0.234375q-0.625 -0.234375 -1.078125 -0.75q-0.453125 -0.515625 -0.703125 -1.3125q-0.25 -0.796875 -0.25 -1.921875l0 -5.828125l2.171875 0l0 5.84375q0 0.71875 0.109375 1.1875q0.109375 0.453125 0.328125 0.734375q0.21875 0.265625 0.546875 0.390625q0.328125 0.109375 0.78125 0.109375q0.875 0 1.40625 -0.34375q0.546875 -0.34375 0.8125 -0.921875l0 -7.0l2.1875 0l0 9.859375l-1.96875 0l-0.125 -1.34375zm9.242447 -10.906251l0 2.390626l3.71875 0l0 1.625l-3.71875 0l0 4.734375q0 0.546875 0.125 0.921875q0.140625 0.359375 0.375 0.578125q0.234375 0.21875 0.546875 0.3125q0.328125 0.078125 0.703125 0.078125q0.28125 0 0.578125 -0.03125q0.3125 -0.03125 0.59375 -0.078125q0.296875 -0.046875 0.53125 -0.09375q0.25 -0.046875 0.40625 -0.09375l0.25 1.5q-0.234375 0.140625 -0.578125 0.265625q-0.328125 0.109375 -0.71875 0.171875q-0.390625 0.078125 -0.8125 0.109375q-0.421875 0.046875 -0.828125 0.046875q-0.734375 0 -1.359375 -0.203125q-0.609375 -0.203125 -1.0625 -0.625q-0.4375 -0.4375 -0.6875 -1.109375q-0.25 -0.6875 -0.25 -1.640625l0 -4.84375l-2.40625 0l0 -1.625l2.40625 0l0 -2.390626l2.1875 0z" fill-rule="nonzero"/><path fill="#ffffff" d="m147.48749 26.035196q0 -0.328125 0.09375 -0.609375q0.109375 -0.28125 0.3125 -0.484375q0.203125 -0.203125 0.5 -0.3125q0.296875 -0.125 0.671875 -0.125q0.390625 0 0.6875 0.125q0.296875 0.109375 0.5 0.3125q0.203125 0.203125 0.296875 0.484375q0.109375 0.28125 0.109375 0.609375q0 0.3125 -0.109375 0.578125q-0.09375 0.265625 -0.296875 0.46875q-0.203125 0.203125 -0.5 0.3125q-0.296875 0.125 -0.6875 0.125q-0.375 0 -0.671875 -0.125q-0.296875 -0.109375 -0.5 -0.3125q-0.203125 -0.203125 -0.3125 -0.46875q-0.09375 -0.265625 -0.09375 -0.578125zm17.304947 -0.359375q-0.328125 0.40625 -0.78125 0.75q-0.453125 0.328125 -1.03125 0.578125q-0.5625 0.234375 -1.21875 0.375q-0.65625 0.140625 -1.40625 0.140625q-1.1875 0 -2.109375 -0.46875q-0.921875 -0.46875 -1.5625 -1.265625q-0.625 -0.8125 -0.96875 -1.90625q-0.328125 -1.09375 -0.328125 -2.34375l0 -1.640625q0 -1.265625 0.328125 -2.359375q0.328125 -1.09375 0.9375 -1.890626q0.609375 -0.8125 1.5 -1.28125q0.90625 -0.484375 2.046875 -0.484375q1.03125 0 1.84375 0.296875q0.8125 0.28125 1.390625 0.8125q0.578125 0.53125 0.921875 1.296876q0.34375 0.765625 0.4375 1.703125l-2.15625 0q-0.078125 -0.53125 -0.25 -0.953125q-0.171875 -0.4375 -0.46875 -0.734375q-0.28125 -0.296875 -0.703125 -0.45312595q-0.40625 -0.171875 -0.984375 -0.171875q-0.6875 0 -1.1875 0.34375095q-0.484375 0.34375 -0.8125 0.921875q-0.328125 0.578125 -0.484375 1.34375q-0.15625 0.75 -0.171875 1.59375l0 1.65625q0.015625 0.828125 0.171875 1.578125q0.15625 0.75 0.5 1.328125q0.34375 0.578125 0.875 0.9375q0.546875 0.34375 1.296875 0.34375q0.3125 0 0.640625 -0.03125q0.328125 -0.046875 0.625 -0.140625q0.296875 -0.09375 0.53125 -0.234375q0.25 -0.140625 0.40625 -0.34375l0.015625 -2.65625l-2.390625 0l0 -1.703125l4.53125 0l0.015625 5.0625zm6.945572 1.84375q-1.09375 0 -2.0 -0.359375q-0.890625 -0.375 -1.53125 -1.015625q-0.640625 -0.640625 -1.0 -1.5q-0.359375 -0.875 -0.359375 -1.890625l0 -0.375q0 -1.171875 0.375 -2.109375q0.390625 -0.9375 1.015625 -1.59375q0.640625 -0.671875 1.46875 -1.015625q0.84375 -0.359375 1.78125 -0.359375q1.078125 0 1.890625 0.359375q0.828125 0.359375 1.375 1.015625q0.546875 0.640625 0.828125 1.53125q0.28125 0.890625 0.28125 1.953125l0 0.921875l-6.828125 0q0.0625 0.578125 0.28125 1.078125q0.234375 0.484375 0.59375 0.84375q0.375 0.359375 0.859375 0.5625q0.5 0.203125 1.09375 0.203125q0.828125 0 1.53125 -0.328125q0.703125 -0.328125 1.140625 -0.890625l1.171875 1.109375q-0.234375 0.34375 -0.609375 0.6875q-0.375 0.328125 -0.875 0.59375q-0.5 0.25 -1.125 0.40625q-0.625 0.171875 -1.359375 0.171875zm-0.265625 -8.46875q-0.453125 0 -0.84375 0.171875q-0.390625 0.15625 -0.703125 0.46875q-0.3125 0.3125 -0.53125 0.765625q-0.203125 0.453125 -0.296875 1.03125l4.625 0l0 -0.171875q-0.03125 -0.4375 -0.171875 -0.84375q-0.140625 -0.40625 -0.421875 -0.71875q-0.265625 -0.3125 -0.6875 -0.5q-0.40625 -0.203125 -0.96875 -0.203125zm11.242447 -3.968751l0 2.390626l3.71875 0l0 1.625l-3.71875 0l0 4.734375q0 0.546875 0.125 0.921875q0.140625 0.359375 0.375 0.578125q0.234375 0.21875 0.546875 0.3125q0.328125 0.078125 0.703125 0.078125q0.28125 0 0.578125 -0.03125q0.3125 -0.03125 0.59375 -0.078125q0.296875 -0.046875 0.53125 -0.09375q0.25 -0.046875 0.40625 -0.09375l0.25 1.5q-0.234375 0.140625 -0.578125 0.265625q-0.328125 0.109375 -0.71875 0.171875q-0.390625 0.078125 -0.8125 0.109375q-0.421875 0.046875 -0.828125 0.046875q-0.734375 0 -1.359375 -0.203125q-0.609375 -0.203125 -1.0625 -0.625q-0.4375 -0.4375 -0.6875 -1.109375q-0.25 -0.6875 -0.25 -1.640625l0 -4.84375l-2.40625 0l0 -1.625l2.40625 0l0 -2.390626l2.1875 0zm6.664322 12.250001l0 -13.265626l3.234375 0q1.375 0.015625 2.453125 0.46875q1.09375 0.4375 1.859375 1.25q0.765625 0.81250095 1.171875 1.937501q0.40625 1.125 0.421875 2.484375l0 1.0q-0.015625 1.375 -0.421875 2.5q-0.40625 1.125 -1.171875 1.9375q-0.75 0.796875 -1.828125 1.25q-1.078125 0.4375 -2.40625 0.4375l-3.3125 0zm2.21875 -11.500001l0 9.734376l1.09375 0q0.890625 0 1.5625 -0.3125q0.6875 -0.3125 1.125 -0.875q0.453125 -0.578125 0.671875 -1.375q0.234375 -0.8125 0.234375 -1.796875l0 -1.015625q0 -0.953125 -0.234375 -1.75q-0.21875 -0.796875 -0.671875 -1.375q-0.453125 -0.578125 -1.140625 -0.890625q-0.6875 -0.32812595 -1.625 -0.34375095l-1.015625 0zm8.742447 6.484376q0 -1.0625 0.3125 -1.984375q0.3125 -0.921875 0.890625 -1.59375q0.59375 -0.6875 1.4375 -1.0625q0.859375 -0.375 1.921875 -0.375q1.09375 0 1.9375 0.375q0.859375 0.375 1.4375 1.0625q0.59375 0.671875 0.90625 1.59375q0.3125 0.921875 0.3125 1.984375l0 0.1875q0 1.078125 -0.3125 2.0q-0.3125 0.921875 -0.90625 1.59375q-0.578125 0.65625 -1.4375 1.046875q-0.84375 0.375 -1.90625 0.375q-1.09375 0 -1.953125 -0.375q-0.84375 -0.390625 -1.4375 -1.046875q-0.578125 -0.671875 -0.890625 -1.59375q-0.3125 -0.921875 -0.3125 -2.0l0 -0.1875zm2.171875 0.1875q0 0.671875 0.140625 1.265625q0.140625 0.59375 0.4375 1.046875q0.296875 0.453125 0.75 0.71875q0.453125 0.25 1.09375 0.25q0.609375 0 1.046875 -0.25q0.453125 -0.265625 0.75 -0.71875q0.296875 -0.453125 0.4375 -1.046875q0.140625 -0.59375 0.140625 -1.265625l0 -0.1875q0 -0.65625 -0.140625 -1.25q-0.140625 -0.59375 -0.4375 -1.03125q-0.296875 -0.453125 -0.75 -0.71875q-0.4375 -0.265625 -1.078125 -0.265625q-0.609375 0 -1.078125 0.265625q-0.453125 0.265625 -0.75 0.71875q-0.28125 0.4375 -0.421875 1.03125q-0.140625 0.59375 -0.140625 1.25l0 0.1875zm11.289322 1.578125l0.0625 0.640625l0.09375 -0.640625l1.421875 -6.609375l1.421875 0l1.4375 6.6875l0.09375 0.65625l0.078125 -0.71875l0.96875 -6.625l1.96875 0l-1.921875 9.859375l-1.84375 0l-1.484375 -6.59375l-0.015625 -0.125l-0.03125 0.109375l-1.453125 6.609375l-1.828125 0l-1.921875 -9.859375l1.953125 0l1.0 6.609375zm11.289322 -6.609375l0.140625 1.375q0.53125 -0.75 1.296875 -1.140625q0.765625 -0.40625 1.6875 -0.40625q0.765625 0 1.390625 0.21875q0.625 0.21875 1.0625 0.6875q0.453125 0.453125 0.703125 1.1875q0.25 0.734375 0.25 1.78125l0 6.15625l-2.171875 0l0 -6.125q0 -0.609375 -0.140625 -1.015625q-0.140625 -0.40625 -0.40625 -0.65625q-0.25 -0.25 -0.625 -0.34375q-0.375 -0.109375 -0.84375 -0.109375q-0.734375 0 -1.265625 0.328125q-0.53125 0.3125 -0.859375 0.859375l0 7.0625l-2.1875 0l0 -9.859375l1.96875 0zm10.992447 4.46875q0 -1.328125 0.203125 -2.46875q0.21875 -1.15625 0.5625 -2.125q0.34375 -0.96875 0.796875 -1.765626q0.46875 -0.796875 0.96875 -1.40625q0.515625 -0.625 1.015625 -1.046875q0.515625 -0.421875 0.984375 -0.65625l0.4375 1.28125q-0.515625 0.390625 -1.046875 1.078125q-0.53125 0.6875 -0.953125 1.687501q-0.421875 1.0 -0.703125 2.34375q-0.265625 1.34375 -0.265625 3.0625l0 0.171875q0 1.71875 0.265625 3.0625q0.28125 1.34375 0.703125 2.34375q0.421875 1.015625 0.953125 1.703125q0.53125 0.703125 1.046875 1.125l-0.4375 1.21875q-0.46875 -0.234375 -0.984375 -0.65625q-0.5 -0.421875 -1.015625 -1.046875q-0.5 -0.609375 -0.96875 -1.40625q-0.453125 -0.796875 -0.796875 -1.765625q-0.34375 -0.96875 -0.5625 -2.109375q-0.203125 -1.15625 -0.203125 -2.484375l0 -0.140625z" fill-rule="nonzero"/><path fill="#6d9eeb" d="m259.41196 28.472696l-1.984375 0l5.25 -14.406251l1.984375 0l-5.25 14.406251zm11.992462 -7.015625l-3.5 -0.859375l0.5625 -1.796875l3.359375 1.46875l-0.296875 -3.890625l1.875 0l-0.3125 3.9375l3.328125 -1.421875l0.5625 1.8125l-3.546875 0.828125l2.375 2.953125l-1.53125 1.109375l-1.90625 -3.359375l-1.890625 3.265625l-1.546875 -1.0625l2.46875 -2.984375zm23.203613 4.328125q0.40625 0 0.78125 -0.125q0.375 -0.125 0.65625 -0.359375q0.296875 -0.234375 0.46875 -0.53125q0.171875 -0.3125 0.15625 -0.6875l2.0625 0q0.015625 0.71875 -0.328125 1.34375q-0.328125 0.625 -0.90625 1.09375q-0.5625 0.453125 -1.3125 0.734375q-0.734375 0.265625 -1.5625 0.265625q-1.140625 0 -2.0 -0.390625q-0.84375 -0.390625 -1.421875 -1.0625q-0.578125 -0.6875 -0.859375 -1.578125q-0.28125 -0.90625 -0.28125 -1.90625l0 -0.328125q0 -1.015625 0.28125 -1.90625q0.28125 -0.90625 0.859375 -1.578125q0.578125 -0.6875 1.421875 -1.078125q0.859375 -0.390625 2.0 -0.390625q0.890625 0 1.640625 0.28125q0.765625 0.265625 1.3125 0.75q0.5625 0.484375 0.859375 1.171875q0.3125 0.6875 0.296875 1.5l-2.0625 0q0.015625 -0.40625 -0.140625 -0.75q-0.140625 -0.359375 -0.421875 -0.625q-0.28125 -0.265625 -0.671875 -0.421875q-0.375 -0.15625 -0.828125 -0.15625q-0.6875 0 -1.140625 0.28125q-0.453125 0.28125 -0.734375 0.734375q-0.265625 0.4375 -0.390625 1.015625q-0.109375 0.578125 -0.109375 1.171875l0 0.328125q0 0.59375 0.109375 1.171875q0.125 0.578125 0.390625 1.03125q0.28125 0.4375 0.734375 0.71875q0.453125 0.28125 1.140625 0.28125zm9.070587 -6.9375q0.5 -0.734375 1.234375 -1.140625q0.734375 -0.40625 1.640625 -0.40625q0.765625 0 1.40625 0.234375q0.640625 0.21875 1.09375 0.703125q0.453125 0.46875 0.703125 1.21875q0.265625 0.75 0.265625 1.796875l0 6.078125l-2.171875 0l0 -6.09375q0 -0.5625 -0.140625 -0.96875q-0.140625 -0.40625 -0.40625 -0.671875q-0.265625 -0.265625 -0.640625 -0.390625q-0.359375 -0.125 -0.84375 -0.125q-0.703125 0 -1.25 0.296875q-0.546875 0.296875 -0.890625 0.796875l0 7.15625l-2.1875 0l0 -14.000001l2.1875 0l0 5.515626zm8.617462 3.46875q0 -1.0625 0.3125 -1.984375q0.3125 -0.921875 0.890625 -1.59375q0.59375 -0.6875 1.4375 -1.0625q0.859375 -0.375 1.921875 -0.375q1.09375 0 1.9375 0.375q0.859375 0.375 1.4375 1.0625q0.59375 0.671875 0.90625 1.59375q0.3125 0.921875 0.3125 1.984375l0 0.1875q0 1.078125 -0.3125 2.0q-0.3125 0.921875 -0.90625 1.59375q-0.578125 0.65625 -1.4375 1.046875q-0.84375 0.375 -1.90625 0.375q-1.09375 0 -1.953125 -0.375q-0.84375 -0.390625 -1.4375 -1.046875q-0.578125 -0.671875 -0.890625 -1.59375q-0.3125 -0.921875 -0.3125 -2.0l0 -0.1875zm2.171875 0.1875q0 0.671875 0.140625 1.265625q0.140625 0.59375 0.4375 1.046875q0.296875 0.453125 0.75 0.71875q0.453125 0.25 1.09375 0.25q0.609375 0 1.046875 -0.25q0.453125 -0.265625 0.75 -0.71875q0.296875 -0.453125 0.4375 -1.046875q0.140625 -0.59375 0.140625 -1.265625l0 -0.1875q0 -0.65625 -0.140625 -1.25q-0.140625 -0.59375 -0.4375 -1.03125q-0.296875 -0.453125 -0.75 -0.71875q-0.4375 -0.265625 -1.078125 -0.265625q-0.609375 0 -1.078125 0.265625q-0.453125 0.265625 -0.75 0.71875q-0.28125 0.4375 -0.421875 1.03125q-0.140625 0.59375 -0.140625 1.25l0 0.1875zm9.023682 -0.1875q0 -1.0625 0.3125 -1.984375q0.3125 -0.921875 0.890625 -1.59375q0.59375 -0.6875 1.4375 -1.0625q0.859375 -0.375 1.921875 -0.375q1.09375 0 1.9375 0.375q0.859375 0.375 1.4375 1.0625q0.59375 0.671875 0.90625 1.59375q0.3125 0.921875 0.3125 1.984375l0 0.1875q0 1.078125 -0.3125 2.0q-0.3125 0.921875 -0.90625 1.59375q-0.578125 0.65625 -1.4375 1.046875q-0.84375 0.375 -1.90625 0.375q-1.09375 0 -1.953125 -0.375q-0.84375 -0.390625 -1.4375 -1.046875q-0.578125 -0.671875 -0.890625 -1.59375q-0.3125 -0.921875 -0.3125 -2.0l0 -0.1875zm2.171875 0.1875q0 0.671875 0.140625 1.265625q0.140625 0.59375 0.4375 1.046875q0.296875 0.453125 0.75 0.71875q0.453125 0.25 1.09375 0.25q0.609375 0 1.046875 -0.25q0.453125 -0.265625 0.75 -0.71875q0.296875 -0.453125 0.4375 -1.046875q0.140625 -0.59375 0.140625 -1.265625l0 -0.1875q0 -0.65625 -0.140625 -1.25q-0.140625 -0.59375 -0.4375 -1.03125q-0.296875 -0.453125 -0.75 -0.71875q-0.4375 -0.265625 -1.078125 -0.265625q-0.609375 0 -1.078125 0.265625q-0.453125 0.265625 -0.75 0.71875q-0.28125 0.4375 -0.421875 1.03125q-0.140625 0.59375 -0.140625 1.25l0 0.1875zm15.836182 2.15625q0 -0.25 -0.09375 -0.453125q-0.09375 -0.203125 -0.359375 -0.359375q-0.265625 -0.171875 -0.71875 -0.3125q-0.4375 -0.15625 -1.140625 -0.296875q-0.875 -0.171875 -1.59375 -0.421875q-0.703125 -0.265625 -1.203125 -0.625q-0.5 -0.359375 -0.78125 -0.828125q-0.265625 -0.46875 -0.265625 -1.078125q0 -0.609375 0.28125 -1.140625q0.28125 -0.546875 0.796875 -0.953125q0.53125 -0.421875 1.28125 -0.65625q0.75 -0.234375 1.6875 -0.234375q0.984375 0 1.75 0.25q0.78125 0.234375 1.3125 0.65625q0.546875 0.421875 0.828125 1.0q0.296875 0.578125 0.296875 1.234375l-2.1875 0q0 -0.296875 -0.125 -0.5625q-0.125 -0.265625 -0.390625 -0.46875q-0.25 -0.21875 -0.625 -0.34375q-0.375 -0.125 -0.859375 -0.125q-0.5 0 -0.859375 0.109375q-0.359375 0.09375 -0.59375 0.265625q-0.234375 0.171875 -0.359375 0.40625q-0.109375 0.21875 -0.109375 0.46875q0 0.25 0.078125 0.453125q0.09375 0.1875 0.328125 0.359375q0.25 0.15625 0.65625 0.296875q0.421875 0.125 1.09375 0.25q0.921875 0.15625 1.65625 0.40625q0.75 0.25 1.265625 0.609375q0.53125 0.34375 0.8125 0.84375q0.28125 0.484375 0.28125 1.140625q0 0.65625 -0.296875 1.203125q-0.296875 0.546875 -0.859375 0.9375q-0.546875 0.390625 -1.328125 0.609375q-0.78125 0.21875 -1.75 0.21875q-1.0625 0 -1.890625 -0.28125q-0.8125 -0.28125 -1.375 -0.75q-0.5625 -0.46875 -0.84375 -1.0625q-0.28125 -0.59375 -0.28125 -1.203125l2.109375 0q0.03125 0.453125 0.234375 0.78125q0.21875 0.3125 0.546875 0.515625q0.328125 0.1875 0.71875 0.28125q0.40625 0.078125 0.8125 0.078125q1.015625 0 1.53125 -0.328125q0.53125 -0.34375 0.53125 -0.890625zm9.367462 2.859375q-1.09375 0 -2.0 -0.359375q-0.890625 -0.375 -1.53125 -1.015625q-0.640625 -0.640625 -1.0 -1.5q-0.359375 -0.875 -0.359375 -1.890625l0 -0.375q0 -1.171875 0.375 -2.109375q0.390625 -0.9375 1.015625 -1.59375q0.640625 -0.671875 1.46875 -1.015625q0.84375 -0.359375 1.78125 -0.359375q1.078125 0 1.890625 0.359375q0.828125 0.359375 1.375 1.015625q0.546875 0.640625 0.828125 1.53125q0.28125 0.890625 0.28125 1.953125l0 0.921875l-6.828125 0q0.0625 0.578125 0.28125 1.078125q0.234375 0.484375 0.59375 0.84375q0.375 0.359375 0.859375 0.5625q0.5 0.203125 1.09375 0.203125q0.828125 0 1.53125 -0.328125q0.703125 -0.328125 1.140625 -0.890625l1.171875 1.109375q-0.234375 0.34375 -0.609375 0.6875q-0.375 0.328125 -0.875 0.59375q-0.5 0.25 -1.125 0.40625q-0.625 0.171875 -1.359375 0.171875zm-0.265625 -8.46875q-0.453125 0 -0.84375 0.171875q-0.390625 0.15625 -0.703125 0.46875q-0.3125 0.3125 -0.53125 0.765625q-0.203125 0.453125 -0.296875 1.03125l4.625 0l0 -0.171875q-0.03125 -0.4375 -0.171875 -0.84375q-0.140625 -0.40625 -0.421875 -0.71875q-0.265625 -0.3125 -0.6875 -0.5q-0.40625 -0.203125 -0.96875 -0.203125zm24.359894 8.28125q-0.09375 -0.1875 -0.15625 -0.421875q-0.0625 -0.25 -0.109375 -0.53125q-0.21875 0.234375 -0.515625 0.4375q-0.28125 0.203125 -0.640625 0.359375q-0.34375 0.15625 -0.75 0.25q-0.40625 0.09375 -0.859375 0.09375q-0.796875 0 -1.4375 -0.21875q-0.625 -0.234375 -1.078125 -0.625q-0.4375 -0.40625 -0.6875 -0.9375q-0.25 -0.53125 -0.25 -1.171875q0 -1.578125 1.171875 -2.40625q1.1875 -0.84375 3.390625 -0.84375l1.59375 0l0 -0.65625q0 -0.78125 -0.53125 -1.234375q-0.515625 -0.46875 -1.484375 -0.46875q-0.4375 0 -0.765625 0.109375q-0.328125 0.109375 -0.546875 0.296875q-0.21875 0.171875 -0.328125 0.421875q-0.109375 0.234375 -0.109375 0.53125l-2.171875 0q0 -0.578125 0.265625 -1.125q0.265625 -0.546875 0.78125 -0.96875q0.515625 -0.421875 1.265625 -0.671875q0.765625 -0.25 1.71875 -0.25q0.875 0 1.625 0.21875q0.75 0.203125 1.296875 0.625q0.546875 0.421875 0.859375 1.0625q0.3125 0.625 0.3125 1.46875l0 4.390625q0 0.65625 0.09375 1.1875q0.09375 0.53125 0.265625 0.921875l0 0.15625l-2.21875 0zm-2.625 -1.578125q0.421875 0 0.78125 -0.09375q0.375 -0.109375 0.671875 -0.28125q0.296875 -0.171875 0.5 -0.390625q0.21875 -0.21875 0.34375 -0.4375l0 -1.859375l-1.375 0q-1.328125 0 -1.96875 0.4375q-0.640625 0.421875 -0.640625 1.21875q0 0.296875 0.09375 0.5625q0.109375 0.25 0.3125 0.4375q0.21875 0.1875 0.53125 0.296875q0.3125 0.109375 0.75 0.109375zm27.391144 -3.234375q0 1.09375 -0.25 2.015625q-0.25 0.90625 -0.75 1.578125q-0.484375 0.65625 -1.203125 1.03125q-0.71875 0.375 -1.65625 0.375q-0.90625 0 -1.578125 -0.3125q-0.65625 -0.328125 -1.125 -0.9375l-0.09375 1.0625l-1.984375 0l0 -14.000001l2.171875 0l0 5.078126q0.46875 -0.53125 1.09375 -0.8125q0.640625 -0.296875 1.484375 -0.296875q0.953125 0 1.671875 0.375q0.734375 0.359375 1.21875 1.03125q0.5 0.65625 0.75 1.578125q0.25 0.921875 0.25 2.03125l0 0.203125zm-2.1875 -0.203125q0 -0.65625 -0.109375 -1.234375q-0.109375 -0.59375 -0.375 -1.03125q-0.25 -0.453125 -0.6875 -0.703125q-0.4375 -0.265625 -1.078125 -0.265625q-0.78125 0 -1.28125 0.359375q-0.484375 0.34375 -0.75 0.921875l0 4.078125q0.265625 0.5625 0.765625 0.9375q0.5 0.359375 1.28125 0.359375q0.625 0 1.046875 -0.25q0.421875 -0.25 0.6875 -0.6875q0.265625 -0.4375 0.375 -1.015625q0.125 -0.59375 0.125 -1.265625l0 -0.203125zm11.039337 3.671875q-0.5 0.71875 -1.21875 1.125q-0.71875 0.40625 -1.59375 0.40625q-0.765625 0 -1.40625 -0.234375q-0.625 -0.234375 -1.078125 -0.75q-0.453125 -0.515625 -0.703125 -1.3125q-0.25 -0.796875 -0.25 -1.921875l0 -5.828125l2.171875 0l0 5.84375q0 0.71875 0.109375 1.1875q0.109375 0.453125 0.328125 0.734375q0.21875 0.265625 0.546875 0.390625q0.328125 0.109375 0.78125 0.109375q0.875 0 1.40625 -0.34375q0.546875 -0.34375 0.8125 -0.921875l0 -7.0l2.1875 0l0 9.859375l-1.96875 0l-0.125 -1.34375zm9.242432 -10.906251l0 2.390626l3.71875 0l0 1.625l-3.71875 0l0 4.734375q0 0.546875 0.125 0.921875q0.140625 0.359375 0.375 0.578125q0.234375 0.21875 0.546875 0.3125q0.328125 0.078125 0.703125 0.078125q0.28125 0 0.578125 -0.03125q0.3125 -0.03125 0.59375 -0.078125q0.296875 -0.046875 0.53125 -0.09375q0.25 -0.046875 0.40625 -0.09375l0.25 1.5q-0.234375 0.140625 -0.578125 0.265625q-0.328125 0.109375 -0.71875 0.171875q-0.390625 0.078125 -0.8125 0.109375q-0.421875 0.046875 -0.828125 0.046875q-0.734375 0 -1.359375 -0.203125q-0.609375 -0.203125 -1.0625 -0.625q-0.4375 -0.4375 -0.6875 -1.109375q-0.25 -0.6875 -0.25 -1.640625l0 -4.84375l-2.40625 0l0 -1.625l2.40625 0l0 -2.390626l2.1875 0zm11.195557 0l0 2.390626l3.71875 0l0 1.625l-3.71875 0l0 4.734375q0 0.546875 0.125 0.921875q0.140625 0.359375 0.375 0.578125q0.234375 0.21875 0.546875 0.3125q0.328125 0.078125 0.703125 0.078125q0.28125 0 0.578125 -0.03125q0.3125 -0.03125 0.59375 -0.078125q0.296875 -0.046875 0.53125 -0.09375q0.25 -0.046875 0.40625 -0.09375l0.25 1.5q-0.234375 0.140625 -0.578125 0.265625q-0.328125 0.109375 -0.71875 0.171875q-0.390625 0.078125 -0.8125 0.109375q-0.421875 0.046875 -0.828125 0.046875q-0.734375 0 -1.359375 -0.203125q-0.609375 -0.203125 -1.0625 -0.625q-0.4375 -0.4375 -0.6875 -1.109375q-0.25 -0.6875 -0.25 -1.640625l0 -4.84375l-2.40625 0l0 -1.625l2.40625 0l0 -2.390626l2.1875 0zm6.429962 7.234376q0 -1.0625 0.3125 -1.984375q0.3125 -0.921875 0.890625 -1.59375q0.59375 -0.6875 1.4375 -1.0625q0.859375 -0.375 1.921875 -0.375q1.09375 0 1.9375 0.375q0.859375 0.375 1.4375 1.0625q0.59375 0.671875 0.90625 1.59375q0.3125 0.921875 0.3125 1.984375l0 0.1875q0 1.078125 -0.3125 2.0q-0.3125 0.921875 -0.90625 1.59375q-0.578125 0.65625 -1.4375 1.046875q-0.84375 0.375 -1.90625 0.375q-1.09375 0 -1.953125 -0.375q-0.84375 -0.390625 -1.4375 -1.046875q-0.578125 -0.671875 -0.890625 -1.59375q-0.3125 -0.921875 -0.3125 -2.0l0 -0.1875zm2.171875 0.1875q0 0.671875 0.140625 1.265625q0.140625 0.59375 0.4375 1.046875q0.296875 0.453125 0.75 0.71875q0.453125 0.25 1.09375 0.25q0.609375 0 1.046875 -0.25q0.453125 -0.265625 0.75 -0.71875q0.296875 -0.453125 0.4375 -1.046875q0.140625 -0.59375 0.140625 -1.265625l0 -0.1875q0 -0.65625 -0.140625 -1.25q-0.140625 -0.59375 -0.4375 -1.03125q-0.296875 -0.453125 -0.75 -0.71875q-0.4375 -0.265625 -1.078125 -0.265625q-0.609375 0 -1.078125 0.265625q-0.453125 0.265625 -0.75 0.71875q-0.28125 0.4375 -0.421875 1.03125q-0.140625 0.59375 -0.140625 1.25l0 0.1875zm11.383087 -5.03125l0.140625 1.375q0.53125 -0.75 1.296875 -1.140625q0.765625 -0.40625 1.6875 -0.40625q0.765625 0 1.390625 0.21875q0.625 0.21875 1.0625 0.6875q0.453125 0.453125 0.703125 1.1875q0.25 0.734375 0.25 1.78125l0 6.15625l-2.171875 0l0 -6.125q0 -0.609375 -0.140625 -1.015625q-0.140625 -0.40625 -0.40625 -0.65625q-0.25 -0.25 -0.625 -0.34375q-0.375 -0.109375 -0.84375 -0.109375q-0.734375 0 -1.265625 0.328125q-0.53125 0.3125 -0.859375 0.859375l0 7.0625l-2.1875 0l0 -9.859375l1.96875 0zm24.734863 8.3125q0.40625 0 0.78125 -0.125q0.375 -0.125 0.65625 -0.359375q0.296875 -0.234375 0.46875 -0.53125q0.171875 -0.3125 0.15625 -0.6875l2.0625 0q0.015625 0.71875 -0.328125 1.34375q-0.328125 0.625 -0.90625 1.09375q-0.5625 0.453125 -1.3125 0.734375q-0.734375 0.265625 -1.5625 0.265625q-1.140625 0 -2.0 -0.390625q-0.84375 -0.390625 -1.421875 -1.0625q-0.578125 -0.6875 -0.859375 -1.578125q-0.28125 -0.90625 -0.28125 -1.90625l0 -0.328125q0 -1.015625 0.28125 -1.90625q0.28125 -0.90625 0.859375 -1.578125q0.578125 -0.6875 1.421875 -1.078125q0.859375 -0.390625 2.0 -0.390625q0.890625 0 1.640625 0.28125q0.765625 0.265625 1.3125 0.75q0.5625 0.484375 0.859375 1.171875q0.3125 0.6875 0.296875 1.5l-2.0625 0q0.015625 -0.40625 -0.140625 -0.75q-0.140625 -0.359375 -0.421875 -0.625q-0.28125 -0.265625 -0.671875 -0.421875q-0.375 -0.15625 -0.828125 -0.15625q-0.6875 0 -1.140625 0.28125q-0.453125 0.28125 -0.734375 0.734375q-0.265625 0.4375 -0.390625 1.015625q-0.109375 0.578125 -0.109375 1.171875l0 0.328125q0 0.59375 0.109375 1.171875q0.125 0.578125 0.390625 1.03125q0.28125 0.4375 0.734375 0.71875q0.453125 0.28125 1.140625 0.28125zm6.492462 -3.46875q0 -1.0625 0.3125 -1.984375q0.3125 -0.921875 0.890625 -1.59375q0.59375 -0.6875 1.4375 -1.0625q0.859375 -0.375 1.921875 -0.375q1.09375 0 1.9375 0.375q0.859375 0.375 1.4375 1.0625q0.59375 0.671875 0.90625 1.59375q0.3125 0.921875 0.3125 1.984375l0 0.1875q0 1.078125 -0.3125 2.0q-0.3125 0.921875 -0.90625 1.59375q-0.578125 0.65625 -1.4375 1.046875q-0.84375 0.375 -1.90625 0.375q-1.09375 0 -1.953125 -0.375q-0.84375 -0.390625 -1.4375 -1.046875q-0.578125 -0.671875 -0.890625 -1.59375q-0.3125 -0.921875 -0.3125 -2.0l0 -0.1875zm2.171875 0.1875q0 0.671875 0.140625 1.265625q0.140625 0.59375 0.4375 1.046875q0.296875 0.453125 0.75 0.71875q0.453125 0.25 1.09375 0.25q0.609375 0 1.046875 -0.25q0.453125 -0.265625 0.75 -0.71875q0.296875 -0.453125 0.4375 -1.046875q0.140625 -0.59375 0.140625 -1.265625l0 -0.1875q0 -0.65625 -0.140625 -1.25q-0.140625 -0.59375 -0.4375 -1.03125q-0.296875 -0.453125 -0.75 -0.71875q-0.4375 -0.265625 -1.078125 -0.265625q-0.609375 0 -1.078125 0.265625q-0.453125 0.265625 -0.75 0.71875q-0.28125 0.4375 -0.421875 1.03125q-0.140625 0.59375 -0.140625 1.25l0 0.1875zm9.133087 -0.171875q0 -1.125 0.265625 -2.046875q0.28125 -0.9375 0.78125 -1.59375q0.515625 -0.671875 1.234375 -1.03125q0.734375 -0.359375 1.625 -0.359375q0.8125 0 1.4375 0.28125q0.625 0.265625 1.078125 0.78125l0 -5.031251l2.1875 0l0 14.000001l-1.96875 0l-0.109375 -1.0q-0.46875 0.578125 -1.125 0.890625q-0.640625 0.296875 -1.515625 0.296875q-0.890625 0 -1.609375 -0.375q-0.71875 -0.390625 -1.234375 -1.046875q-0.5 -0.671875 -0.78125 -1.578125q-0.265625 -0.921875 -0.265625 -2.0l0 -0.1875zm2.171875 0.1875q0 0.671875 0.125 1.25q0.125 0.578125 0.40625 1.015625q0.28125 0.4375 0.703125 0.6875q0.4375 0.25 1.046875 0.25q0.75 0 1.21875 -0.3125q0.46875 -0.328125 0.75 -0.875l0 -4.28125q-0.28125 -0.53125 -0.765625 -0.84375q-0.46875 -0.328125 -1.1875 -0.328125q-0.609375 0 -1.046875 0.25q-0.421875 0.25 -0.703125 0.703125q-0.28125 0.453125 -0.421875 1.046875q-0.125 0.578125 -0.125 1.25l0 0.1875zm13.898682 5.0q-1.09375 0 -2.0 -0.359375q-0.890625 -0.375 -1.53125 -1.015625q-0.640625 -0.640625 -1.0 -1.5q-0.359375 -0.875 -0.359375 -1.890625l0 -0.375q0 -1.171875 0.375 -2.109375q0.390625 -0.9375 1.015625 -1.59375q0.640625 -0.671875 1.46875 -1.015625q0.84375 -0.359375 1.78125 -0.359375q1.078125 0 1.890625 0.359375q0.828125 0.359375 1.375 1.015625q0.546875 0.640625 0.828125 1.53125q0.28125 0.890625 0.28125 1.953125l0 0.921875l-6.828125 0q0.0625 0.578125 0.28125 1.078125q0.234375 0.484375 0.59375 0.84375q0.375 0.359375 0.859375 0.5625q0.5 0.203125 1.09375 0.203125q0.828125 0 1.53125 -0.328125q0.703125 -0.328125 1.140625 -0.890625l1.171875 1.109375q-0.234375 0.34375 -0.609375 0.6875q-0.375 0.328125 -0.875 0.59375q-0.5 0.25 -1.125 0.40625q-0.625 0.171875 -1.359375 0.171875zm-0.265625 -8.46875q-0.453125 0 -0.84375 0.171875q-0.390625 0.15625 -0.703125 0.46875q-0.3125 0.3125 -0.53125 0.765625q-0.203125 0.453125 -0.296875 1.03125l4.625 0l0 -0.171875q-0.03125 -0.4375 -0.171875 -0.84375q-0.140625 -0.40625 -0.421875 -0.71875q-0.265625 -0.3125 -0.6875 -0.5q-0.40625 -0.203125 -0.96875 -0.203125zm21.56305 2.40625l-3.5 -0.859375l0.5625 -1.796875l3.359375 1.46875l-0.296875 -3.890625l1.875 0l-0.3125 3.9375l3.328125 -1.421875l0.5625 1.8125l-3.546875 0.828125l2.375 2.953125l-1.53125 1.109375l-1.90625 -3.359375l-1.890625 3.265625l-1.546875 -1.0625l2.46875 -2.984375zm10.398682 7.015625l-1.984375 0l5.25 -14.406251l1.984375 0l-5.25 14.406251z" fill-rule="nonzero"/><path fill="#ffffff" d="m565.48926 22.082071q0 1.3125 -0.21875 2.453125q-0.203125 1.140625 -0.5625 2.109375q-0.34375 0.96875 -0.8125 1.765625q-0.46875 0.8125 -0.984375 1.421875q-0.515625 0.625 -1.046875 1.046875q-0.515625 0.4375 -0.96875 0.671875l-0.4375 -1.21875q0.515625 -0.390625 1.046875 -1.09375q0.53125 -0.6875 0.953125 -1.703125q0.421875 -1.015625 0.6875 -2.359375q0.28125 -1.359375 0.28125 -3.078125l0 -0.171875q0 -1.71875 -0.28125 -3.0625q-0.28125 -1.359375 -0.71875 -2.375q-0.4375 -1.031251 -0.96875 -1.718751q-0.515625 -0.6875 -1.0 -1.078125l0.4375 -1.21875q0.453125 0.234375 0.96875 0.65625q0.53125 0.421875 1.046875 1.046875q0.515625 0.625 0.984375 1.4375q0.46875 0.79687595 0.8125 1.781251q0.359375 0.96875 0.5625 2.109375q0.21875 1.140625 0.21875 2.4375l0 0.140625zm11.195557 0q0 1.3125 -0.21875 2.453125q-0.203125 1.140625 -0.5625 2.109375q-0.34375 0.96875 -0.8125 1.765625q-0.46875 0.8125 -0.984375 1.421875q-0.515625 0.625 -1.046875 1.046875q-0.515625 0.4375 -0.96875 0.671875l-0.4375 -1.21875q0.515625 -0.390625 1.046875 -1.09375q0.53125 -0.6875 0.953125 -1.703125q0.421875 -1.015625 0.6875 -2.359375q0.28125 -1.359375 0.28125 -3.078125l0 -0.171875q0 -1.71875 -0.28125 -3.0625q-0.28125 -1.359375 -0.71875 -2.375q-0.4375 -1.031251 -0.96875 -1.718751q-0.515625 -0.6875 -1.0 -1.078125l0.4375 -1.21875q0.453125 0.234375 0.96875 0.65625q0.53125 0.421875 1.046875 1.046875q0.515625 0.625 0.984375 1.4375q0.46875 0.79687595 0.8125 1.781251q0.359375 0.96875 0.5625 2.109375q0.21875 1.140625 0.21875 2.4375l0 0.140625zm23.234924 8.53125q-0.609375 0 -1.109375 -0.1875q-0.484375 -0.171875 -0.875 -0.484375q-0.375 -0.3125 -0.65625 -0.734375q-0.28125 -0.421875 -0.46875 -0.890625q-0.1875 -0.46875 -0.28125 -0.96875q-0.078125 -0.5 -0.078125 -0.984375l0 -1.484375q0 -1.265625 -0.59375 -1.8125q-0.59375 -0.5625 -1.8125 -0.5625l0 -1.609375q1.21875 0 1.8125 -0.546875q0.59375 -0.5625 0.59375 -1.84375l0 -1.484375q0 -0.46875 0.078125 -0.96875q0.078125 -0.50000095 0.25 -0.96875095q0.171875 -0.484375 0.4375 -0.890625q0.28125 -0.421875 0.65625 -0.734375q0.390625 -0.3125 0.890625 -0.484375q0.515625 -0.1875 1.15625 -0.1875l0.234375 1.265625q-0.59375 -0.015625 -0.9375 0.265625q-0.328125 0.265625 -0.484375 0.703125q-0.15625 0.421875 -0.1875 0.953125q-0.03125 0.53125095 -0.03125 1.046876l0 1.484375q0 1.078125 -0.53125 1.921875q-0.515625 0.84375 -1.609375 1.28125q1.109375 0.4375 1.625 1.265625q0.515625 0.828125 0.515625 1.90625l0 1.484375q0 0.515625 0.0625 1.046875q0.078125 0.546875 0.265625 0.96875q0.1875 0.421875 0.5 0.6875q0.3125 0.28125 0.8125 0.265625l-0.234375 1.28125z" fill-rule="nonzero"/><path fill="#999999" d="m63.15625 45.597694l-2.078125 0l-0.6875 3.734375l-1.515625 0l0.703125 -3.734375l-2.109375 0l0 -1.4375l2.375 0l0.53125 -2.859375l-2.234375 0l0 -1.4375l2.515625 0l0.703125 -3.796875l1.5 0l-0.703125 3.796875l2.0625 0l0.71875 -3.796875l1.515625 0l-0.703125 3.796875l1.875 0l0 1.4375l-2.15625 0l-0.53125 2.859375l2.0 0l0 1.4375l-2.265625 0l-0.703125 3.734375l-1.515625 0l0.703125 -3.734375zm-1.796875 -1.4375l2.0625 0l0.53125 -2.859375l-2.078125 0l-0.515625 2.859375zm8.726822 -4.6875l5.25 0l0 8.0625l2.921875 0l0 1.796875l-8.171875 0l0 -1.796875l3.0625 0l0 -6.25l-3.0625 0l0 -1.8125zm2.875 -2.546875q0 -0.515625 0.328125 -0.84375q0.328125 -0.328125 0.921875 -0.328125q0.59375 0 0.921875 0.328125q0.34375 0.328125 0.34375 0.84375q0 0.515625 -0.34375 0.84375q-0.328125 0.328125 -0.921875 0.328125q-0.59375 0 -0.921875 -0.328125q-0.328125 -0.328125 -0.328125 -0.84375zm10.320572 12.40625l0 -8.234375l-2.65625 0l0 -1.625l2.65625 0l0 -0.609375q0 -0.953125 0.28125 -1.6875q0.296875 -0.734375 0.828125 -1.234375q0.546875 -0.5 1.3125 -0.75q0.765625 -0.265625 1.71875 -0.265625q0.625 0 1.1875 0.109375q0.578125 0.09375 1.203125 0.21875l-0.1875 1.71875q-0.359375 -0.09375 -0.84375 -0.171875q-0.46875 -0.078125 -1.0625 -0.078125q-1.171875 0 -1.71875 0.5625q-0.53125 0.546875 -0.53125 1.578125l0 0.609375l3.65625 0l0 1.625l-3.65625 0l0 8.234375l-2.1875 0z" fill-rule="nonzero"/><path fill="#ffffff" d="m111.76666 36.066444l0.015625 8.890625q0 1.015625 -0.328125 1.859375q-0.3125 0.84375 -0.890625 1.453125q-0.578125 0.59375 -1.390625 0.921875q-0.8125 0.328125 -1.828125 0.328125q-0.984375 0 -1.78125 -0.328125q-0.796875 -0.328125 -1.375 -0.921875q-0.578125 -0.609375 -0.90625 -1.453125q-0.3125 -0.84375 -0.3125 -1.859375l0.015625 -8.890625l2.15625 0l0.015625 8.890625q0 0.609375 0.140625 1.125q0.15625 0.5 0.421875 0.875q0.28125 0.359375 0.6875 0.5625q0.40625 0.203125 0.9375 0.203125q0.546875 0 0.96875 -0.203125q0.421875 -0.203125 0.703125 -0.5625q0.28125 -0.375 0.421875 -0.875q0.15625 -0.515625 0.15625 -1.125l0.015625 -8.890625l2.15625 0zm11.148697 13.265625l-2.203125 0l-4.3125 -9.125l-0.015625 9.125l-2.21875 0l0 -13.265625l2.21875 0l4.296875 9.109375l0.015625 -9.109375l2.21875 0l0 13.265625zm2.914322 -13.265625l7.875 0l0 1.8125l-2.859375 0l0 9.65625l2.859375 0l0 1.796875l-7.875 0l0 -1.796875l2.796875 0l0 -9.65625l-2.796875 0l0 -1.8125zm20.289322 1.8125l-4.078125 0l0 11.453125l-2.171875 0l0 -11.453125l-4.046875 0l0 -1.8125l10.296875 0l0 1.8125zm6.054947 4.53125l2.765625 -6.34375l2.4375 0l-4.140625 8.5l-0.015625 4.765625l-2.125 0l-0.015625 -4.8125l-4.109375 -8.453125l2.4375 0l2.765625 6.34375zm15.320572 8.640625l-8.375 0l0 -1.71875l8.375 0l0 1.71875zm10.586197 -7.671875l-5.453125 0l0 4.171875l6.390625 0l0 1.78125l-8.59375 0l0 -13.265625l8.53125 0l0 1.8125l-6.328125 0l0 3.734375l5.453125 0l0 1.765625zm3.320572 5.953125l0 -13.265625l3.234375 0q1.375 0.015625 2.453125 0.46875q1.09375 0.4375 1.859375 1.25q0.765625 0.8125 1.171875 1.9375q0.40625 1.125 0.421875 2.484375l0 1.0q-0.015625 1.375 -0.421875 2.5q-0.40625 1.125 -1.171875 1.9375q-0.75 0.796875 -1.828125 1.25q-1.078125 0.4375 -2.40625 0.4375l-3.3125 0zm2.21875 -11.5l0 9.734375l1.09375 0q0.890625 0 1.5625 -0.3125q0.6875 -0.3125 1.125 -0.875q0.453125 -0.578125 0.671875 -1.375q0.234375 -0.8125 0.234375 -1.796875l0 -1.015625q0 -0.953125 -0.234375 -1.75q-0.21875 -0.796875 -0.671875 -1.375q-0.453125 -0.578125 -1.140625 -0.890625q-0.6875 -0.328125 -1.625 -0.34375l-1.015625 0zm9.383072 -1.765625l7.875 0l0 1.8125l-2.859375 0l0 9.65625l2.859375 0l0 1.796875l-7.875 0l0 -1.796875l2.796875 0l0 -9.65625l-2.796875 0l0 -1.8125zm20.289322 1.8125l-4.078125 0l0 11.453125l-2.171875 0l0 -11.453125l-4.046875 0l0 -1.8125l10.296875 0l0 1.8125zm10.789322 5.671875q0 1.1875 -0.296875 2.265625q-0.296875 1.078125 -0.90625 1.90625q-0.59375 0.8125 -1.484375 1.3125q-0.890625 0.484375 -2.09375 0.484375q-1.203125 0 -2.09375 -0.484375q-0.875 -0.5 -1.46875 -1.328125q-0.578125 -0.828125 -0.875 -1.890625q-0.296875 -1.078125 -0.296875 -2.265625l0 -1.6875q0 -0.78125 0.125 -1.53125q0.140625 -0.75 0.390625 -1.40625q0.265625 -0.65625 0.65625 -1.21875q0.390625 -0.5625 0.90625 -0.953125q0.53125 -0.40625 1.1875 -0.640625q0.65625 -0.234375 1.453125 -0.234375q1.203125 0 2.09375 0.5q0.90625 0.484375 1.5 1.3125q0.609375 0.828125 0.90625 1.921875q0.296875 1.078125 0.296875 2.25l0 1.6875zm-2.1875 -1.703125q-0.015625 -0.75 -0.140625 -1.484375q-0.125 -0.734375 -0.4375 -1.3125q-0.296875 -0.59375 -0.796875 -0.953125q-0.484375 -0.359375 -1.234375 -0.359375q-0.734375 0 -1.234375 0.359375q-0.484375 0.359375 -0.765625 0.953125q-0.28125 0.578125 -0.40625 1.3125q-0.109375 0.734375 -0.109375 1.484375l0 1.703125q0 0.75 0.109375 1.484375q0.125 0.734375 0.40625 1.328125q0.296875 0.578125 0.78125 0.953125q0.484375 0.359375 1.234375 0.359375q0.734375 0 1.234375 -0.359375q0.5 -0.375 0.796875 -0.953125q0.296875 -0.578125 0.421875 -1.3125q0.125 -0.75 0.140625 -1.5l0 -1.703125zm8.836197 2.3125l-2.21875 0l0 5.171875l-2.1875 0l0 -13.265625l4.1875 0q1.03125 0.015625 1.890625 0.265625q0.859375 0.25 1.484375 0.75q0.625 0.484375 0.96875 1.234375q0.359375 0.75 0.359375 1.75q0 0.671875 -0.1875 1.234375q-0.171875 0.546875 -0.5 1.0q-0.3125 0.4375 -0.765625 0.78125q-0.4375 0.328125 -0.96875 0.5625l2.796875 5.578125l0 0.109375l-2.328125 0l-2.53125 -5.171875zm-2.21875 -1.765625l2.015625 0q0.546875 0 1.0 -0.15625q0.453125 -0.15625 0.78125 -0.4375q0.34375 -0.296875 0.515625 -0.703125q0.1875 -0.421875 0.1875 -0.953125q0 -0.5625 -0.171875 -0.984375q-0.171875 -0.4375 -0.5 -0.71875q-0.3125 -0.296875 -0.78125 -0.4375q-0.46875 -0.15625 -1.046875 -0.171875l-2.0 0l0 4.5625z" fill-rule="nonzero"/><path fill="#ffffff" d="m114.984375 58.066444l0.015625 8.890625q0 1.015625 -0.328125 1.859375q-0.3125 0.84375 -0.890625 1.453125q-0.578125 0.59375 -1.390625 0.921875q-0.8125 0.328125 -1.828125 0.328125q-0.984375 0 -1.78125 -0.328125q-0.796875 -0.328125 -1.375 -0.921875q-0.578125 -0.609375 -0.90625 -1.453125q-0.3125 -0.84375 -0.3125 -1.859375l0.015625 -8.890625l2.15625 0l0.015625 8.890625q0 0.609375 0.140625 1.125q0.15625 0.5 0.421875 0.875q0.28125 0.359375 0.6875 0.5625q0.40625 0.203125 0.9375 0.203125q0.546875 0 0.96875 -0.203125q0.421875 -0.203125 0.703125 -0.5625q0.28125 -0.375 0.421875 -0.875q0.15625 -0.515625 0.15625 -1.125l0.015625 -8.890625l2.15625 0zm4.586197 3.40625l0.140625 1.375q0.53125 -0.75 1.296875 -1.140625q0.765625 -0.40625 1.6875 -0.40625q0.765625 0 1.390625 0.21875q0.625 0.21875 1.0625 0.6875q0.453125 0.453125 0.703125 1.1875q0.25 0.734375 0.25 1.78125l0 6.15625l-2.171875 0l0 -6.125q0 -0.609375 -0.140625 -1.015625q-0.140625 -0.40625 -0.40625 -0.65625q-0.25 -0.25 -0.625 -0.34375q-0.375 -0.109375 -0.84375 -0.109375q-0.734375 0 -1.265625 0.328125q-0.53125 0.3125 -0.859375 0.859375l0 7.0625l-2.1875 0l0 -9.859375l1.96875 0zm9.711197 0l5.25 0l0 8.0625l2.921875 0l0 1.796875l-8.171875 0l0 -1.796875l3.0625 0l0 -6.25l-3.0625 0l0 -1.8125zm2.875 -2.546875q0 -0.515625 0.328125 -0.84375q0.328125 -0.328125 0.921875 -0.328125q0.59375 0 0.921875 0.328125q0.34375 0.328125 0.34375 0.84375q0 0.515625 -0.34375 0.84375q-0.328125 0.328125 -0.921875 0.328125q-0.59375 0 -0.921875 -0.328125q-0.328125 -0.328125 -0.328125 -0.84375zm12.211197 0.15625l0 2.390625l3.71875 0l0 1.625l-3.71875 0l0 4.734375q0 0.546875 0.125 0.921875q0.140625 0.359375 0.375 0.578125q0.234375 0.21875 0.546875 0.3125q0.328125 0.078125 0.703125 0.078125q0.28125 0 0.578125 -0.03125q0.3125 -0.03125 0.59375 -0.078125q0.296875 -0.046875 0.53125 -0.09375q0.25 -0.046875 0.40625 -0.09375l0.25 1.5q-0.234375 0.140625 -0.578125 0.265625q-0.328125 0.109375 -0.71875 0.171875q-0.390625 0.078125 -0.8125 0.109375q-0.421875 0.046875 -0.828125 0.046875q-0.734375 0 -1.359375 -0.203125q-0.609375 -0.203125 -1.0625 -0.625q-0.4375 -0.4375 -0.6875 -1.109375q-0.25 -0.6875 -0.25 -1.640625l0 -4.84375l-2.40625 0l0 -1.625l2.40625 0l0 -2.390625l2.1875 0zm10.726822 8.3125l0.375 1.171875l2.78125 -7.09375l2.40625 0l-4.984375 11.359375q-0.171875 0.375 -0.4375 0.796875q-0.265625 0.4375 -0.65625 0.8125q-0.375 0.375 -0.921875 0.625q-0.53125 0.25 -1.25 0.25q-0.296875 0 -0.609375 -0.0625q-0.296875 -0.046875 -0.546875 -0.109375l0.3125 -1.6875q0.0625 0 0.171875 0q0.109375 0 0.234375 0.015625q0.125 0.015625 0.21875 0.015625q0.109375 0 0.171875 0q0.3125 0 0.5625 -0.1875q0.25 -0.1875 0.4375 -0.4375q0.203125 -0.234375 0.328125 -0.46875q0.125 -0.21875 0.171875 -0.3125l0.65625 -1.21875l-4.203125 -9.390625l2.40625 0l2.375 5.921875zm15.008072 -2.015625l-5.453125 0l0 4.171875l6.390625 0l0 1.78125l-8.59375 0l0 -13.265625l8.53125 0l0 1.8125l-6.328125 0l0 3.734375l5.453125 0l0 1.765625zm3.195572 0.953125q0 -1.125 0.265625 -2.046875q0.28125 -0.9375 0.78125 -1.59375q0.515625 -0.671875 1.234375 -1.03125q0.734375 -0.359375 1.625 -0.359375q0.8125 0 1.4375 0.28125q0.625 0.265625 1.078125 0.78125l0 -5.03125l2.1875 0l0 14.0l-1.96875 0l-0.109375 -1.0q-0.46875 0.578125 -1.125 0.890625q-0.640625 0.296875 -1.515625 0.296875q-0.890625 0 -1.609375 -0.375q-0.71875 -0.390625 -1.234375 -1.046875q-0.5 -0.671875 -0.78125 -1.578125q-0.265625 -0.921875 -0.265625 -2.0l0 -0.1875zm2.171875 0.1875q0 0.671875 0.125 1.25q0.125 0.578125 0.40625 1.015625q0.28125 0.4375 0.703125 0.6875q0.4375 0.25 1.046875 0.25q0.75 0 1.21875 -0.3125q0.46875 -0.328125 0.75 -0.875l0 -4.28125q-0.28125 -0.53125 -0.765625 -0.84375q-0.46875 -0.328125 -1.1875 -0.328125q-0.609375 0 -1.046875 0.25q-0.421875 0.25 -0.703125 0.703125q-0.28125 0.453125 -0.421875 1.046875q-0.125 0.578125 -0.125 1.25l0 0.1875zm9.789322 -5.046875l5.25 0l0 8.0625l2.921875 0l0 1.796875l-8.171875 0l0 -1.796875l3.0625 0l0 -6.25l-3.0625 0l0 -1.8125zm2.875 -2.546875q0 -0.515625 0.328125 -0.84375q0.328125 -0.328125 0.921875 -0.328125q0.59375 0 0.921875 0.328125q0.34375 0.328125 0.34375 0.84375q0 0.515625 -0.34375 0.84375q-0.328125 0.328125 -0.921875 0.328125q-0.59375 0 -0.921875 -0.328125q-0.328125 -0.328125 -0.328125 -0.84375zm12.211197 0.15625l0 2.390625l3.71875 0l0 1.625l-3.71875 0l0 4.734375q0 0.546875 0.125 0.921875q0.140625 0.359375 0.375 0.578125q0.234375 0.21875 0.546875 0.3125q0.328125 0.078125 0.703125 0.078125q0.28125 0 0.578125 -0.03125q0.3125 -0.03125 0.59375 -0.078125q0.296875 -0.046875 0.53125 -0.09375q0.25 -0.046875 0.40625 -0.09375l0.25 1.5q-0.234375 0.140625 -0.578125 0.265625q-0.328125 0.109375 -0.71875 0.171875q-0.390625 0.078125 -0.8125 0.109375q-0.421875 0.046875 -0.828125 0.046875q-0.734375 0 -1.359375 -0.203125q-0.609375 -0.203125 -1.0625 -0.625q-0.4375 -0.4375 -0.6875 -1.109375q-0.25 -0.6875 -0.25 -1.640625l0 -4.84375l-2.40625 0l0 -1.625l2.40625 0l0 -2.390625l2.1875 0zm6.429947 7.234375q0 -1.0625 0.3125 -1.984375q0.3125 -0.921875 0.890625 -1.59375q0.59375 -0.6875 1.4375 -1.0625q0.859375 -0.375 1.921875 -0.375q1.09375 0 1.9375 0.375q0.859375 0.375 1.4375 1.0625q0.59375 0.671875 0.90625 1.59375q0.3125 0.921875 0.3125 1.984375l0 0.1875q0 1.078125 -0.3125 2.0q-0.3125 0.921875 -0.90625 1.59375q-0.578125 0.65625 -1.4375 1.046875q-0.84375 0.375 -1.90625 0.375q-1.09375 0 -1.953125 -0.375q-0.84375 -0.390625 -1.4375 -1.046875q-0.578125 -0.671875 -0.890625 -1.59375q-0.3125 -0.921875 -0.3125 -2.0l0 -0.1875zm2.171875 0.1875q0 0.671875 0.140625 1.265625q0.140625 0.59375 0.4375 1.046875q0.296875 0.453125 0.75 0.71875q0.453125 0.25 1.09375 0.25q0.609375 0 1.046875 -0.25q0.453125 -0.265625 0.75 -0.71875q0.296875 -0.453125 0.4375 -1.046875q0.140625 -0.59375 0.140625 -1.265625l0 -0.1875q0 -0.65625 -0.140625 -1.25q-0.140625 -0.59375 -0.4375 -1.03125q-0.296875 -0.453125 -0.75 -0.71875q-0.4375 -0.265625 -1.078125 -0.265625q-0.609375 0 -1.078125 0.265625q-0.453125 0.265625 -0.75 0.71875q-0.28125 0.4375 -0.421875 1.03125q-0.140625 0.59375 -0.140625 1.25l0 0.1875zm16.195572 -5.203125q0.25 0 0.515625 0.015625q0.265625 0.015625 0.5 0.0625q0.25 0.03125 0.453125 0.078125q0.203125 0.03125 0.34375 0.078125l-0.3125 2.140625q-1.0 -0.21875 -1.984375 -0.21875q-1.09375 0 -1.765625 0.453125q-0.65625 0.453125 -0.984375 1.265625l0 6.15625l-2.171875 0l0 -9.859375l2.03125 0l0.109375 1.546875q0.59375 -0.8125 1.421875 -1.265625q0.828125 -0.453125 1.84375 -0.453125zm7.148697 8.734375q0 -0.328125 0.09375 -0.609375q0.109375 -0.28125 0.3125 -0.484375q0.203125 -0.203125 0.5 -0.3125q0.296875 -0.125 0.671875 -0.125q0.390625 0 0.6875 0.125q0.296875 0.109375 0.5 0.3125q0.203125 0.203125 0.296875 0.484375q0.109375 0.28125 0.109375 0.609375q0 0.3125 -0.109375 0.578125q-0.09375 0.265625 -0.296875 0.46875q-0.203125 0.203125 -0.5 0.3125q-0.296875 0.125 -0.6875 0.125q-0.375 0 -0.671875 -0.125q-0.296875 -0.109375 -0.5 -0.3125q-0.203125 -0.203125 -0.3125 -0.46875q-0.09375 -0.265625 -0.09375 -0.578125z" fill-rule="nonzero"/><path fill="#93c47d" d="m248.47186 65.378944l-5.453125 0l0 4.171875l6.390625 0l0 1.78125l-8.59375 0l0 -13.265625l8.53125 0l0 1.8125l-6.328125 0l0 3.734375l5.453125 0l0 1.765625zm3.195572 0.953125q0 -1.125 0.265625 -2.046875q0.28125 -0.9375 0.78125 -1.59375q0.515625 -0.671875 1.234375 -1.03125q0.734375 -0.359375 1.625 -0.359375q0.81248474 0 1.4374847 0.28125q0.625 0.265625 1.078125 0.78125l0 -5.03125l2.1875 0l0 14.0l-1.96875 0l-0.109375 -1.0q-0.46875 0.578125 -1.125 0.890625q-0.640625 0.296875 -1.5156097 0.296875q-0.890625 0 -1.609375 -0.375q-0.71875 -0.390625 -1.234375 -1.046875q-0.5 -0.671875 -0.78125 -1.578125q-0.265625 -0.921875 -0.265625 -2.0l0 -0.1875zm2.171875 0.1875q0 0.671875 0.125 1.25q0.125 0.578125 0.40625 1.015625q0.28125 0.4375 0.703125 0.6875q0.4375 0.25 1.0468597 0.25q0.75 0 1.21875 -0.3125q0.46875 -0.328125 0.75 -0.875l0 -4.28125q-0.28125 -0.53125 -0.765625 -0.84375q-0.46875 -0.328125 -1.1875 -0.328125q-0.60935974 0 -1.0468597 0.25q-0.421875 0.25 -0.703125 0.703125q-0.28125 0.453125 -0.421875 1.046875q-0.125 0.578125 -0.125 1.25l0 0.1875zm9.789322 -5.046875l5.25 0l0 8.0625l2.921875 0l0 1.796875l-8.171875 0l0 -1.796875l3.0625 0l0 -6.25l-3.0625 0l0 -1.8125zm2.875 -2.546875q0 -0.515625 0.328125 -0.84375q0.328125 -0.328125 0.921875 -0.328125q0.59375 0 0.921875 0.328125q0.34375 0.328125 0.34375 0.84375q0 0.515625 -0.34375 0.84375q-0.328125 0.328125 -0.921875 0.328125q-0.59375 0 -0.921875 -0.328125q-0.328125 -0.328125 -0.328125 -0.84375zm12.211212 0.15625l0 2.390625l3.71875 0l0 1.625l-3.71875 0l0 4.734375q0 0.546875 0.125 0.921875q0.140625 0.359375 0.375 0.578125q0.234375 0.21875 0.546875 0.3125q0.328125 0.078125 0.703125 0.078125q0.28125 0 0.578125 -0.03125q0.3125 -0.03125 0.59375 -0.078125q0.296875 -0.046875 0.53125 -0.09375q0.25 -0.046875 0.40625 -0.09375l0.25 1.5q-0.234375 0.140625 -0.578125 0.265625q-0.328125 0.109375 -0.71875 0.171875q-0.390625 0.078125 -0.8125 0.109375q-0.421875 0.046875 -0.828125 0.046875q-0.734375 0 -1.359375 -0.203125q-0.609375 -0.203125 -1.0625 -0.625q-0.4375 -0.4375 -0.6875 -1.109375q-0.25 -0.6875 -0.25 -1.640625l0 -4.84375l-2.40625 0l0 -1.625l2.40625 0l0 -2.390625l2.1875 0zm6.4299316 7.234375q0 -1.0625 0.3125 -1.984375q0.3125 -0.921875 0.890625 -1.59375q0.59375 -0.6875 1.4375 -1.0625q0.859375 -0.375 1.921875 -0.375q1.09375 0 1.9375 0.375q0.859375 0.375 1.4375 1.0625q0.59375 0.671875 0.90625 1.59375q0.3125 0.921875 0.3125 1.984375l0 0.1875q0 1.078125 -0.3125 2.0q-0.3125 0.921875 -0.90625 1.59375q-0.578125 0.65625 -1.4375 1.046875q-0.84375 0.375 -1.90625 0.375q-1.09375 0 -1.953125 -0.375q-0.84375 -0.390625 -1.4375 -1.046875q-0.578125 -0.671875 -0.890625 -1.59375q-0.3125 -0.921875 -0.3125 -2.0l0 -0.1875zm2.171875 0.1875q0 0.671875 0.140625 1.265625q0.140625 0.59375 0.4375 1.046875q0.296875 0.453125 0.75 0.71875q0.453125 0.25 1.09375 0.25q0.609375 0 1.046875 -0.25q0.453125 -0.265625 0.75 -0.71875q0.296875 -0.453125 0.4375 -1.046875q0.140625 -0.59375 0.140625 -1.265625l0 -0.1875q0 -0.65625 -0.140625 -1.25q-0.140625 -0.59375 -0.4375 -1.03125q-0.296875 -0.453125 -0.75 -0.71875q-0.4375 -0.265625 -1.078125 -0.265625q-0.609375 0 -1.078125 0.265625q-0.453125 0.265625 -0.75 0.71875q-0.28125 0.4375 -0.421875 1.03125q-0.140625 0.59375 -0.140625 1.25l0 0.1875zm16.195557 -5.203125q0.25 0 0.515625 0.015625q0.265625 0.015625 0.5 0.0625q0.25 0.03125 0.453125 0.078125q0.203125 0.03125 0.34375 0.078125l-0.3125 2.140625q-1.0 -0.21875 -1.984375 -0.21875q-1.09375 0 -1.765625 0.453125q-0.65625 0.453125 -0.984375 1.265625l0 6.15625l-2.171875 0l0 -9.859375l2.03125 0l0.109375 1.546875q0.59375 -0.8125 1.421875 -1.265625q0.828125 -0.453125 1.84375 -0.453125zm10.789337 6.953125l-4.140625 0l-0.90625 3.078125l-2.265625 0l4.3125 -13.265625l1.921875 0l4.234375 13.265625l-2.25 0l-0.90625 -3.078125zm-3.578125 -1.875l3.03125 0l-1.5 -5.1875l-1.53125 5.1875zm17.023712 0.125q0 1.078125 -0.25 2.0q-0.25 0.921875 -0.75 1.59375q-0.484375 0.65625 -1.203125 1.046875q-0.71875 0.375 -1.640625 0.375q-0.84375 0 -1.484375 -0.265625q-0.640625 -0.28125 -1.109375 -0.796875l0 4.671875l-2.171875 0l0 -13.65625l2.0 0l0.09375 1.0q0.46875 -0.5625 1.125 -0.859375q0.65625 -0.3125 1.515625 -0.3125q0.9375 0 1.65625 0.359375q0.734375 0.359375 1.21875 1.03125q0.5 0.65625 0.75 1.578125q0.25 0.921875 0.25 2.046875l0 0.1875zm-2.171875 -0.1875q0 -0.671875 -0.140625 -1.25q-0.125 -0.59375 -0.421875 -1.03125q-0.28125 -0.453125 -0.71875 -0.703125q-0.421875 -0.25 -1.03125 -0.25q-0.734375 0 -1.203125 0.3125q-0.46875 0.296875 -0.75 0.828125l0 4.40625q0.28125 0.5 0.75 0.828125q0.46875 0.3125 1.21875 0.3125q0.609375 0 1.046875 -0.265625q0.4375 -0.265625 0.703125 -0.703125q0.28125 -0.453125 0.40625 -1.03125q0.140625 -0.59375 0.140625 -1.265625l0 -0.1875zm13.367432 0.1875q0 1.078125 -0.25 2.0q-0.25 0.921875 -0.75 1.59375q-0.484375 0.65625 -1.203125 1.046875q-0.71875 0.375 -1.640625 0.375q-0.84375 0 -1.484375 -0.265625q-0.640625 -0.28125 -1.109375 -0.796875l0 4.671875l-2.171875 0l0 -13.65625l2.0 0l0.09375 1.0q0.46875 -0.5625 1.125 -0.859375q0.65625 -0.3125 1.515625 -0.3125q0.9375 0 1.65625 0.359375q0.734375 0.359375 1.21875 1.03125q0.5 0.65625 0.75 1.578125q0.25 0.921875 0.25 2.046875l0 0.1875zm-2.171875 -0.1875q0 -0.671875 -0.140625 -1.25q-0.125 -0.59375 -0.421875 -1.03125q-0.28125 -0.453125 -0.71875 -0.703125q-0.421875 -0.25 -1.03125 -0.25q-0.734375 0 -1.203125 0.3125q-0.46875 0.296875 -0.75 0.828125l0 4.40625q0.28125 0.5 0.75 0.828125q0.46875 0.3125 1.21875 0.3125q0.609375 0 1.046875 -0.265625q0.4375 -0.265625 0.703125 -0.703125q0.28125 -0.453125 0.40625 -1.03125q0.140625 -0.59375 0.140625 -1.265625l0 -0.1875zm5.1486816 -8.984375l5.328125 0l0 12.203125l3.0 0l0 1.796875l-8.328125 0l0 -1.796875l3.140625 0l0 -10.375l-3.140625 0l0 -1.828125zm11.273712 4.140625l5.25 0l0 8.0625l2.921875 0l0 1.796875l-8.171875 0l0 -1.796875l3.0625 0l0 -6.25l-3.0625 0l0 -1.8125zm2.875 -2.546875q0 -0.515625 0.328125 -0.84375q0.328125 -0.328125 0.921875 -0.328125q0.59375 0 0.921875 0.328125q0.34375 0.328125 0.34375 0.84375q0 0.515625 -0.34375 0.84375q-0.328125 0.328125 -0.921875 0.328125q-0.59375 0 -0.921875 -0.328125q-0.328125 -0.328125 -0.328125 -0.84375zm12.148712 10.859375q0.40625 0 0.78125 -0.125q0.375 -0.125 0.65625 -0.359375q0.296875 -0.234375 0.46875 -0.53125q0.171875 -0.3125 0.15625 -0.6875l2.0625 0q0.015625 0.71875 -0.328125 1.34375q-0.328125 0.625 -0.90625 1.09375q-0.5625 0.453125 -1.3125 0.734375q-0.734375 0.265625 -1.5625 0.265625q-1.140625 0 -2.0 -0.390625q-0.84375 -0.390625 -1.421875 -1.0625q-0.578125 -0.6875 -0.859375 -1.578125q-0.28125 -0.90625 -0.28125 -1.90625l0 -0.328125q0 -1.015625 0.28125 -1.90625q0.28125 -0.90625 0.859375 -1.578125q0.578125 -0.6875 1.421875 -1.078125q0.859375 -0.390625 2.0 -0.390625q0.890625 0 1.640625 0.28125q0.765625 0.265625 1.3125 0.75q0.5625 0.484375 0.859375 1.171875q0.3125 0.6875 0.296875 1.5l-2.0625 0q0.015625 -0.40625 -0.140625 -0.75q-0.140625 -0.359375 -0.421875 -0.625q-0.28125 -0.265625 -0.671875 -0.421875q-0.375 -0.15625 -0.828125 -0.15625q-0.6875 0 -1.140625 0.28125q-0.453125 0.28125 -0.734375 0.734375q-0.265625 0.4375 -0.390625 1.015625q-0.109375 0.578125 -0.109375 1.171875l0 0.328125q0 0.59375 0.109375 1.171875q0.125 0.578125 0.390625 1.03125q0.28125 0.4375 0.734375 0.71875q0.453125 0.28125 1.140625 0.28125zm13.179932 1.546875q-0.09375 -0.1875 -0.15625 -0.421875q-0.0625 -0.25 -0.109375 -0.53125q-0.21875 0.234375 -0.515625 0.4375q-0.28125 0.203125 -0.640625 0.359375q-0.34375 0.15625 -0.75 0.25q-0.40625 0.09375 -0.859375 0.09375q-0.796875 0 -1.4375 -0.21875q-0.625 -0.234375 -1.078125 -0.625q-0.4375 -0.40625 -0.6875 -0.9375q-0.25 -0.53125 -0.25 -1.171875q0 -1.578125 1.171875 -2.40625q1.1875 -0.84375 3.390625 -0.84375l1.59375 0l0 -0.65625q0 -0.78125 -0.53125 -1.234375q-0.515625 -0.46875 -1.484375 -0.46875q-0.4375 0 -0.765625 0.109375q-0.328125 0.109375 -0.546875 0.296875q-0.21875 0.171875 -0.328125 0.421875q-0.109375 0.234375 -0.109375 0.53125l-2.171875 0q0 -0.578125 0.265625 -1.125q0.265625 -0.546875 0.78125 -0.96875q0.515625 -0.421875 1.265625 -0.671875q0.765625 -0.25 1.71875 -0.25q0.875 0 1.625 0.21875q0.75 0.203125 1.296875 0.625q0.546875 0.421875 0.859375 1.0625q0.3125 0.625 0.3125 1.46875l0 4.390625q0 0.65625 0.09375 1.1875q0.09375 0.53125 0.265625 0.921875l0 0.15625l-2.21875 0zm-2.625 -1.578125q0.421875 0 0.78125 -0.09375q0.375 -0.109375 0.671875 -0.28125q0.296875 -0.171875 0.5 -0.390625q0.21875 -0.21875 0.34375 -0.4375l0 -1.859375l-1.375 0q-1.328125 0 -1.96875 0.4375q-0.640625 0.421875 -0.640625 1.21875q0 0.296875 0.09375 0.5625q0.109375 0.25 0.3125 0.4375q0.21875 0.1875 0.53125 0.296875q0.3125 0.109375 0.75 0.109375zm11.898682 -10.671875l0 2.390625l3.71875 0l0 1.625l-3.71875 0l0 4.734375q0 0.546875 0.125 0.921875q0.140625 0.359375 0.375 0.578125q0.234375 0.21875 0.546875 0.3125q0.328125 0.078125 0.703125 0.078125q0.28125 0 0.578125 -0.03125q0.3125 -0.03125 0.59375 -0.078125q0.296875 -0.046875 0.53125 -0.09375q0.25 -0.046875 0.40625 -0.09375l0.25 1.5q-0.234375 0.140625 -0.578125 0.265625q-0.328125 0.109375 -0.71875 0.171875q-0.390625 0.078125 -0.8125 0.109375q-0.421875 0.046875 -0.828125 0.046875q-0.734375 0 -1.359375 -0.203125q-0.609375 -0.203125 -1.0625 -0.625q-0.4375 -0.4375 -0.6875 -1.109375q-0.25 -0.6875 -0.25 -1.640625l0 -4.84375l-2.40625 0l0 -1.625l2.40625 0l0 -2.390625l2.1875 0zm7.304962 2.390625l5.25 0l0 8.0625l2.921875 0l0 1.796875l-8.171875 0l0 -1.796875l3.0625 0l0 -6.25l-3.0625 0l0 -1.8125zm2.875 -2.546875q0 -0.515625 0.328125 -0.84375q0.328125 -0.328125 0.921875 -0.328125q0.59375 0 0.921875 0.328125q0.34375 0.328125 0.34375 0.84375q0 0.515625 -0.34375 0.84375q-0.328125 0.328125 -0.921875 0.328125q-0.59375 0 -0.921875 -0.328125q-0.328125 -0.328125 -0.328125 -0.84375zm7.445587 7.390625q0 -1.0625 0.3125 -1.984375q0.3125 -0.921875 0.890625 -1.59375q0.59375 -0.6875 1.4375 -1.0625q0.859375 -0.375 1.921875 -0.375q1.09375 0 1.9375 0.375q0.859375 0.375 1.4375 1.0625q0.59375 0.671875 0.90625 1.59375q0.3125 0.921875 0.3125 1.984375l0 0.1875q0 1.078125 -0.3125 2.0q-0.3125 0.921875 -0.90625 1.59375q-0.578125 0.65625 -1.4375 1.046875q-0.84375 0.375 -1.90625 0.375q-1.09375 0 -1.953125 -0.375q-0.84375 -0.390625 -1.4375 -1.046875q-0.578125 -0.671875 -0.890625 -1.59375q-0.3125 -0.921875 -0.3125 -2.0l0 -0.1875zm2.171875 0.1875q0 0.671875 0.140625 1.265625q0.140625 0.59375 0.4375 1.046875q0.296875 0.453125 0.75 0.71875q0.453125 0.25 1.09375 0.25q0.609375 0 1.046875 -0.25q0.453125 -0.265625 0.75 -0.71875q0.296875 -0.453125 0.4375 -1.046875q0.140625 -0.59375 0.140625 -1.265625l0 -0.1875q0 -0.65625 -0.140625 -1.25q-0.140625 -0.59375 -0.4375 -1.03125q-0.296875 -0.453125 -0.75 -0.71875q-0.4375 -0.265625 -1.078125 -0.265625q-0.609375 0 -1.078125 0.265625q-0.453125 0.265625 -0.75 0.71875q-0.28125 0.4375 -0.421875 1.03125q-0.140625 0.59375 -0.140625 1.25l0 0.1875zm11.383057 -5.03125l0.140625 1.375q0.53125 -0.75 1.296875 -1.140625q0.765625 -0.40625 1.6875 -0.40625q0.765625 0 1.390625 0.21875q0.625 0.21875 1.0625 0.6875q0.453125 0.453125 0.703125 1.1875q0.25 0.734375 0.25 1.78125l0 6.15625l-2.171875 0l0 -6.125q0 -0.609375 -0.140625 -1.015625q-0.140625 -0.40625 -0.40625 -0.65625q-0.25 -0.25 -0.625 -0.34375q-0.375 -0.109375 -0.84375 -0.109375q-0.734375 0 -1.265625 0.328125q-0.53125 0.3125 -0.859375 0.859375l0 7.0625l-2.1875 0l0 -9.859375l1.96875 0z" fill-rule="nonzero"/><path fill="#ffffff" d="m433.8122 70.035194q0 -0.328125 0.09375 -0.609375q0.109375 -0.28125 0.3125 -0.484375q0.203125 -0.203125 0.5 -0.3125q0.296875 -0.125 0.671875 -0.125q0.390625 0 0.6875 0.125q0.296875 0.109375 0.5 0.3125q0.203125 0.203125 0.296875 0.484375q0.109375 0.28125 0.109375 0.609375q0 0.3125 -0.109375 0.578125q-0.09375 0.265625 -0.296875 0.46875q-0.203125 0.203125 -0.5 0.3125q-0.296875 0.125 -0.6875 0.125q-0.375 0 -0.671875 -0.125q-0.296875 -0.109375 -0.5 -0.3125q-0.203125 -0.203125 -0.3125 -0.46875q-0.09375 -0.265625 -0.09375 -0.578125zm8.945557 -8.5625l5.25 0l0 8.0625l2.921875 0l0 1.796875l-8.171875 0l0 -1.796875l3.0625 0l0 -6.25l-3.0625 0l0 -1.8125zm2.875 -2.546875q0 -0.515625 0.328125 -0.84375q0.328125 -0.328125 0.921875 -0.328125q0.59375 0 0.921875 0.328125q0.34375 0.328125 0.34375 0.84375q0 0.515625 -0.34375 0.84375q-0.328125 0.328125 -0.921875 0.328125q-0.59375 0 -0.921875 -0.328125q-0.328125 -0.328125 -0.328125 -0.84375zm14.258087 9.734375q0 -0.25 -0.09375 -0.453125q-0.09375 -0.203125 -0.359375 -0.359375q-0.265625 -0.171875 -0.71875 -0.3125q-0.4375 -0.15625 -1.140625 -0.296875q-0.875 -0.171875 -1.59375 -0.421875q-0.703125 -0.265625 -1.203125 -0.625q-0.5 -0.359375 -0.78125 -0.828125q-0.265625 -0.46875 -0.265625 -1.078125q0 -0.609375 0.28125 -1.140625q0.28125 -0.546875 0.796875 -0.953125q0.53125 -0.421875 1.28125 -0.65625q0.75 -0.234375 1.6875 -0.234375q0.984375 0 1.75 0.25q0.78125 0.234375 1.3125 0.65625q0.546875 0.421875 0.828125 1.0q0.296875 0.578125 0.296875 1.234375l-2.1875 0q0 -0.296875 -0.125 -0.5625q-0.125 -0.265625 -0.390625 -0.46875q-0.25 -0.21875 -0.625 -0.34375q-0.375 -0.125 -0.859375 -0.125q-0.5 0 -0.859375 0.109375q-0.359375 0.09375 -0.59375 0.265625q-0.234375 0.171875 -0.359375 0.40625q-0.109375 0.21875 -0.109375 0.46875q0 0.25 0.078125 0.453125q0.09375 0.1875 0.328125 0.359375q0.25 0.15625 0.65625 0.296875q0.421875 0.125 1.09375 0.25q0.921875 0.15625 1.65625 0.40625q0.75 0.25 1.265625 0.609375q0.53125 0.34375 0.8125 0.84375q0.28125 0.484375 0.28125 1.140625q0 0.65625 -0.296875 1.203125q-0.296875 0.546875 -0.859375 0.9375q-0.546875 0.390625 -1.328125 0.609375q-0.78125 0.21875 -1.75 0.21875q-1.0625 0 -1.890625 -0.28125q-0.8125 -0.28125 -1.375 -0.75q-0.5625 -0.46875 -0.84375 -1.0625q-0.28125 -0.59375 -0.28125 -1.203125l2.109375 0q0.03125 0.453125 0.234375 0.78125q0.21875 0.3125 0.546875 0.515625q0.328125 0.1875 0.71875 0.28125q0.40625 0.078125 0.8125 0.078125q1.015625 0 1.53125 -0.328125q0.53125 -0.34375 0.53125 -0.890625zm7.070587 -2.40625l0 5.078125l-2.1875 0l0 -13.265625l4.4375 0q1.0 0.015625 1.84375 0.296875q0.84375 0.28125 1.453125 0.828125q0.609375 0.53125 0.953125 1.296875q0.34375 0.75 0.34375 1.703125q0 0.9375 -0.34375 1.6875q-0.34375 0.734375 -0.953125 1.265625q-0.609375 0.53125 -1.453125 0.8125q-0.84375 0.28125 -1.84375 0.296875l-2.25 0zm0 -1.765625l2.25 0q0.5625 0 1.0 -0.171875q0.4375 -0.171875 0.734375 -0.46875q0.3125 -0.296875 0.46875 -0.71875q0.171875 -0.421875 0.171875 -0.921875q0 -0.515625 -0.171875 -0.953125q-0.15625 -0.4375 -0.46875 -0.75q-0.296875 -0.3125 -0.734375 -0.484375q-0.4375 -0.171875 -1.0 -0.1875l-2.25 0l0 4.65625zm9.304932 -7.15625l5.328125 0l0 12.203125l3.0 0l0 1.796875l-8.328125 0l0 -1.796875l3.140625 0l0 -10.375l-3.140625 0l0 -1.828125zm17.086182 14.0q-0.09375 -0.1875 -0.15625 -0.421875q-0.0625 -0.25 -0.109375 -0.53125q-0.21875 0.234375 -0.515625 0.4375q-0.28125 0.203125 -0.640625 0.359375q-0.34375 0.15625 -0.75 0.25q-0.40625 0.09375 -0.859375 0.09375q-0.796875 0 -1.4375 -0.21875q-0.625 -0.234375 -1.078125 -0.625q-0.4375 -0.40625 -0.6875 -0.9375q-0.25 -0.53125 -0.25 -1.171875q0 -1.578125 1.171875 -2.40625q1.1875 -0.84375 3.390625 -0.84375l1.59375 0l0 -0.65625q0 -0.78125 -0.53125 -1.234375q-0.515625 -0.46875 -1.484375 -0.46875q-0.4375 0 -0.765625 0.109375q-0.328125 0.109375 -0.546875 0.296875q-0.21875 0.171875 -0.328125 0.421875q-0.109375 0.234375 -0.109375 0.53125l-2.171875 0q0 -0.578125 0.265625 -1.125q0.265625 -0.546875 0.78125 -0.96875q0.515625 -0.421875 1.265625 -0.671875q0.765625 -0.25 1.71875 -0.25q0.875 0 1.625 0.21875q0.75 0.203125 1.296875 0.625q0.546875 0.421875 0.859375 1.0625q0.3125 0.625 0.3125 1.46875l0 4.390625q0 0.65625 0.09375 1.1875q0.09375 0.53125 0.265625 0.921875l0 0.15625l-2.21875 0zm-2.625 -1.578125q0.421875 0 0.78125 -0.09375q0.375 -0.109375 0.671875 -0.28125q0.296875 -0.171875 0.5 -0.390625q0.21875 -0.21875 0.34375 -0.4375l0 -1.859375l-1.375 0q-1.328125 0 -1.96875 0.4375q-0.640625 0.421875 -0.640625 1.21875q0 0.296875 0.09375 0.5625q0.109375 0.25 0.3125 0.4375q0.21875 0.1875 0.53125 0.296875q0.3125 0.109375 0.75 0.109375zm11.429962 -2.359375l0.375 1.171875l2.78125 -7.09375l2.40625 0l-4.984375 11.359375q-0.171875 0.375 -0.4375 0.796875q-0.265625 0.4375 -0.65625 0.8125q-0.375 0.375 -0.921875 0.625q-0.53125 0.25 -1.25 0.25q-0.296875 0 -0.609375 -0.0625q-0.296875 -0.046875 -0.546875 -0.109375l0.3125 -1.6875q0.0625 0 0.171875 0q0.109375 0 0.234375 0.015625q0.125 0.015625 0.21875 0.015625q0.109375 0 0.171875 0q0.3125 0 0.5625 -0.1875q0.25 -0.1875 0.4375 -0.4375q0.203125 -0.234375 0.328125 -0.46875q0.125 -0.21875 0.171875 -0.3125l0.65625 -1.21875l-4.203125 -9.390625l2.40625 0l2.375 5.921875zm7.773712 -5.921875l5.25 0l0 8.0625l2.921875 0l0 1.796875l-8.171875 0l0 -1.796875l3.0625 0l0 -6.25l-3.0625 0l0 -1.8125zm2.875 -2.546875q0 -0.515625 0.328125 -0.84375q0.328125 -0.328125 0.921875 -0.328125q0.59375 0 0.921875 0.328125q0.34375 0.328125 0.34375 0.84375q0 0.515625 -0.34375 0.84375q-0.328125 0.328125 -0.921875 0.328125q-0.59375 0 -0.921875 -0.328125q-0.328125 -0.328125 -0.328125 -0.84375zm9.804932 2.546875l0.140625 1.375q0.53125 -0.75 1.296875 -1.140625q0.765625 -0.40625 1.6875 -0.40625q0.765625 0 1.390625 0.21875q0.625 0.21875 1.0625 0.6875q0.453125 0.453125 0.703125 1.1875q0.25 0.734375 0.25 1.78125l0 6.15625l-2.171875 0l0 -6.125q0 -0.609375 -0.140625 -1.015625q-0.140625 -0.40625 -0.40625 -0.65625q-0.25 -0.25 -0.625 -0.34375q-0.375 -0.109375 -0.84375 -0.109375q-0.734375 0 -1.265625 0.328125q-0.53125 0.3125 -0.859375 0.859375l0 7.0625l-2.1875 0l0 -9.859375l1.96875 0zm8.945557 4.859375q0 -1.125 0.28125 -2.046875q0.28125 -0.9375 0.796875 -1.59375q0.515625 -0.671875 1.25 -1.03125q0.734375 -0.359375 1.640625 -0.359375q0.890625 0 1.53125 0.296875q0.65625 0.296875 1.125 0.859375l0.078125 -0.984375l1.984375 0l0 9.59375q0 1.0 -0.328125 1.765625q-0.328125 0.765625 -0.921875 1.296875q-0.578125 0.53125 -1.40625 0.796875q-0.8125 0.28125 -1.796875 0.28125q-0.40625 0 -0.921875 -0.09375q-0.5 -0.078125 -1.015625 -0.28125q-0.5 -0.1875 -0.96875 -0.5q-0.453125 -0.3125 -0.78125 -0.765625l1.03125 -1.296875q0.5625 0.65625 1.203125 0.9375q0.640625 0.28125 1.328125 0.28125q0.546875 0 0.984375 -0.15625q0.453125 -0.15625 0.75 -0.453125q0.3125 -0.296875 0.484375 -0.75q0.171875 -0.4375 0.171875 -1.0l0 -0.671875q-0.46875 0.515625 -1.09375 0.796875q-0.625 0.265625 -1.453125 0.265625q-0.890625 0 -1.625 -0.375q-0.734375 -0.390625 -1.25 -1.046875q-0.515625 -0.671875 -0.796875 -1.578125q-0.28125 -0.921875 -0.28125 -2.0l0 -0.1875zm2.1875 0.1875q0 0.671875 0.140625 1.25q0.140625 0.578125 0.421875 1.015625q0.28125 0.4375 0.71875 0.6875q0.4375 0.25 1.046875 0.25q0.75 0 1.21875 -0.3125q0.484375 -0.3125 0.765625 -0.84375l0 -4.34375q-0.296875 -0.53125 -0.765625 -0.828125q-0.46875 -0.3125 -1.203125 -0.3125q-0.59375 0 -1.046875 0.25q-0.4375 0.25 -0.734375 0.703125q-0.28125 0.453125 -0.421875 1.046875q-0.140625 0.578125 -0.140625 1.25l0 0.1875zm28.9693 -1.984375l-8.390625 0l0 -1.8125l8.390625 0l0 1.8125zm0 3.859375l-8.390625 0l0 -1.8125l8.390625 0l0 1.8125z" fill-rule="nonzero"/><path fill="#f6b26b" d="m579.1046 71.33207l0 -8.234375l-2.65625 0l0 -1.625l2.65625 0l0 -0.609375q0 -0.953125 0.28125 -1.6875q0.296875 -0.734375 0.828125 -1.234375q0.546875 -0.5 1.3125 -0.75q0.765625 -0.265625 1.71875 -0.265625q0.625 0 1.1875 0.109375q0.578125 0.09375 1.203125 0.21875l-0.1875 1.71875q-0.359375 -0.09375 -0.84375 -0.171875q-0.46875 -0.078125 -1.0625 -0.078125q-1.171875 0 -1.71875 0.5625q-0.53125 0.546875 -0.53125 1.578125l0 0.609375l3.65625 0l0 1.625l-3.65625 0l0 8.234375l-2.1875 0zm15.008057 0q-0.09375 -0.1875 -0.15625 -0.421875q-0.0625 -0.25 -0.109375 -0.53125q-0.21875 0.234375 -0.515625 0.4375q-0.28125 0.203125 -0.640625 0.359375q-0.34375 0.15625 -0.75 0.25q-0.40625 0.09375 -0.859375 0.09375q-0.796875 0 -1.4375 -0.21875q-0.625 -0.234375 -1.078125 -0.625q-0.4375 -0.40625 -0.6875 -0.9375q-0.25 -0.53125 -0.25 -1.171875q0 -1.578125 1.171875 -2.40625q1.1875 -0.84375 3.390625 -0.84375l1.59375 0l0 -0.65625q0 -0.78125 -0.53125 -1.234375q-0.515625 -0.46875 -1.484375 -0.46875q-0.4375 0 -0.765625 0.109375q-0.328125 0.109375 -0.546875 0.296875q-0.21875 0.171875 -0.328125 0.421875q-0.109375 0.234375 -0.109375 0.53125l-2.171875 0q0 -0.578125 0.265625 -1.125q0.265625 -0.546875 0.78125 -0.96875q0.515625 -0.421875 1.265625 -0.671875q0.765625 -0.25 1.71875 -0.25q0.875 0 1.625 0.21875q0.75 0.203125 1.296875 0.625q0.546875 0.421875 0.859375 1.0625q0.3125 0.625 0.3125 1.46875l0 4.390625q0 0.65625 0.09375 1.1875q0.09375 0.53125 0.265625 0.921875l0 0.15625l-2.21875 0zm-2.625 -1.578125q0.421875 0 0.78125 -0.09375q0.375 -0.109375 0.671875 -0.28125q0.296875 -0.171875 0.5 -0.390625q0.21875 -0.21875 0.34375 -0.4375l0 -1.859375l-1.375 0q-1.328125 0 -1.96875 0.4375q-0.640625 0.421875 -0.640625 1.21875q0 0.296875 0.09375 0.5625q0.109375 0.25 0.3125 0.4375q0.21875 0.1875 0.53125 0.296875q0.3125 0.109375 0.75 0.109375zm7.9299316 -12.421875l5.328125 0l0 12.203125l3.0 0l0 1.796875l-8.328125 0l0 -1.796875l3.140625 0l0 -10.375l-3.140625 0l0 -1.828125zm17.211243 11.328125q0 -0.25 -0.09375 -0.453125q-0.09375 -0.203125 -0.359375 -0.359375q-0.265625 -0.171875 -0.71875 -0.3125q-0.4375 -0.15625 -1.140625 -0.296875q-0.875 -0.171875 -1.59375 -0.421875q-0.703125 -0.265625 -1.203125 -0.625q-0.5 -0.359375 -0.78125 -0.828125q-0.265625 -0.46875 -0.265625 -1.078125q0 -0.609375 0.28125 -1.140625q0.28125 -0.546875 0.796875 -0.953125q0.53125 -0.421875 1.28125 -0.65625q0.75 -0.234375 1.6875 -0.234375q0.984375 0 1.75 0.25q0.78125 0.234375 1.3125 0.65625q0.546875 0.421875 0.828125 1.0q0.296875 0.578125 0.296875 1.234375l-2.1875 0q0 -0.296875 -0.125 -0.5625q-0.125 -0.265625 -0.390625 -0.46875q-0.25 -0.21875 -0.625 -0.34375q-0.375 -0.125 -0.859375 -0.125q-0.5 0 -0.859375 0.109375q-0.359375 0.09375 -0.59375 0.265625q-0.234375 0.171875 -0.359375 0.40625q-0.109375 0.21875 -0.109375 0.46875q0 0.25 0.078125 0.453125q0.09375 0.1875 0.328125 0.359375q0.25 0.15625 0.65625 0.296875q0.421875 0.125 1.09375 0.25q0.921875 0.15625 1.65625 0.40625q0.75 0.25 1.265625 0.609375q0.53125 0.34375 0.8125 0.84375q0.28125 0.484375 0.28125 1.140625q0 0.65625 -0.296875 1.203125q-0.296875 0.546875 -0.859375 0.9375q-0.546875 0.390625 -1.328125 0.609375q-0.78125 0.21875 -1.75 0.21875q-1.0625 0 -1.890625 -0.28125q-0.8125 -0.28125 -1.375 -0.75q-0.5625 -0.46875 -0.84375 -1.0625q-0.28125 -0.59375 -0.28125 -1.203125l2.109375 0q0.03125 0.453125 0.234375 0.78125q0.21875 0.3125 0.546875 0.515625q0.328125 0.1875 0.71875 0.28125q0.40625 0.078125 0.8125 0.078125q1.015625 0 1.53125 -0.328125q0.53125 -0.34375 0.53125 -0.890625zm9.367432 2.859375q-1.09375 0 -2.0 -0.359375q-0.890625 -0.375 -1.53125 -1.015625q-0.640625 -0.640625 -1.0 -1.5q-0.359375 -0.875 -0.359375 -1.890625l0 -0.375q0 -1.171875 0.375 -2.109375q0.390625 -0.9375 1.015625 -1.59375q0.640625 -0.671875 1.46875 -1.015625q0.84375 -0.359375 1.78125 -0.359375q1.078125 0 1.890625 0.359375q0.828125 0.359375 1.375 1.015625q0.546875 0.640625 0.828125 1.53125q0.28125 0.890625 0.28125 1.953125l0 0.921875l-6.828125 0q0.0625 0.578125 0.28125 1.078125q0.234375 0.484375 0.59375 0.84375q0.375 0.359375 0.859375 0.5625q0.5 0.203125 1.09375 0.203125q0.828125 0 1.53125 -0.328125q0.703125 -0.328125 1.140625 -0.890625l1.171875 1.109375q-0.234375 0.34375 -0.609375 0.6875q-0.375 0.328125 -0.875 0.59375q-0.5 0.25 -1.125 0.40625q-0.625 0.171875 -1.359375 0.171875zm-0.265625 -8.46875q-0.453125 0 -0.84375 0.171875q-0.390625 0.15625 -0.703125 0.46875q-0.3125 0.3125 -0.53125 0.765625q-0.203125 0.453125 -0.296875 1.03125l4.625 0l0 -0.171875q-0.03125 -0.4375 -0.171875 -0.84375q-0.140625 -0.40625 -0.421875 -0.71875q-0.265625 -0.3125 -0.6875 -0.5q-0.40625 -0.203125 -0.96875 -0.203125z" fill-rule="nonzero"/><path fill="#ffffff" d="m635.33246 62.035194q0 -0.328125 0.09375 -0.609375q0.109375 -0.28125 0.3125 -0.484375q0.203125 -0.203125 0.5 -0.3125q0.296875 -0.125 0.671875 -0.125q0.390625 0 0.6875 0.125q0.296875 0.109375 0.5 0.3125q0.203125 0.203125 0.296875 0.484375q0.109375 0.28125 0.109375 0.609375q0 0.3125 -0.109375 0.578125q-0.09375 0.265625 -0.296875 0.46875q-0.203125 0.203125 -0.5 0.328125q-0.296875 0.109375 -0.6875 0.109375q-0.375 0 -0.671875 -0.109375q-0.296875 -0.125 -0.5 -0.328125q-0.203125 -0.203125 -0.3125 -0.46875q-0.09375 -0.265625 -0.09375 -0.578125zm3.0625 9.0q0 0.484375 -0.125 0.984375q-0.125 0.515625 -0.359375 1.0q-0.21875 0.5 -0.546875 0.9375q-0.328125 0.4375 -0.71875 0.796875l-1.234375 -0.65625q0.390625 -0.65625 0.59375 -1.375q0.21875 -0.71875 0.21875 -1.625l0 -1.890625l2.1875 0l-0.015625 1.828125z" fill-rule="nonzero"/><path fill="#999999" d="m63.15625 89.597694l-2.078125 0l-0.6875 3.734375l-1.515625 0l0.703125 -3.734375l-2.109375 0l0 -1.4375l2.375 0l0.53125 -2.859375l-2.234375 0l0 -1.4375l2.515625 0l0.703125 -3.796875l1.5 0l-0.703125 3.796875l2.0625 0l0.71875 -3.796875l1.515625 0l-0.703125 3.796875l1.875 0l0 1.4375l-2.15625 0l-0.53125 2.859375l2.0 0l0 1.4375l-2.265625 0l-0.703125 3.734375l-1.515625 0l0.703125 -3.734375zm-1.796875 -1.4375l2.0625 0l0.53125 -2.859375l-2.078125 0l-0.515625 2.859375zm12.836197 5.359375q-1.09375 0 -2.0 -0.359375q-0.890625 -0.375 -1.53125 -1.015625q-0.640625 -0.640625 -1.0 -1.5q-0.359375 -0.875 -0.359375 -1.890625l0 -0.375q0 -1.171875 0.375 -2.109375q0.390625 -0.9375 1.015625 -1.59375q0.640625 -0.671875 1.46875 -1.015625q0.84375 -0.359375 1.78125 -0.359375q1.078125 0 1.890625 0.359375q0.828125 0.359375 1.375 1.015625q0.546875 0.640625 0.828125 1.53125q0.28125 0.890625 0.28125 1.953125l0 0.921875l-6.828125 0q0.0625 0.578125 0.28125 1.078125q0.234375 0.484375 0.59375 0.84375q0.375 0.359375 0.859375 0.5625q0.5 0.203125 1.09375 0.203125q0.828125 0 1.53125 -0.328125q0.703125 -0.328125 1.140625 -0.890625l1.171875 1.109375q-0.234375 0.34375 -0.609375 0.6875q-0.375 0.328125 -0.875 0.59375q-0.5 0.25 -1.125 0.40625q-0.625 0.171875 -1.359375 0.171875zm-0.265625 -8.46875q-0.453125 0 -0.84375 0.171875q-0.390625 0.15625 -0.703125 0.46875q-0.3125 0.3125 -0.53125 0.765625q-0.203125 0.453125 -0.296875 1.03125l4.625 0l0 -0.171875q-0.03125 -0.4375 -0.171875 -0.84375q-0.140625 -0.40625 -0.421875 -0.71875q-0.265625 -0.3125 -0.6875 -0.5q-0.40625 -0.203125 -0.96875 -0.203125zm7.273697 -5.71875l5.328125 0l0 12.203125l3.0 0l0 1.796875l-8.328125 0l0 -1.796875l3.140625 0l0 -10.375l-3.140625 0l0 -1.828125zm17.211197 11.328125q0 -0.25 -0.09375 -0.453125q-0.09375 -0.203125 -0.359375 -0.359375q-0.265625 -0.171875 -0.71875 -0.3125q-0.4375 -0.15625 -1.140625 -0.296875q-0.875 -0.171875 -1.59375 -0.421875q-0.703125 -0.265625 -1.203125 -0.625q-0.5 -0.359375 -0.78125 -0.828125q-0.265625 -0.46875 -0.265625 -1.078125q0 -0.609375 0.28125 -1.140625q0.28125 -0.546875 0.796875 -0.953125q0.53125 -0.421875 1.28125 -0.65625q0.75 -0.234375 1.6875 -0.234375q0.984375 0 1.75 0.25q0.78125 0.234375 1.3125 0.65625q0.546875 0.421875 0.828125 1.0q0.296875 0.578125 0.296875 1.234375l-2.1875 0q0 -0.296875 -0.125 -0.5625q-0.125 -0.265625 -0.390625 -0.46875q-0.25 -0.21875 -0.625 -0.34375q-0.375 -0.125 -0.859375 -0.125q-0.5 0 -0.859375 0.109375q-0.359375 0.09375 -0.59375 0.265625q-0.234375 0.171875 -0.359375 0.40625q-0.109375 0.21875 -0.109375 0.46875q0 0.25 0.078125 0.453125q0.09375 0.1875 0.328125 0.359375q0.25 0.15625 0.65625 0.296875q0.421875 0.125 1.09375 0.25q0.921875 0.15625 1.65625 0.40625q0.75 0.25 1.265625 0.609375q0.53125 0.34375 0.8125 0.84375q0.28125 0.484375 0.28125 1.140625q0 0.65625 -0.296875 1.203125q-0.296875 0.546875 -0.859375 0.9375q-0.546875 0.390625 -1.328125 0.609375q-0.78125 0.21875 -1.75 0.21875q-1.0625 0 -1.890625 -0.28125q-0.8125 -0.28125 -1.375 -0.75q-0.5625 -0.46875 -0.84375 -1.0625q-0.28125 -0.59375 -0.28125 -1.203125l2.109375 0q0.03125 0.453125 0.234375 0.78125q0.21875 0.3125 0.546875 0.515625q0.328125 0.1875 0.71875 0.28125q0.40625 0.078125 0.8125 0.078125q1.015625 0 1.53125 -0.328125q0.53125 -0.34375 0.53125 -0.890625zm9.367447 2.859375q-1.09375 0 -2.0 -0.359375q-0.890625 -0.375 -1.53125 -1.015625q-0.640625 -0.640625 -1.0 -1.5q-0.359375 -0.875 -0.359375 -1.890625l0 -0.375q0 -1.171875 0.375 -2.109375q0.390625 -0.9375 1.015625 -1.59375q0.640625 -0.671875 1.46875 -1.015625q0.84375 -0.359375 1.78125 -0.359375q1.078125 0 1.890625 0.359375q0.828125 0.359375 1.375 1.015625q0.546875 0.640625 0.828125 1.53125q0.28125 0.890625 0.28125 1.953125l0 0.921875l-6.828125 0q0.0625 0.578125 0.28125 1.078125q0.234375 0.484375 0.59375 0.84375q0.375 0.359375 0.859375 0.5625q0.5 0.203125 1.09375 0.203125q0.828125 0 1.53125 -0.328125q0.703125 -0.328125 1.140625 -0.890625l1.171875 1.109375q-0.234375 0.34375 -0.609375 0.6875q-0.375 0.328125 -0.875 0.59375q-0.5 0.25 -1.125 0.40625q-0.625 0.171875 -1.359375 0.171875zm-0.265625 -8.46875q-0.453125 0 -0.84375 0.171875q-0.390625 0.15625 -0.703125 0.46875q-0.3125 0.3125 -0.53125 0.765625q-0.203125 0.453125 -0.296875 1.03125l4.625 0l0 -0.171875q-0.03125 -0.4375 -0.171875 -0.84375q-0.140625 -0.40625 -0.421875 -0.71875q-0.265625 -0.3125 -0.6875 -0.5q-0.40625 -0.203125 -0.96875 -0.203125z" fill-rule="nonzero"/><path fill="#999999" d="m112.78125 112.253944l-4.140625 0l-0.90625 3.078125l-2.265625 0l4.3125 -13.265625l1.921875 0l4.234375 13.265625l-2.25 0l-0.90625 -3.078125zm-3.578125 -1.875l3.03125 0l-1.5 -5.1875l-1.53125 5.1875zm17.023697 0.125q0 1.078125 -0.25 2.0q-0.25 0.921875 -0.75 1.59375q-0.484375 0.65625 -1.203125 1.046875q-0.71875 0.375 -1.640625 0.375q-0.84375 0 -1.484375 -0.265625q-0.640625 -0.28125 -1.109375 -0.796875l0 4.671875l-2.171875 0l0 -13.65625l2.0 0l0.09375 1.0q0.46875 -0.5625 1.125 -0.859375q0.65625 -0.3125 1.515625 -0.3125q0.9375 0 1.65625 0.359375q0.734375 0.359375 1.21875 1.03125q0.5 0.65625 0.75 1.578125q0.25 0.921875 0.25 2.046875l0 0.1875zm-2.171875 -0.1875q0 -0.671875 -0.140625 -1.25q-0.125 -0.59375 -0.421875 -1.03125q-0.28125 -0.453125 -0.71875 -0.703125q-0.421875 -0.25 -1.03125 -0.25q-0.734375 0 -1.203125 0.3125q-0.46875 0.296875 -0.75 0.828125l0 4.40625q0.28125 0.5 0.75 0.828125q0.46875 0.3125 1.21875 0.3125q0.609375 0 1.046875 -0.265625q0.4375 -0.265625 0.703125 -0.703125q0.28125 -0.453125 0.40625 -1.03125q0.140625 -0.59375 0.140625 -1.265625l0 -0.1875zm13.367447 0.1875q0 1.078125 -0.25 2.0q-0.25 0.921875 -0.75 1.59375q-0.484375 0.65625 -1.203125 1.046875q-0.71875 0.375 -1.640625 0.375q-0.84375 0 -1.484375 -0.265625q-0.640625 -0.28125 -1.109375 -0.796875l0 4.671875l-2.171875 0l0 -13.65625l2.0 0l0.09375 1.0q0.46875 -0.5625 1.125 -0.859375q0.65625 -0.3125 1.515625 -0.3125q0.9375 0 1.65625 0.359375q0.734375 0.359375 1.21875 1.03125q0.5 0.65625 0.75 1.578125q0.25 0.921875 0.25 2.046875l0 0.1875zm-2.171875 -0.1875q0 -0.671875 -0.140625 -1.25q-0.125 -0.59375 -0.421875 -1.03125q-0.28125 -0.453125 -0.71875 -0.703125q-0.421875 -0.25 -1.03125 -0.25q-0.734375 0 -1.203125 0.3125q-0.46875 0.296875 -0.75 0.828125l0 4.40625q0.28125 0.5 0.75 0.828125q0.46875 0.3125 1.21875 0.3125q0.609375 0 1.046875 -0.265625q0.4375 -0.265625 0.703125 -0.703125q0.28125 -0.453125 0.40625 -1.03125q0.140625 -0.59375 0.140625 -1.265625l0 -0.1875zm5.148697 -8.984375l5.328125 0l0 12.203125l3.0 0l0 1.796875l-8.328125 0l0 -1.796875l3.140625 0l0 -10.375l-3.140625 0l0 -1.828125zm11.273697 4.140625l5.25 0l0 8.0625l2.921875 0l0 1.796875l-8.171875 0l0 -1.796875l3.0625 0l0 -6.25l-3.0625 0l0 -1.8125zm2.875 -2.546875q0 -0.515625 0.328125 -0.84375q0.328125 -0.328125 0.921875 -0.328125q0.59375 0 0.921875 0.328125q0.34375 0.328125 0.34375 0.84375q0 0.515625 -0.34375 0.84375q-0.328125 0.328125 -0.921875 0.328125q-0.59375 0 -0.921875 -0.328125q-0.328125 -0.328125 -0.328125 -0.84375zm12.148697 10.859375q0.40625 0 0.78125 -0.125q0.375 -0.125 0.65625 -0.359375q0.296875 -0.234375 0.46875 -0.53125q0.171875 -0.3125 0.15625 -0.6875l2.0625 0q0.015625 0.71875 -0.328125 1.34375q-0.328125 0.625 -0.90625 1.09375q-0.5625 0.453125 -1.3125 0.734375q-0.734375 0.265625 -1.5625 0.265625q-1.140625 0 -2.0 -0.390625q-0.84375 -0.390625 -1.421875 -1.0625q-0.578125 -0.6875 -0.859375 -1.578125q-0.28125 -0.90625 -0.28125 -1.90625l0 -0.328125q0 -1.015625 0.28125 -1.90625q0.28125 -0.90625 0.859375 -1.578125q0.578125 -0.6875 1.421875 -1.078125q0.859375 -0.390625 2.0 -0.390625q0.890625 0 1.640625 0.28125q0.765625 0.265625 1.3125 0.75q0.5625 0.484375 0.859375 1.171875q0.3125 0.6875 0.296875 1.5l-2.0625 0q0.015625 -0.40625 -0.140625 -0.75q-0.140625 -0.359375 -0.421875 -0.625q-0.28125 -0.265625 -0.671875 -0.421875q-0.375 -0.15625 -0.828125 -0.15625q-0.6875 0 -1.140625 0.28125q-0.453125 0.28125 -0.734375 0.734375q-0.265625 0.4375 -0.390625 1.015625q-0.109375 0.578125 -0.109375 1.171875l0 0.328125q0 0.59375 0.109375 1.171875q0.125 0.578125 0.390625 1.03125q0.28125 0.4375 0.734375 0.71875q0.453125 0.28125 1.140625 0.28125zm13.179947 1.546875q-0.09375 -0.1875 -0.15625 -0.421875q-0.0625 -0.25 -0.109375 -0.53125q-0.21875 0.234375 -0.515625 0.4375q-0.28125 0.203125 -0.640625 0.359375q-0.34375 0.15625 -0.75 0.25q-0.40625 0.09375 -0.859375 0.09375q-0.796875 0 -1.4375 -0.21875q-0.625 -0.234375 -1.078125 -0.625q-0.4375 -0.40625 -0.6875 -0.9375q-0.25 -0.53125 -0.25 -1.171875q0 -1.578125 1.171875 -2.40625q1.1875 -0.84375 3.390625 -0.84375l1.59375 0l0 -0.65625q0 -0.78125 -0.53125 -1.234375q-0.515625 -0.46875 -1.484375 -0.46875q-0.4375 0 -0.765625 0.109375q-0.328125 0.109375 -0.546875 0.296875q-0.21875 0.171875 -0.328125 0.421875q-0.109375 0.234375 -0.109375 0.53125l-2.171875 0q0 -0.578125 0.265625 -1.125q0.265625 -0.546875 0.78125 -0.96875q0.515625 -0.421875 1.265625 -0.671875q0.765625 -0.25 1.71875 -0.25q0.875 0 1.625 0.21875q0.75 0.203125 1.296875 0.625q0.546875 0.421875 0.859375 1.0625q0.3125 0.625 0.3125 1.46875l0 4.390625q0 0.65625 0.09375 1.1875q0.09375 0.53125 0.265625 0.921875l0 0.15625l-2.21875 0zm-2.625 -1.578125q0.421875 0 0.78125 -0.09375q0.375 -0.109375 0.671875 -0.28125q0.296875 -0.171875 0.5 -0.390625q0.21875 -0.21875 0.34375 -0.4375l0 -1.859375l-1.375 0q-1.328125 0 -1.96875 0.4375q-0.640625 0.421875 -0.640625 1.21875q0 0.296875 0.09375 0.5625q0.109375 0.25 0.3125 0.4375q0.21875 0.1875 0.53125 0.296875q0.3125 0.109375 0.75 0.109375zm11.898697 -10.671875l0 2.390625l3.71875 0l0 1.625l-3.71875 0l0 4.734375q0 0.546875 0.125 0.921875q0.140625 0.359375 0.375 0.578125q0.234375 0.21875 0.546875 0.3125q0.328125 0.078125 0.703125 0.078125q0.28125 0 0.578125 -0.03125q0.3125 -0.03125 0.59375 -0.078125q0.296875 -0.046875 0.53125 -0.09375q0.25 -0.046875 0.40625 -0.09375l0.25 1.5q-0.234375 0.140625 -0.578125 0.265625q-0.328125 0.109375 -0.71875 0.171875q-0.390625 0.078125 -0.8125 0.109375q-0.421875 0.046875 -0.828125 0.046875q-0.734375 0 -1.359375 -0.203125q-0.609375 -0.203125 -1.0625 -0.625q-0.4375 -0.4375 -0.6875 -1.109375q-0.25 -0.6875 -0.25 -1.640625l0 -4.84375l-2.40625 0l0 -1.625l2.40625 0l0 -2.390625l2.1875 0zm7.304947 2.390625l5.25 0l0 8.0625l2.921875 0l0 1.796875l-8.171875 0l0 -1.796875l3.0625 0l0 -6.25l-3.0625 0l0 -1.8125zm2.875 -2.546875q0 -0.515625 0.328125 -0.84375q0.328125 -0.328125 0.921875 -0.328125q0.59375 0 0.921875 0.328125q0.34375 0.328125 0.34375 0.84375q0 0.515625 -0.34375 0.84375q-0.328125 0.328125 -0.921875 0.328125q-0.59375 0 -0.921875 -0.328125q-0.328125 -0.328125 -0.328125 -0.84375zm7.445572 7.390625q0 -1.0625 0.3125 -1.984375q0.3125 -0.921875 0.890625 -1.59375q0.59375 -0.6875 1.4375 -1.0625q0.859375 -0.375 1.921875 -0.375q1.09375 0 1.9375 0.375q0.859375 0.375 1.4375 1.0625q0.59375 0.671875 0.90625 1.59375q0.3125 0.921875 0.3125 1.984375l0 0.1875q0 1.078125 -0.3125 2.0q-0.3125 0.921875 -0.90625 1.59375q-0.578125 0.65625 -1.4375 1.046875q-0.84375 0.375 -1.90625 0.375q-1.09375 0 -1.953125 -0.375q-0.84375 -0.390625 -1.4375 -1.046875q-0.578125 -0.671875 -0.890625 -1.59375q-0.3125 -0.921875 -0.3125 -2.0l0 -0.1875zm2.171875 0.1875q0 0.671875 0.140625 1.265625q0.140625 0.59375 0.4375 1.046875q0.296875 0.453125 0.75 0.71875q0.453125 0.25 1.09375 0.25q0.609375 0 1.046875 -0.25q0.453125 -0.265625 0.75 -0.71875q0.296875 -0.453125 0.4375 -1.046875q0.140625 -0.59375 0.140625 -1.265625l0 -0.1875q0 -0.65625 -0.140625 -1.25q-0.140625 -0.59375 -0.4375 -1.03125q-0.296875 -0.453125 -0.75 -0.71875q-0.4375 -0.265625 -1.078125 -0.265625q-0.609375 0 -1.078125 0.265625q-0.453125 0.265625 -0.75 0.71875q-0.28125 0.4375 -0.421875 1.03125q-0.140625 0.59375 -0.140625 1.25l0 0.1875zm11.383072 -5.03125l0.140625 1.375q0.53125 -0.75 1.296875 -1.140625q0.765625 -0.40625 1.6875 -0.40625q0.765625 0 1.390625 0.21875q0.625 0.21875 1.0625 0.6875q0.453125 0.453125 0.703125 1.1875q0.25 0.734375 0.25 1.78125l0 6.15625l-2.171875 0l0 -6.125q0 -0.609375 -0.140625 -1.015625q-0.140625 -0.40625 -0.40625 -0.65625q-0.25 -0.25 -0.625 -0.34375q-0.375 -0.109375 -0.84375 -0.109375q-0.734375 0 -1.265625 0.328125q-0.53125 0.3125 -0.859375 0.859375l0 7.0625l-2.1875 0l0 -9.859375l1.96875 0zm11.961197 8.5625q0 -0.328125 0.09375 -0.609375q0.109375 -0.28125 0.3125 -0.484375q0.203125 -0.203125 0.5 -0.3125q0.296875 -0.125 0.671875 -0.125q0.390625 0 0.6875 0.125q0.296875 0.109375 0.5 0.3125q0.203125 0.203125 0.296875 0.484375q0.109375 0.28125 0.109375 0.609375q0 0.3125 -0.109375 0.578125q-0.09375 0.265625 -0.296875 0.46875q-0.203125 0.203125 -0.5 0.3125q-0.296875 0.125 -0.6875 0.125q-0.375 0 -0.671875 -0.125q-0.296875 -0.109375 -0.5 -0.3125q-0.203125 -0.203125 -0.3125 -0.46875q-0.09375 -0.265625 -0.09375 -0.578125zm17.492447 -4.375q0 0.6875 -0.125 1.34375q-0.109375 0.640625 -0.34375 1.265625q-0.21875 0.609375 -0.5625 1.140625q-0.328125 0.53125 -0.78125 0.953125l2.265625 1.9375l-1.453125 1.3125l-2.59375 -2.265625q-0.28125 0.078125 -0.59375 0.125q-0.3125 0.046875 -0.671875 0.046875q-1.203125 0 -2.109375 -0.5q-0.890625 -0.515625 -1.484375 -1.34375q-0.59375 -0.828125 -0.890625 -1.875q-0.28125 -1.046875 -0.296875 -2.140625l0 -1.6875q0.015625 -0.796875 0.140625 -1.546875q0.125 -0.765625 0.390625 -1.4375q0.265625 -0.6875 0.65625 -1.25q0.390625 -0.5625 0.921875 -0.96875q0.53125 -0.421875 1.1875 -0.65625q0.671875 -0.234375 1.484375 -0.234375q1.234375 0 2.140625 0.515625q0.90625 0.5 1.5 1.34375q0.609375 0.828125 0.90625 1.9375q0.3125 1.109375 0.3125 2.296875l0 1.6875zm-2.203125 -1.703125q0 -0.78125 -0.125 -1.53125q-0.125 -0.765625 -0.421875 -1.34375q-0.296875 -0.59375 -0.8125 -0.96875q-0.515625 -0.375 -1.296875 -0.375q-0.765625 0 -1.265625 0.375q-0.5 0.375 -0.796875 0.96875q-0.28125 0.59375 -0.40625 1.359375q-0.109375 0.75 -0.109375 1.515625l0 1.703125q0 0.6875 0.109375 1.390625q0.125 0.703125 0.40625 1.296875q0.296875 0.578125 0.796875 0.953125q0.5 0.375 1.265625 0.375q0.796875 0 1.296875 -0.375q0.515625 -0.375 0.8125 -0.953125q0.296875 -0.59375 0.421875 -1.296875q0.125 -0.703125 0.125 -1.390625l0 -1.703125zm10.695557 6.03125q-0.5 0.71875 -1.21875 1.125q-0.71875 0.40625 -1.5937347 0.40625q-0.765625 0 -1.40625 -0.234375q-0.625 -0.234375 -1.078125 -0.75q-0.453125 -0.515625 -0.703125 -1.3125q-0.25 -0.796875 -0.25 -1.921875l0 -5.828125l2.171875 0l0 5.84375q0 0.71875 0.109375 1.1875q0.109375 0.453125 0.328125 0.734375q0.21875 0.265625 0.546875 0.390625q0.328125 0.109375 0.78125 0.109375q0.87498474 0 1.4062347 -0.34375q0.546875 -0.34375 0.8125 -0.921875l0 -7.0l2.1875 0l0 9.859375l-1.96875 0l-0.125 -1.34375zm5.351837 -8.515625l5.25 0l0 8.0625l2.921875 0l0 1.796875l-8.171875 0l0 -1.796875l3.0625 0l0 -6.25l-3.0625 0l0 -1.8125zm2.875 -2.546875q0 -0.515625 0.328125 -0.84375q0.328125 -0.328125 0.921875 -0.328125q0.59375 0 0.921875 0.328125q0.34375 0.328125 0.34375 0.84375q0 0.515625 -0.34375 0.84375q-0.328125 0.328125 -0.921875 0.328125q-0.59375 0 -0.921875 -0.328125q-0.328125 -0.328125 -0.328125 -0.84375zm12.211212 0.15625l0 2.390625l3.71875 0l0 1.625l-3.71875 0l0 4.734375q0 0.546875 0.125 0.921875q0.140625 0.359375 0.375 0.578125q0.234375 0.21875 0.546875 0.3125q0.328125 0.078125 0.703125 0.078125q0.28125 0 0.578125 -0.03125q0.3125 -0.03125 0.59375 -0.078125q0.296875 -0.046875 0.53125 -0.09375q0.25 -0.046875 0.40625 -0.09375l0.25 1.5q-0.234375 0.140625 -0.578125 0.265625q-0.328125 0.109375 -0.71875 0.171875q-0.390625 0.078125 -0.8125 0.109375q-0.421875 0.046875 -0.828125 0.046875q-0.734375 0 -1.359375 -0.203125q-0.609375 -0.203125 -1.0625 -0.625q-0.4375 -0.4375 -0.6875 -1.109375q-0.25 -0.6875 -0.25 -1.640625l0 -4.84375l-2.40625 0l0 -1.625l2.40625 0l0 -2.390625l2.1875 0zm8.586182 6.859375q0 -1.328125 0.203125 -2.46875q0.21875 -1.15625 0.5625 -2.125q0.34375 -0.96875 0.796875 -1.765625q0.46875 -0.796875 0.96875 -1.40625q0.515625 -0.625 1.015625 -1.046875q0.515625 -0.421875 0.984375 -0.65625l0.4375 1.28125q-0.515625 0.390625 -1.046875 1.078125q-0.53125 0.6875 -0.953125 1.6875q-0.421875 1.0 -0.703125 2.34375q-0.265625 1.34375 -0.265625 3.0625l0 0.171875q0 1.71875 0.265625 3.0625q0.28125 1.34375 0.703125 2.34375q0.421875 1.015625 0.953125 1.703125q0.53125 0.703125 1.046875 1.125l-0.4375 1.21875q-0.46875 -0.234375 -0.984375 -0.65625q-0.5 -0.421875 -1.015625 -1.046875q-0.5 -0.609375 -0.96875 -1.40625q-0.453125 -0.796875 -0.796875 -1.765625q-0.34375 -0.96875 -0.5625 -2.109375q-0.203125 -1.15625 -0.203125 -2.484375l0 -0.140625zm15.929932 0.140625q0 1.3125 -0.21875 2.453125q-0.203125 1.140625 -0.5625 2.109375q-0.34375 0.96875 -0.8125 1.765625q-0.46875 0.8125 -0.984375 1.421875q-0.515625 0.625 -1.046875 1.046875q-0.515625 0.4375 -0.96875 0.671875l-0.4375 -1.21875q0.515625 -0.390625 1.046875 -1.09375q0.53125 -0.6875 0.953125 -1.703125q0.421875 -1.015625 0.6875 -2.359375q0.28125 -1.359375 0.28125 -3.078125l0 -0.171875q0 -1.71875 -0.28125 -3.0625q-0.28125 -1.359375 -0.71875 -2.375q-0.4375 -1.03125 -0.96875 -1.71875q-0.515625 -0.6875 -1.0 -1.078125l0.4375 -1.21875q0.453125 0.234375 0.96875 0.65625q0.53125 0.421875 1.046875 1.046875q0.515625 0.625 0.984375 1.4375q0.46875 0.796875 0.8125 1.78125q0.359375 0.96875 0.5625 2.109375q0.21875 1.140625 0.21875 2.4375l0 0.140625zm7.429962 -4.046875q0 -0.328125 0.09375 -0.609375q0.109375 -0.28125 0.3125 -0.484375q0.203125 -0.203125 0.5 -0.3125q0.296875 -0.125 0.671875 -0.125q0.390625 0 0.6875 0.125q0.296875 0.109375 0.5 0.3125q0.203125 0.203125 0.296875 0.484375q0.109375 0.28125 0.109375 0.609375q0 0.3125 -0.109375 0.578125q-0.09375 0.265625 -0.296875 0.46875q-0.203125 0.203125 -0.5 0.328125q-0.296875 0.109375 -0.6875 0.109375q-0.375 0 -0.671875 -0.109375q-0.296875 -0.125 -0.5 -0.328125q-0.203125 -0.203125 -0.3125 -0.46875q-0.09375 -0.265625 -0.09375 -0.578125zm3.0625 9.0q0 0.484375 -0.125 0.984375q-0.125 0.515625 -0.359375 1.0q-0.21875 0.5 -0.546875 0.9375q-0.328125 0.4375 -0.71875 0.796875l-1.234375 -0.65625q0.390625 -0.65625 0.59375 -1.375q0.21875 -0.71875 0.21875 -1.625l0 -1.890625l2.1875 0l-0.015625 1.828125z" fill-rule="nonzero"/><path fill="#999999" d="m63.15625 133.59769l-2.078125 0l-0.6875 3.734375l-1.515625 0l0.703125 -3.734375l-2.109375 0l0 -1.4375l2.375 0l0.53125 -2.859375l-2.234375 0l0 -1.4375l2.515625 0l0.703125 -3.796875l1.5 0l-0.703125 3.796875l2.0625 0l0.71875 -3.796875l1.515625 0l-0.703125 3.796875l1.875 0l0 1.4375l-2.15625 0l-0.53125 2.859375l2.0 0l0 1.4375l-2.265625 0l-0.703125 3.734375l-1.515625 0l0.703125 -3.734375zm-1.796875 -1.4375l2.0625 0l0.53125 -2.859375l-2.078125 0l-0.515625 2.859375zm12.836197 5.359375q-1.09375 0 -2.0 -0.359375q-0.890625 -0.375 -1.53125 -1.015625q-0.640625 -0.640625 -1.0 -1.5q-0.359375 -0.875 -0.359375 -1.890625l0 -0.375q0 -1.171875 0.375 -2.109375q0.390625 -0.9375 1.015625 -1.59375q0.640625 -0.671875 1.46875 -1.015625q0.84375 -0.359375 1.78125 -0.359375q1.078125 0 1.890625 0.359375q0.828125 0.359375 1.375 1.015625q0.546875 0.640625 0.828125 1.53125q0.28125 0.890625 0.28125 1.953125l0 0.921875l-6.828125 0q0.0625 0.578125 0.28125 1.078125q0.234375 0.484375 0.59375 0.84375q0.375 0.359375 0.859375 0.5625q0.5 0.203125 1.09375 0.203125q0.828125 0 1.53125 -0.328125q0.703125 -0.328125 1.140625 -0.890625l1.171875 1.109375q-0.234375 0.34375 -0.609375 0.6875q-0.375 0.328125 -0.875 0.59375q-0.5 0.25 -1.125 0.40625q-0.625 0.171875 -1.359375 0.171875zm-0.265625 -8.46875q-0.453125 0 -0.84375 0.171875q-0.390625 0.15625 -0.703125 0.46875q-0.3125 0.3125 -0.53125 0.765625q-0.203125 0.453125 -0.296875 1.03125l4.625 0l0 -0.171875q-0.03125 -0.4375 -0.171875 -0.84375q-0.140625 -0.40625 -0.421875 -0.71875q-0.265625 -0.3125 -0.6875 -0.5q-0.40625 -0.203125 -0.96875 -0.203125zm8.836197 -1.578125l0.140625 1.375q0.53125 -0.75 1.296875 -1.140625q0.765625 -0.40625 1.6875 -0.40625q0.765625 0 1.390625 0.21875q0.625 0.21875 1.0625 0.6875q0.453125 0.453125 0.703125 1.1875q0.25 0.734375 0.25 1.78125l0 6.15625l-2.171875 0l0 -6.125q0 -0.609375 -0.140625 -1.015625q-0.140625 -0.40625 -0.40625 -0.65625q-0.25 -0.25 -0.625 -0.34375q-0.375 -0.109375 -0.84375 -0.109375q-0.734375 0 -1.265625 0.328125q-0.53125 0.3125 -0.859375 0.859375l0 7.0625l-2.1875 0l0 -9.859375l1.96875 0zm8.945572 4.859375q0 -1.125 0.265625 -2.046875q0.28125 -0.9375 0.78125 -1.59375q0.515625 -0.671875 1.234375 -1.03125q0.734375 -0.359375 1.625 -0.359375q0.8125 0 1.4375 0.28125q0.625 0.265625 1.078125 0.78125l0 -5.03125l2.1875 0l0 14.0l-1.96875 0l-0.109375 -1.0q-0.46875 0.578125 -1.125 0.890625q-0.640625 0.296875 -1.515625 0.296875q-0.890625 0 -1.609375 -0.375q-0.71875 -0.390625 -1.234375 -1.046875q-0.5 -0.671875 -0.78125 -1.578125q-0.265625 -0.921875 -0.265625 -2.0l0 -0.1875zm2.171875 0.1875q0 0.671875 0.125 1.25q0.125 0.578125 0.40625 1.015625q0.28125 0.4375 0.703125 0.6875q0.4375 0.25 1.046875 0.25q0.75 0 1.21875 -0.3125q0.46875 -0.328125 0.75 -0.875l0 -4.28125q-0.28125 -0.53125 -0.765625 -0.84375q-0.46875 -0.328125 -1.1875 -0.328125q-0.609375 0 -1.046875 0.25q-0.421875 0.25 -0.703125 0.703125q-0.28125 0.453125 -0.421875 1.046875q-0.125 0.578125 -0.125 1.25l0 0.1875zm9.789322 -5.046875l5.25 0l0 8.0625l2.921875 0l0 1.796875l-8.171875 0l0 -1.796875l3.0625 0l0 -6.25l-3.0625 0l0 -1.8125zm2.875 -2.546875q0 -0.515625 0.328125 -0.84375q0.328125 -0.328125 0.921875 -0.328125q0.59375 0 0.921875 0.328125q0.34375 0.328125 0.34375 0.84375q0 0.515625 -0.34375 0.84375q-0.328125 0.328125 -0.921875 0.328125q-0.59375 0 -0.921875 -0.328125q-0.328125 -0.328125 -0.328125 -0.84375zm10.320572 12.40625l0 -8.234375l-2.65625 0l0 -1.625l2.65625 0l0 -0.609375q0 -0.953125 0.28125 -1.6875q0.296875 -0.734375 0.828125 -1.234375q0.546875 -0.5 1.3125 -0.75q0.765625 -0.265625 1.71875 -0.265625q0.625 0 1.1875 0.109375q0.578125 0.09375 1.203125 0.21875l-0.1875 1.71875q-0.359375 -0.09375 -0.84375 -0.171875q-0.46875 -0.078125 -1.0625 -0.078125q-1.171875 0 -1.71875 0.5625q-0.53125 0.546875 -0.53125 1.578125l0 0.609375l3.65625 0l0 1.625l-3.65625 0l0 8.234375l-2.1875 0z" fill-rule="nonzero"/><path fill="#ffffff" d="m11.984375 161.33206q0.5 0.015625 0.8125 -0.265625q0.328125 -0.265625 0.5 -0.6875q0.1875 -0.421875 0.25 -0.96875q0.078125 -0.53125 0.078125 -1.046875l0 -1.484375q0 -1.0625 0.5 -1.890625q0.5 -0.84375 1.578125 -1.28125q-1.078125 -0.453125 -1.578125 -1.28125q-0.5 -0.84375 -0.5 -1.921875l0 -1.484375q0 -0.515625 -0.03125 -1.046875q-0.03125 -0.53125 -0.1875 -0.953125q-0.15625 -0.4375 -0.5 -0.703125q-0.328125 -0.28125 -0.921875 -0.265625l0.234375 -1.265625q0.640625 0 1.140625 0.1875q0.515625 0.171875 0.890625 0.484375q0.390625 0.3125 0.65625 0.734375q0.28125 0.40625 0.453125 0.890625q0.171875 0.46875 0.25 0.96875q0.078125 0.5 0.078125 0.96875l0 1.484375q0 1.28125 0.59375 1.84375q0.59375 0.546875 1.8125 0.546875l0 1.609375q-1.21875 0 -1.8125 0.5625q-0.59375 0.546875 -0.59375 1.8125l0 1.484375q0 0.484375 -0.09375 0.984375q-0.078125 0.5 -0.265625 0.96875q-0.1875 0.46875 -0.46875 0.890625q-0.28125 0.421875 -0.671875 0.734375q-0.375 0.3125 -0.875 0.484375q-0.484375 0.1875 -1.09375 0.1875l-0.234375 -1.28125z" fill-rule="nonzero"/></g></svg>